<svg width="1919" height="929" viewBox="0 0 1919 929" fill="none" xmlns="http://www.w3.org/2000/svg">
<g clip-path="url(#clip0)">
<path fill-rule="evenodd" clip-rule="evenodd" d="M226.87 727.652C251.002 749.308 292.775 745.133 329.702 741.445C402.87 734.12 477.857 721.378 558.95 702.455C582.937 696.865 607.252 690.348 630.762 684.072C681.459 670.522 733.865 656.51 786.367 650.6C864.077 641.885 943.09 647.28 1017.37 653.53C1085.44 659.293 1163.77 662.832 1231.91 632.095C1283.52 608.803 1326.14 567.605 1355.16 512.955C1382.7 461.087 1395.22 401.09 1390.39 344.02C1384.25 271.255 1356.69 207.24 1312.79 163.772C1294.9 146.06 1273.74 131.167 1253.28 116.763C1221.56 94.435 1188.76 71.353 1168.52 37.66C1137.54 -13.902 1149.52 -82.59 1195.8 -118.697C1253.86 -164 1331.91 -134.25 1362.78 -119.345C1384.17 -109.03 1404.79 -96.848 1424.71 -85.08C1464.28 -61.717 1505.18 -37.558 1553.25 -27.39C1616.85 -13.95 1682.23 -19.26 1745.41 -24.4L1751.56 -24.9C1876.83 -35.055 2005.71 -35.995 2084.52 71.095C2114.84 112.295 2132.72 161.525 2150.03 209.132C2156.74 227.64 2163.7 246.78 2171.29 265.175C2175.49 275.417 2179.96 285.77 2184.25 295.79C2205.96 346.217 2228.39 398.368 2228.93 454.592C2229.61 526.625 2187.58 584.72 2144.46 638.027L2135.06 649.647C2090.72 704.36 2048.85 756.045 2014.38 817.567C2009.18 826.87 2004.18 836.27 1998.85 846.23C1972.78 895.13 1945.83 945.69 1900.39 974.04C1846.63 1007.58 1779.15 997.33 1719.61 988.27L1716.02 987.74C1641.82 976.48 1569.04 968.23 1494.71 990.91C1455.37 1002.87 1418.35 1021.38 1382.54 1039.27C1353.37 1053.85 1323.21 1068.91 1292.15 1080.24C1283.31 1083.46 1274.49 1086.66 1265.69 1089.83C1204.07 1112.05 1145.88 1133.05 1089.17 1165.74C1037.45 1195.55 993.57 1231.26 947.11 1269.11C937.7 1276.77 928.26 1284.44 918.73 1292.11C896.827 1309.68 875.697 1323.94 855.02 1335H875.185C891.58 1325.18 908.16 1313.54 925 1300.04C934.56 1292.35 944.01 1284.66 953.43 1276.99C999.58 1239.42 1043.15 1203.95 1094.17 1174.53C1150.1 1142.3 1207.9 1121.45 1269.08 1099.36C1277.89 1096.18 1286.73 1093.01 1295.58 1089.76C1327.17 1078.24 1357.59 1063.05 1387.01 1048.36C1422.45 1030.63 1459.08 1012.34 1497.61 1000.6C1569.95 978.55 1641.5 986.66 1714.53 997.75L1718.12 998.3C1779.35 1007.61 1848.78 1018.16 1905.71 982.63C1953.42 952.87 1981.03 901.09 2007.74 851.01C2013.01 841.1 2017.99 831.753 2023.17 822.55C2057.21 761.782 2098.8 710.415 2142.87 656.045L2152.27 644.425C2194.61 592.08 2239.72 529.897 2238.99 454.495C2238.46 396.217 2215.6 343.118 2193.51 291.763C2189.21 281.777 2184.77 271.45 2180.57 261.295C2173.07 243.092 2166.17 224.063 2159.47 205.655C2141.94 157.362 2123.8 107.438 2092.6 65.053C2010.74 -46.2 1878.83 -45.382 1750.76 -35.007L1744.61 -34.507C1682.11 -29.428 1617.51 -24.167 1555.3 -37.315C1508.84 -47.14 1470.46 -69.81 1429.81 -93.82C1409.69 -105.697 1388.89 -117.99 1367.13 -128.49C1334.58 -144.2 1252.13 -175.473 1189.64 -126.708C1139.38 -87.498 1126.32 -12.985 1159.91 42.91C1181.25 78.433 1214.94 102.138 1247.52 125.075C1267.64 139.235 1288.45 153.885 1305.74 170.998C1347.93 212.77 1374.43 274.515 1380.37 344.875C1390.23 461.6 1326.05 578.505 1227.78 622.843C1161.84 652.603 1085.03 649.088 1018.21 643.447C943.43 637.125 863.857 631.705 785.254 640.543C732.01 646.522 679.225 660.635 628.187 674.282C604.75 680.532 580.507 687.027 556.68 692.567C476.002 711.393 401.442 724.088 328.64 731.362C293.837 734.83 254.397 738.785 233.572 720.082C222.842 710.465 217.457 695.548 217.115 674.478C216.262 620.938 237.685 564.797 280.787 507.645C289.37 496.255 298.207 484.792 306.752 473.697C340.932 429.322 376.282 383.438 403.75 332.485C434.255 275.93 463.967 208.683 494.607 126.92C525.6 44.205 537.087 -29.917 529.702 -99.68C527.247 -122.97 522.182 -144.518 515.31 -165H504.737C511.915 -144.26 517.177 -122.482 519.705 -98.605C526.907 -30.455 515.615 42.14 485.195 123.342C454.715 204.678 425.185 271.5 394.912 327.652C367.825 377.87 332.74 423.428 298.805 467.482C290.237 478.603 281.385 490.09 272.767 501.515C228.272 560.513 206.167 618.765 207.057 674.647C207.435 698.697 213.917 716.03 226.87 727.652" fill="url(#paint0_linear)" fill-opacity="0.5"/>
<path fill-rule="evenodd" clip-rule="evenodd" d="M569.79 1324.58C556.68 1320.18 543.13 1315.62 529.932 1311.42C466.482 1291.22 394.667 1265.22 345.472 1211.91C308.34 1171.67 298.5 1117.79 288.979 1065.67C286.38 1051.41 283.692 1036.68 280.482 1022.47C272.635 987.71 262.965 952.85 250.917 915.91C247.22 904.53 243.715 892.64 240.334 881.12C233.057 856.36 225.527 830.777 215.102 807.192C199.427 771.793 168.787 761.952 143.837 757.315C112.417 751.505 79.115 744.473 47.817 728.335C-1.061 703.115 -36.498 659.513 -63.695 591.128C-77.598 556.155 -90.05 519.925 -102 484.428V515.737C-92.893 542.24 -83.373 568.888 -73.033 594.888C-45.275 664.713 -7.238 711.317 43.227 737.345C75.747 754.115 109.865 761.343 142.017 767.3C175.917 773.575 195.022 786.732 205.897 811.317C216.067 834.293 223.5 859.56 230.677 884C234.084 895.57 237.612 907.56 241.36 919.06C253.31 955.7 262.892 990.27 270.667 1024.72C273.83 1038.74 276.49 1053.36 279.08 1067.5C288.857 1121.04 298.977 1176.41 338.1 1218.81C388.967 1273.94 462.22 1300.5 526.907 1321.08C540.017 1325.26 553.53 1329.8 566.602 1334.2C567.397 1334.46 568.202 1334.73 568.995 1335H601.1C590.602 1331.58 580.165 1328.07 569.79 1324.58" fill="url(#paint1_linear)" fill-opacity="0.5"/>
<path fill-rule="evenodd" clip-rule="evenodd" d="M1450.93 -134.055C1501.93 -107.773 1550.08 -82.945 1606.47 -73.118C1665.87 -62.777 1725.49 -71.737 1783.13 -80.418C1798.46 -82.725 1814.31 -85.105 1829.91 -87.083C1907.15 -96.922 1964.72 -90.695 2016.5 -66.94C2067.29 -43.638 2111.92 -4.147 2142.14 44.265C2166.5 83.303 2179.35 128.408 2191.78 172.035C2198.17 194.498 2204.79 217.715 2212.89 239.822C2218.68 255.63 2225.42 271.865 2231.91 287.563C2253.61 340.042 2276.08 394.29 2273.1 450.893C2268.46 538.43 2214.46 604.322 2162.21 668.058C2131.28 705.8 2099.27 744.84 2077.34 788.272C2036.28 869.69 2023 941.35 2037.87 1001.26C2041.36 1015.32 2045.53 1029.07 2049.56 1042.35C2065.72 1095.69 2081.01 1146.08 2046.31 1201.21C2032.79 1222.7 2017.65 1243.01 2003.03 1262.64C1985.86 1285.68 1968.31 1309.27 1953.22 1335H1956.15C1971 1309.88 1988.21 1286.76 2005.03 1264.17C2019.71 1244.5 2034.86 1224.13 2048.44 1202.58C2083.74 1146.45 2068.31 1095.52 2051.96 1041.62C2047.95 1028.36 2043.8 1014.66 2040.31 1000.65C2025.59 941.35 2038.82 870.28 2079.59 789.42C2101.39 746.23 2133.3 707.315 2164.16 669.668C2216.65 605.617 2270.92 539.395 2275.59 451.027C2278.61 393.85 2256.06 339.322 2234.23 286.587C2227.74 270.913 2221.02 254.703 2215.26 238.942C2207.18 216.922 2200.59 193.752 2194.19 171.34C2181.71 127.542 2168.83 82.252 2144.26 42.922C2113.77 -5.905 2068.78 -45.737 2017.55 -69.235C1965.31 -93.21 1907.35 -99.485 1829.59 -89.598C1813.97 -87.62 1798.1 -85.228 1782.76 -82.92C1725.29 -74.277 1665.89 -65.342 1606.91 -75.62C1550.88 -85.385 1502.88 -110.118 1452.08 -136.313C1444.68 -140.123 1437.28 -143.943 1429.83 -147.728C1418.24 -153.598 1406.45 -159.445 1394.47 -165H1388.43C1402.09 -158.788 1415.53 -152.145 1428.71 -145.458C1436.16 -141.685 1443.56 -137.865 1450.93 -134.055" fill="url(#paint2_linear)" fill-opacity="0.5"/>
<path fill-rule="evenodd" clip-rule="evenodd" d="M1214.59 153.018C1183.61 127.87 1151.58 101.87 1128.3 68.485C1092.42 17.007 1090.7 -54.393 1123.91 -113.4C1135.55 -134.08 1150.39 -151.462 1167.49 -165H1163.49C1147.17 -151.56 1132.97 -134.63 1121.72 -114.645C1088.04 -54.795 1089.81 17.665 1126.23 69.938C1149.71 103.627 1181.9 129.74 1213.01 154.982C1232.24 170.595 1252.14 186.732 1269.69 204.458C1314.83 250.015 1338.49 313.442 1334.6 378.458C1330.59 445.205 1298.46 507.107 1246.44 548.283C1168.01 610.343 1071.68 605.447 978.52 600.735C928.35 598.195 876.467 595.56 827.955 603.407C813.442 605.753 798.77 607.633 784.572 609.438C768.47 611.49 751.807 613.612 735.33 616.445C706.337 621.425 677.125 627.675 648.88 633.73C638.905 635.855 628.932 638.003 618.947 640.077L613.209 641.275C550.147 654.457 478.665 669.425 413.112 662.93C374.207 659.072 344.227 645.18 328.687 623.817C316.847 607.522 313.392 587.16 318.435 563.295C327.285 521.328 351.895 484.475 375.685 448.83C388.65 429.422 402.04 409.353 412.6 388.833C432.167 350.783 447.377 309.78 462.075 270.132C465.75 260.232 469.41 250.345 473.135 240.518C479.152 224.672 485.487 208.645 491.615 193.143C504.115 161.55 517.042 128.885 527.845 95.998C558.132 3.79999 565.15 -80.235 549.294 -165H546.729C562.625 -80.502 555.655 3.26299 525.452 95.205C514.675 128.005 501.772 160.647 489.285 192.203C483.145 207.717 476.807 223.745 470.79 239.615C467.055 249.44 463.392 259.34 459.72 269.24C445.032 308.828 429.86 349.757 410.365 387.672C399.88 408.06 386.512 428.067 373.597 447.415C349.672 483.268 324.927 520.328 315.97 562.77C310.78 587.367 314.382 608.412 326.662 625.308C342.63 647.28 373.245 661.537 412.854 665.445C478.797 671.987 550.49 656.973 613.722 643.765L619.459 642.567C629.445 640.47 639.43 638.345 649.405 636.197C677.627 630.165 706.812 623.915 735.745 618.96C752.175 616.128 768.812 614.005 784.89 611.952C799.11 610.147 813.807 608.268 828.347 605.91C876.6 598.11 928.35 600.735 978.39 603.263C1072.02 608.01 1168.83 612.905 1247.99 550.27C1300.58 508.645 1333.06 446.085 1337.1 378.615C1341.04 312.868 1317.11 248.732 1271.48 202.663C1253.82 184.842 1233.88 168.667 1214.59 153.018" fill="url(#paint3_linear)" fill-opacity="0.5"/>
<path fill-rule="evenodd" clip-rule="evenodd" d="M1166.31 174.283C1148.46 157.46 1130.01 140.065 1113.6 121.5C1063.09 64.357 1045.19 0.663002 1060.4 -67.783C1068.42 -103.868 1082.22 -137.155 1100.09 -165H1097.11C1079.49 -137.18 1065.89 -104.112 1057.95 -68.345C1042.54 0.955002 1060.63 65.395 1111.72 123.183C1128.2 141.835 1146.7 159.268 1164.59 176.125C1193.9 203.75 1224.21 232.315 1246.36 266.922C1282.9 323.99 1284.78 390.712 1251.38 445.413C1211.15 511.33 1143.36 534.987 1093.58 543.228C1044.84 551.297 994.19 553.152 945.22 554.935C918.51 555.91 890.907 556.913 863.99 558.925C813.93 562.65 763.662 570.34 715.04 577.76C687.294 582.01 658.62 586.393 630.275 589.992L629.957 590.03C581.595 596.183 531.582 602.553 484.695 591.482C461.342 585.978 444.435 576.223 434.425 562.515C415.945 537.185 424.952 503.178 435.78 470.522C446.352 438.625 456.544 406.007 466.395 374.465C479.847 331.41 493.752 286.88 508.827 243.57C516.25 222.243 524.439 200.638 532.35 179.74C551.49 129.225 571.29 76.993 582.35 23.415C594.85 -37.132 596.717 -100.473 587.952 -165H585.415C594.192 -100.645 592.36 -37.473 579.885 22.902C568.862 76.272 549.11 128.408 530.007 178.835C522.072 199.745 513.882 221.377 506.459 242.728C491.372 286.087 477.455 330.63 463.99 373.708C454.14 405.24 443.959 437.845 433.387 469.717C425.245 494.325 411.597 535.5 432.4 564.015C442.775 578.225 460.169 588.295 484.12 593.947C502.967 598.402 522.28 600.063 541.762 600.063C571.205 600.063 601.04 596.268 630.275 592.545L630.592 592.508C658.962 588.895 687.66 584.513 715.419 580.275C763.99 572.842 814.209 565.175 864.175 561.44C891.042 559.438 918.63 558.438 945.3 557.46C994.36 555.678 1045.09 553.822 1093.99 545.73C1144.29 537.405 1212.78 513.467 1253.53 446.743C1287.44 391.19 1285.56 323.453 1248.49 265.555C1226.16 230.678 1195.73 202.005 1166.31 174.283" fill="url(#paint4_linear)" fill-opacity="0.5"/>
<path fill-rule="evenodd" clip-rule="evenodd" d="M1062.93 116.982C1022.41 64.578 1008.28 1.45499 1022.05 -65.538C1027.03 -89.72 1036.51 -126.535 1053.46 -165H1050.71C1033.96 -126.695 1024.55 -90.135 1019.59 -66.05C1005.65 1.7 1019.96 65.518 1060.94 118.545C1075.61 137.515 1093.2 155.995 1111.82 175.575C1168.75 235.39 1227.61 297.243 1211.01 381.337C1194.41 465.36 1098.72 490.458 1017.2 502.933C989.22 507.217 960.58 510.257 932.88 513.21C917.36 514.87 901.33 516.58 885.584 518.485C868.325 520.572 851.027 522.768 833.729 524.978C775.392 532.413 715.077 540.103 655.617 543.215C572.437 547.585 523.537 526.76 510.267 481.362C501.467 451.26 504.995 417.678 509.365 385.88C509.937 381.74 510.035 375.942 510.145 369.228C510.427 352.993 510.817 330.752 519.13 324.112L519.459 323.708C523.83 315.382 524.917 305.728 525.955 296.39C526.357 292.752 526.747 289.322 527.31 285.953C529.762 271.377 534.535 256.815 539.15 242.728L540.725 237.893C549.635 210.5 560.207 183.205 570.437 156.79C574.905 145.23 579.542 133.268 583.975 121.462C610.939 49.563 625.002 -23.08 625.76 -94.467C626.015 -117.88 624.685 -141.685 623.147 -165H620.632C622.169 -141.685 623.5 -117.868 623.245 -94.493C622.487 -23.41 608.472 48.953 581.617 120.56C577.187 132.362 572.56 144.315 568.092 155.875C557.85 182.315 547.267 209.645 538.345 237.1L536.757 241.933C532.117 256.105 527.31 270.768 524.83 285.525C524.257 288.967 523.842 292.592 523.452 296.107C522.45 305.13 521.4 314.442 517.347 322.305C508.314 329.848 507.937 351.638 507.632 369.18C507.522 375.82 507.425 381.545 506.875 385.538C502.467 417.605 498.902 451.493 507.85 482.07C520.327 524.757 562.99 546.315 634.792 546.315C641.517 546.315 648.512 546.132 655.74 545.755C715.297 542.63 775.66 534.94 834.047 527.493C851.345 525.283 868.617 523.085 885.877 520.998C901.61 519.095 917.64 517.385 933.14 515.737C960.88 512.783 989.55 509.72 1017.58 505.435C1093.49 493.813 1196.39 468.362 1213.48 381.825C1230.34 296.45 1171.01 234.11 1113.64 173.817C1095.06 154.3 1077.52 135.855 1062.93 116.982" fill="url(#paint5_linear)" fill-opacity="0.5"/>
<path fill-rule="evenodd" clip-rule="evenodd" d="M1065.04 173.868C1036.79 139.638 1007.58 104.237 991.7 62.417C968.43 1.15001 983.96 -66.245 1004.21 -129.943C1007.84 -141.355 1011.58 -153.085 1015.42 -165H1004.83C1001.34 -154.148 997.94 -143.455 994.63 -133.03C973.82 -67.575 957.92 1.84501 982.3 66.042C998.78 109.428 1028.53 145.473 1057.3 180.337C1063.27 187.575 1069.45 195.07 1075.35 202.445C1121.99 260.672 1142.88 310.038 1137.48 349.16C1134.07 373.783 1120.06 395.01 1095.83 412.257C1034.72 455.752 951.53 466.665 878.127 476.285L871.767 477.127C860.915 478.555 849.82 480.13 839.1 481.655C799.72 487.257 759.01 493.058 719.082 493.058C701.052 493.058 684.572 491.91 668.689 489.553C629.385 483.73 601.294 469.938 585.195 448.55C568.777 426.748 564.625 398.135 561.55 368.252C563.82 302.542 576.54 239.933 600.43 176.857C602.797 170.632 605.165 164.43 607.532 158.243C627.845 105.118 648.854 50.185 656.422 -8.66499C662.037 -52.268 662.562 -96.69 663.075 -139.645C663.185 -148.007 663.294 -156.493 663.43 -165H653.37C653.225 -156.527 653.115 -148.092 653.017 -139.768C652.505 -97.105 651.979 -52.975 646.437 -9.95799C639.027 47.683 619.167 99.612 598.135 154.605C595.765 160.805 593.385 167.007 591.03 173.245C566.689 237.502 553.75 301.285 551.479 368.252L551.467 368.595L551.502 368.935C554.725 400.442 559.12 430.69 577.175 454.665C594.912 478.25 625.222 493.35 667.225 499.575C683.595 502.005 700.562 503.188 719.082 503.188C759.72 503.188 800.794 497.342 840.504 491.69C851.197 490.163 862.27 488.59 873.072 487.172L879.419 486.342C953.98 476.565 1038.49 465.48 1101.64 420.535C1128.23 401.603 1143.64 378.055 1147.44 350.553C1153.33 307.962 1132.33 257.425 1083.19 196.085C1077.23 188.65 1071.03 181.13 1065.04 173.868" fill="url(#paint6_linear)" fill-opacity="0.5"/>
<path fill-rule="evenodd" clip-rule="evenodd" d="M1008.53 174.745C976.05 133.498 942.47 90.86 932.2 38.71C921.85 -13.95 938.08 -66.283 953.76 -116.893C958.67 -132.712 963.66 -148.998 967.77 -165H965.17C961.11 -149.252 956.19 -133.225 951.36 -117.65C935.57 -66.732 919.25 -14.085 929.74 39.212C940.11 91.945 973.89 134.842 1006.56 176.32C1014.42 186.305 1022.55 196.62 1030.09 206.777C1078.94 272.61 1087.45 326.078 1055.36 365.7C1023.89 404.567 967.29 418.422 925.94 428.542C879.507 439.908 824.647 451.515 769.825 451.515H769.814C749.697 451.515 730.325 449.917 712.27 446.768C646.352 435.257 609.72 391.225 603.37 316.005C603.237 254.665 627.005 197.305 649.977 141.822C652.455 135.868 654.922 129.922 657.35 123.978C684.095 58.572 697 -1.085 697.939 -63.768L698.084 -74.058C698.5 -103.305 698.939 -134.422 701.747 -165H699.207C696.425 -134.422 695.985 -103.33 695.57 -74.083L695.425 -63.803C694.485 -1.45 681.642 57.913 655.02 123.013C652.59 128.945 650.125 134.89 647.657 140.848C624.587 196.56 600.722 254.165 600.867 316.115C607.314 392.74 644.655 437.54 711.83 449.27C730.042 452.445 749.55 454.055 769.814 454.055H769.825C824.917 454.055 879.957 442.397 926.54 430.995C968.23 420.803 1025.31 406.825 1057.31 367.3C1090.23 326.663 1081.74 272.145 1032.11 205.263C1024.54 195.07 1016.41 184.743 1008.53 174.745" fill="url(#paint7_linear)" fill-opacity="0.5"/>
<path fill-rule="evenodd" clip-rule="evenodd" d="M-102 21.107C-96.593 19.583 -91.198 18.08 -85.875 16.605C-29.125 0.807996 29.555 -15.525 80.617 -47.105C128.932 -77 165.675 -117.905 201.137 -165H197.975C163.027 -118.76 126.747 -78.623 79.3 -49.265C28.542 -17.868 -29.968 -1.58501 -86.546 14.163C-91.635 15.578 -96.813 17.02 -102 18.473V21.107" fill="url(#paint8_linear)" fill-opacity="0.5"/>
<path fill-rule="evenodd" clip-rule="evenodd" d="M490.005 -104.38C485.06 -125.145 477.222 -145.603 467.115 -165H464.297C474.587 -145.445 482.557 -124.777 487.562 -103.783C502.517 -41.075 495.044 25.808 463.345 113.075C435.232 190.445 403.225 259.183 368.202 317.385C339.43 365.2 303.885 403.908 266.25 444.888C256.52 455.495 246.45 466.458 236.597 477.505C226.37 488.955 216.187 500.783 206.337 512.223C192.555 528.237 178.297 544.777 163.747 560.563C160.927 563.6 158.057 566.8 155.117 570.07C136.525 590.725 115.455 614.125 90.479 622.987C83.645 625.405 76.662 626.65 69.705 626.65H69.692C20.032 626.625 -20.593 564.395 -35.753 537.638C-63.085 489.395 -83.25 436.928 -102 385.232V392.592C-83.873 442.275 -64.22 492.495 -37.938 538.895C-18.833 572.61 20.557 629.165 69.692 629.165H69.705C76.942 629.165 84.217 627.895 91.31 625.38C116.897 616.3 138.185 592.643 156.972 571.768C159.915 568.507 162.782 565.322 165.59 562.283C180.177 546.475 194.435 529.91 208.242 513.895C218.08 502.455 228.26 490.64 238.467 479.19C248.305 468.167 258.375 457.205 268.104 446.61C305.825 405.533 341.457 366.737 370.35 318.703C405.457 260.355 437.537 191.47 465.712 113.942C497.584 26.188 505.08 -41.147 490.005 -104.38" fill="url(#paint9_linear)" fill-opacity="0.5"/>
<path fill-rule="evenodd" clip-rule="evenodd" d="M921.75 152.408C908.45 137.82 894.705 122.732 883.035 107.217C860.682 77.518 849.452 51.81 847.682 26.32C845.742 -1.66999 857.032 -27.987 867.957 -53.453C870.632 -59.665 873.39 -66.098 875.867 -72.385C884.34 -93.808 898.61 -130.002 902.76 -165H900.23C896.082 -130.443 881.91 -94.54 873.537 -73.325C871.06 -67.075 868.312 -60.655 865.652 -54.453C854.604 -28.72 843.189 -2.10999 845.167 26.505C846.975 52.505 858.365 78.64 881.02 108.743C892.762 124.355 906.56 139.48 919.9 154.115C947.22 184.098 975.48 215.103 989.33 253.127C1010.01 309.902 970.12 350.87 925.89 370.29C888.43 386.732 843.787 396.17 803.419 396.17C760.669 396.17 685.877 384.792 665.26 308.78C660.365 266.178 670.4 220.425 695.07 172.792C702.662 158.132 711.745 143.495 720.51 129.348C736.66 103.297 753.36 76.357 762.392 47.11C773.512 11.11 768.985 -27.135 764.602 -64.11C761.27 -92.32 757.814 -121.495 761.33 -149.473C761.952 -154.428 762.942 -159.652 764.235 -165H761.66C760.402 -159.763 759.437 -154.66 758.827 -149.79C755.275 -121.495 758.754 -92.172 762.112 -63.803C766.457 -27.098 770.95 10.88 759.987 46.353C751.052 75.295 734.437 102.09 718.372 128.005C709.584 142.19 700.477 156.875 692.837 171.62C667.922 219.717 657.802 265.958 662.807 309.255C683.887 387.087 759.962 398.708 803.419 398.708H803.432C844.129 398.708 889.125 389.2 926.89 372.61C972.17 352.737 1012.98 310.672 991.69 252.26C977.66 213.76 949.24 182.57 921.75 152.408" fill="url(#paint10_linear)" fill-opacity="0.5"/>
<path fill-rule="evenodd" clip-rule="evenodd" d="M-102 103.567C-100.291 101.467 -98.461 99.405 -96.458 97.402C-72.606 73.598 -41.49 59.183 -11.4 45.243C-7.238 43.3 -3.063 41.373 1.075 39.42C53.14 14.882 120.62 -20.212 180.837 -74.168C191.2 -83.458 201.37 -93.833 212.122 -104.82C233.962 -127.098 256.277 -149.862 281.667 -165H276.82C252.65 -149.765 231.277 -127.965 210.342 -106.59C199.612 -95.64 189.467 -85.3 179.165 -76.06C119.18 -22.312 51.907 12.66 0.0019989 37.125C-4.125 39.078 -8.288 41.005 -12.463 42.935C-42.748 56.973 -74.058 71.487 -98.228 95.607C-99.558 96.928 -100.803 98.283 -102 99.66V103.567" fill="url(#paint11_linear)" fill-opacity="0.5"/>
<path fill-rule="evenodd" clip-rule="evenodd" d="M451.32 -91.685C442.055 -119.26 424.122 -146.97 399.685 -165H395.314C420.79 -147.41 439.455 -119.078 448.939 -90.88C465.895 -40.475 463.442 18.178 441.457 88.442C420.985 153.822 388.82 223.183 348.415 289.015C312.832 347 267.74 392.092 210.987 441.958C208.462 444.18 205.85 446.5 203.14 448.893C166.945 480.973 117.372 524.917 69.07 524.917H69.057C61.415 524.917 53.97 523.77 46.937 521.522C-1.158 506.118 -28.868 457.547 -51.658 407.34C-73.35 359.547 -88.62 308.975 -102 258.607V268.325C-89.171 315.785 -74.413 363.295 -53.94 408.4C-30.918 459.12 -2.85601 508.23 46.18 523.94C53.457 526.26 61.147 527.445 69.057 527.445C69.07 527.445 69.07 527.445 69.07 527.445C118.325 527.445 168.312 483.145 204.8 450.795C207.51 448.402 210.122 446.085 212.635 443.875C269.57 393.85 314.81 348.598 350.552 290.348C391.067 224.342 423.33 154.788 443.85 89.2C466.017 18.41 468.459 -40.77 451.32 -91.685" fill="url(#paint12_linear)" fill-opacity="0.5"/>
<path fill-rule="evenodd" clip-rule="evenodd" d="M335.292 -97.0201C306.35 -97.0201 271.937 -81.4931 233.01 -50.8771C175.015 -5.2601 113.27 34.2679 55.1892 70.1919C51.6972 72.3529 48.1572 74.5149 44.6072 76.6749C21.7052 90.6029 -1.96279 105.02 -19.7128 125.125C-44.6148 153.348 -50.8278 189.945 -51.6458 215.678C-51.8648 222.792 -51.8048 230.57 -51.4378 239.455C-41.0128 305.63 -24.7648 373.135 23.0002 417.592C40.1752 433.56 60.3302 441.665 82.9002 441.665H82.9122C124.502 441.665 167.225 414.712 195.755 394.435C291.372 326.493 364.505 216.775 401.675 85.5249C414.712 39.4799 427.967 -26.6101 392.715 -68.8081C377.064 -87.5231 357.752 -97.0201 335.292 -97.0201ZM82.9122 444.192H82.9002C59.6692 444.192 38.9422 435.868 21.3022 419.447C-27.0378 374.465 -43.4298 306.473 -53.9398 239.7C-54.3198 230.605 -54.3798 222.768 -54.1598 215.59C-53.3178 189.442 -46.9948 152.225 -21.5928 123.44C-3.5998 103.055 20.2522 88.5399 43.3122 74.5019C46.8522 72.3419 50.3802 70.1919 53.8722 68.0329C111.892 32.1429 173.562 -7.33511 231.472 -52.8771C270.84 -83.8481 305.775 -99.5581 335.292 -99.5581C358.522 -99.5581 378.492 -89.7551 394.642 -70.4451C430.665 -27.3171 417.287 39.6149 404.092 86.2199C366.775 218.02 293.3 328.225 197.207 396.51C168.41 416.982 125.209 444.192 82.9122 444.192V444.192Z" fill="url(#paint13_linear)" fill-opacity="0.5"/>
<path fill-rule="evenodd" clip-rule="evenodd" d="M866.834 679.532C854.47 679.532 842.3 679.947 830.677 680.825C751.442 686.66 675.672 707.755 612.002 727.628C591.775 733.95 570.765 739.81 550.452 745.497C501.552 759.145 450.99 773.282 405.117 795.133C366.86 813.37 322.437 848.99 328.09 915.15C345.657 1026.46 395.265 1175.11 531.85 1250.77C603.895 1290.67 672.622 1313.05 736.122 1317.33C740.772 1317.64 745.497 1317.81 750.16 1317.81C805.347 1317.81 860.817 1296.47 924.73 1250.65C938.27 1240.93 951.87 1230.92 965.02 1221.28C1010.07 1188.15 1056.65 1153.9 1107.26 1126.67C1134.25 1112.17 1162.77 1099.11 1190.34 1086.49C1229.48 1068.57 1269.95 1050.06 1306.75 1027.02C1323.27 1016.69 1339.59 1005.14 1355.36 993.99C1395.83 965.35 1437.67 935.73 1487.4 923.33C1512.89 916.96 1540.38 913.98 1573.85 913.98C1599.61 913.98 1625.83 915.76 1651.2 917.5C1669.71 918.74 1688.84 920.06 1707.42 920.62C1715.33 920.87 1722.68 920.99 1729.88 920.99C1777.83 920.99 1848.1 916.15 1904.42 874.41C1941.28 847.08 1969.78 809.902 1997.34 773.915C2007.98 760.025 2018.99 745.67 2030.3 732.12C2042.09 718.008 2054.42 703.897 2066.36 690.25C2099.95 651.87 2134.69 612.173 2161.16 567.495C2196.14 508.388 2200.81 440.48 2175 365.688C2151.73 298.232 2120.36 227.59 2081.76 155.703C2049.49 95.6323 2007.21 54.5553 1956.03 33.6203C1912.72 15.8953 1864.63 7.64527 1804.69 7.64527C1765.65 7.64527 1725.51 11.1233 1686.67 14.4933C1648 17.8373 1608.01 21.3033 1569.29 21.3033C1555.35 21.3033 1542.51 20.8773 1529.98 19.9983C1493.17 17.3853 1462.31 10.5133 1435.69 -1.02173C1415.5 -9.77473 1397.34 -22.4817 1379.77 -34.7747C1368.43 -42.6967 1356.7 -50.8997 1344.56 -57.9447C1320.95 -71.6517 1300.28 -78.3047 1281.38 -78.3047C1273.39 -78.3047 1265.61 -77.0977 1258.25 -74.6917C1228.15 -64.8767 1212.68 -37.6917 1219.78 -7.02973C1228.52 30.7773 1267.21 53.2373 1301.37 73.0383C1308.51 77.1883 1315.25 81.1053 1321.51 85.0383C1365.8 112.857 1395.92 163.112 1413.61 238.663C1428.64 302.785 1443.29 386.623 1423.17 466.47C1405.9 534.95 1369.86 599.49 1324.28 643.52C1281.74 684.635 1222.51 704.63 1143.2 704.63C1096.79 704.63 1049.33 698.013 1011.18 692.715C964.49 686.22 916.2 679.532 866.834 679.532ZM750.172 1320.33C750.172 1320.33 750.172 1320.33 750.16 1320.33C745.437 1320.33 740.662 1320.18 735.952 1319.86C672.084 1315.57 603.005 1293.06 530.642 1252.99C393.165 1176.84 343.252 1027.41 325.587 915.45C319.802 847.75 365.064 811.415 404.042 792.838C450.1 770.888 500.77 756.728 549.782 743.058C570.07 737.367 591.067 731.51 611.257 725.21C675.062 705.313 751.002 684.145 830.495 678.285C842.177 677.433 854.407 676.992 866.834 676.992C916.37 676.992 964.75 683.705 1011.54 690.2C1049.59 695.497 1096.96 702.09 1143.2 702.09C1221.83 702.09 1280.48 682.34 1322.53 641.69C1367.79 597.975 1403.58 533.89 1420.73 465.848C1440.72 386.538 1426.13 303.09 1411.17 239.248C1393.63 164.382 1363.87 114.638 1320.18 87.1853C1313.95 83.2803 1307.23 79.3733 1300.11 75.2353C1265.52 55.1653 1226.31 32.4253 1217.32 -6.45473C1209.93 -38.4747 1226.06 -66.8677 1257.48 -77.1097C1265.09 -79.5877 1273.13 -80.8447 1281.38 -80.8447C1300.73 -80.8447 1321.81 -74.0697 1345.81 -60.1427C1358.06 -53.0497 1369.83 -44.8097 1381.2 -36.8497C1398.67 -24.6317 1416.72 -12.0097 1436.67 -3.35473C1463.04 8.07227 1493.6 14.8823 1530.15 17.4703C1542.6 18.3503 1555.42 18.7773 1569.29 18.7773C1607.91 18.7773 1647.85 15.3103 1686.48 11.9653C1725.34 8.59527 1765.55 5.10527 1804.69 5.10527C1864.97 5.10527 1913.36 13.4173 1956.98 31.2773C2008.69 52.4333 2051.42 93.9003 2083.99 154.495C2122.66 226.505 2154.08 297.28 2177.39 364.857C2203.44 440.395 2198.71 509.01 2163.31 568.79C2136.74 613.662 2101.93 653.457 2068.26 691.933C2056.33 705.558 2043.99 719.668 2032.23 733.755C2020.95 747.255 2009.96 761.612 1999.34 775.478C1971.66 811.588 1943.07 848.92 1905.91 876.43C1848.98 918.64 1778.17 923.5 1729.88 923.5C1722.66 923.5 1715.28 923.4 1707.35 923.16C1688.72 922.57 1669.56 921.28 1651.03 920.01C1625.71 918.3 1599.51 916.52 1573.85 916.52C1540.58 916.52 1513.31 919.47 1487.99 925.77C1438.72 938.08 1397.08 967.54 1356.8 996.06C1341 1007.24 1324.66 1018.81 1308.08 1029.19C1271.13 1052.29 1230.59 1070.84 1191.38 1088.81C1163.84 1101.41 1135.38 1114.44 1108.45 1128.92C1057.98 1156.07 1011.48 1190.25 966.5 1223.3C953.35 1233 939.73 1242.98 926.18 1252.7C861.83 1298.84 805.897 1320.33 750.172 1320.33V1320.33Z" fill="url(#paint14_linear)" fill-opacity="0.5"/>
<path fill-rule="evenodd" clip-rule="evenodd" d="M9.34023 264.53C14.1752 294.325 28.2602 346.487 68.4222 363.797C79.4952 368.57 91.3952 370.987 103.81 370.987C137.452 370.987 175.807 353.603 217.812 319.303C285.842 263.772 338.675 167.995 352.43 75.295C356.74 46.268 356.922 8.75503 333.327 -5.20997C325.977 -9.55497 317.495 -11.765 308.095 -11.765C275.99 -11.765 237.965 13.625 212.807 30.422C209.975 32.315 207.277 34.11 204.737 35.783C190.162 45.353 175.1 54.64 160.525 63.612C131.007 81.79 100.502 100.587 73.0002 122.5C53.2602 138.223 36.8542 157.033 21.3522 181.667C7.45923 203.763 8.31423 231.41 9.14523 258.145C9.20523 260.28 9.28023 262.417 9.34023 264.53ZM103.81 381.13H103.797C90.0302 381.118 76.7852 378.433 64.4552 373.11C19.7272 353.835 4.45723 297.61 -0.657768 265.81L-0.717768 265.14C-0.779768 262.93 -0.839768 260.708 -0.912768 258.462C-1.75477 231.51 -2.69477 200.967 12.8452 176.248C28.9702 150.612 46.0952 131.007 66.7502 114.553C94.7272 92.263 125.502 73.305 155.262 54.97C169.777 46.022 184.792 36.783 199.232 27.297C201.76 25.638 204.432 23.855 207.24 21.975C233.412 4.50703 272.95 -21.897 308.095 -21.897C319.312 -21.897 329.517 -19.223 338.43 -13.95C361.257 -0.436973 369.312 30.092 362.392 76.785C348.28 171.853 294.02 270.145 224.147 327.175C180.312 362.978 139.822 381.13 103.81 381.13V381.13Z" fill="url(#paint15_linear)" fill-opacity="0.5"/>
<path fill-rule="evenodd" clip-rule="evenodd" d="M423.025 944.23C447.732 1066.37 531.702 1179.68 637.025 1232.9C676.612 1252.89 719.277 1263.49 760.39 1263.49C785.927 1263.49 810.987 1259.49 834.852 1251.58C887.917 1234.05 935.36 1200.33 981.26 1167.74C994.48 1158.34 1008.16 1148.62 1021.64 1139.54C1064.15 1110.9 1109.07 1084.54 1152.52 1059.05C1176.34 1045.06 1200.98 1030.61 1224.87 1015.98C1253.41 998.5 1279.83 976.48 1303.41 950.55C1316.36 936.32 1327.6 920.08 1338.48 904.38C1348.44 890 1358.75 875.14 1370.48 861.56C1390.71 838.17 1418.62 826.798 1455.79 826.798C1480.35 826.798 1505.59 831.51 1529.98 836.05C1539.11 837.76 1547.73 839.34 1556.15 840.69C1607.47 848.79 1660.53 857.19 1713.01 857.19C1738.72 857.19 1762.06 855.21 1784.35 851.16C1820.46 844.59 1852.93 832.46 1880.88 815.077C1900.71 802.75 1917.9 786.317 1934.5 770.45C1942.83 762.49 1951.44 754.287 1960.33 746.598C1975.98 733.072 1989.82 716.737 2003.22 700.918C2010.67 692.152 2018.36 683.072 2026.29 674.55C2029.28 671.378 2032.25 668.178 2035.23 664.98C2057.4 641.3 2080.33 616.787 2099.81 590.335C2129.69 549.795 2162.04 485.732 2146.49 410.77C2134.89 354.873 2105.96 302.663 2077.98 252.175C2072.68 242.618 2067.19 232.717 2061.99 223.063C2034.47 172.123 1998.71 116.178 1941.78 87.5272C1898.49 65.7122 1848.17 55.9952 1778.64 55.9952C1766.82 55.9952 1753.96 56.2652 1739.28 56.8252L1731.45 57.1202C1661.94 59.7552 1590.06 62.4652 1525.44 88.5782C1458.91 115.445 1460.82 181.41 1468.46 246.683C1469.95 259.45 1471.71 272.72 1473.39 285.55C1481.13 344.46 1489.14 405.362 1480.57 463.235C1472.05 520.815 1448.27 576.112 1425.24 629.58C1421.25 638.883 1417.26 648.16 1413.39 657.362C1411.65 661.513 1409.92 665.713 1408.17 669.96C1398.61 693.277 1388.72 717.372 1373.41 737.393C1352.17 765.175 1320.63 771.28 1292.58 773.575C1283.68 774.308 1274.33 774.673 1264.78 774.673C1221.83 774.673 1178.33 767.3 1136.28 760.17C1124.05 758.095 1111.4 755.947 1099.11 754.067C1078.74 750.918 1057.97 747.305 1037.9 743.838C986.8 734.95 933.99 725.795 881.875 723.135C874.087 722.72 866.14 722.525 858.265 722.525C800.112 722.525 740.297 733.12 675.405 754.872C605.042 778.482 546.18 803.872 495.447 832.485C442.495 862.34 418.13 899.94 423.025 944.23ZM760.402 1273.62H760.39C717.715 1273.62 673.487 1262.66 632.51 1241.96C578.272 1214.54 529.017 1171.94 490.077 1118.71C452.027 1066.74 425.417 1007.02 413.125 946.01L413.052 945.57C407.544 896.77 433.62 855.75 490.53 823.647C541.822 794.718 601.26 769.082 672.229 745.277C738.16 723.16 799.012 712.393 858.265 712.393C866.31 712.393 874.427 712.612 882.387 713.003C935.1 715.713 988.22 724.918 1039.61 733.827C1059.64 737.32 1080.35 740.907 1100.64 744.032C1113 745.938 1125.68 748.11 1137.95 750.185C1179.6 757.24 1222.67 764.54 1264.78 764.54C1274.06 764.54 1283.13 764.175 1291.76 763.468C1317.62 761.367 1346.59 755.85 1365.43 731.215C1379.93 712.245 1389.56 688.785 1398.87 666.103C1400.63 661.83 1402.37 657.582 1404.13 653.407C1408.01 644.18 1412 634.902 1416.02 625.553C1438.77 572.683 1462.31 518.007 1470.61 461.745C1478.96 405.275 1471.05 345.095 1463.4 286.88C1461.72 274.013 1459.96 260.708 1458.47 247.865C1450.71 181.728 1448.56 108.705 1521.68 79.1652C1587.94 52.4082 1660.69 49.6602 1731.06 47.0002L1738.89 46.6952C1753.69 46.1322 1766.7 45.8652 1778.64 45.8652C1849.81 45.8652 1901.51 55.9102 1946.29 78.4582C2005.69 108.377 2042.58 165.895 2070.83 218.215C2076.03 227.835 2081.49 237.697 2086.77 247.243C2115.11 298.39 2144.43 351.285 2156.35 408.695C2169.26 470.95 2152.49 535.855 2107.89 596.378C2088.06 623.305 2064.92 648.013 2042.55 671.938C2039.6 675.112 2036.62 678.31 2033.64 681.485C2025.88 689.835 2018.26 698.817 2010.89 707.51C1997.24 723.598 1983.11 740.25 1966.9 754.287C1958.18 761.808 1949.66 769.938 1941.43 777.798C1924.44 794.032 1906.86 810.805 1886.18 823.697C1857.15 841.74 1823.49 854.36 1786.16 861.15C1763.23 865.3 1739.31 867.33 1713.01 867.33C1659.74 867.33 1606.3 858.88 1554.59 850.7C1546.02 849.33 1537.35 847.72 1528.15 846.01C1504.2 841.57 1479.42 836.95 1455.79 836.95C1421.23 836.95 1396.53 846.89 1378.08 868.23C1366.69 881.39 1356.54 896.04 1346.73 910.2C1335.67 926.16 1324.23 942.67 1310.83 957.41C1286.61 984.05 1259.45 1006.66 1230.1 1024.63C1206.12 1039.32 1181.45 1053.8 1157.59 1067.81C1114.27 1093.23 1069.48 1119.52 1027.23 1147.96C1013.86 1156.97 1000.23 1166.67 987.06 1176.01C940.56 1209.05 892.482 1243.2 837.99 1261.22C813.112 1269.45 787.002 1273.62 760.402 1273.62V1273.62Z" fill="url(#paint16_linear)" fill-opacity="0.5"/>
<path fill-rule="evenodd" clip-rule="evenodd" d="M1745.95 100.565C1726.39 100.565 1705.71 101.578 1682.76 103.652C1621.02 109.243 1578.25 127.895 1552 160.695C1519.78 200.98 1520.78 255.85 1525.24 299.147C1526.44 310.55 1527.76 322.025 1529.05 333.132C1534.55 380.252 1539.72 424.745 1535.01 472.025C1532.67 495.645 1528.13 519.425 1523.73 542.422C1515.7 584.39 1507.42 627.798 1512.28 671.45C1538.09 781.362 1678.52 789.933 1720.95 789.933C1725.93 789.933 1730.93 789.835 1735.84 789.638C1870.02 784.242 1972.83 682.755 2038.5 606.888C2094.21 542.507 2114.58 483.01 2102.61 419.643C2090.65 356.18 2052.15 292.228 2016.07 238.04C1977.42 179.995 1925.51 138.502 1865.99 118.07C1831.67 106.29 1792.41 100.565 1745.95 100.565ZM1720.95 792.47V792.47C1673.05 792.47 1627.32 783.412 1592.24 766.982C1547.44 746.01 1519.71 714.027 1509.82 671.89C1504.86 627.7 1513.21 584.11 1521.27 541.945C1525.64 518.998 1530.18 495.277 1532.52 471.768C1537.18 424.77 1532.03 380.397 1526.56 333.425C1525.27 322.317 1523.93 310.83 1522.75 299.417C1518.24 255.63 1517.24 200.112 1550.05 159.11C1576.73 125.748 1620.07 106.777 1682.52 101.125C1705.57 99.0379 1726.29 98.0249 1745.95 98.0249C1792.7 98.0249 1832.23 103.8 1866.8 115.665C1926.86 136.283 1979.2 178.115 2018.17 236.635C2054.37 291.03 2093.02 355.263 2105.1 419.167C2117.21 483.365 2096.66 543.545 2040.38 608.548C1974.42 684.78 1871.09 786.732 1735.94 792.178C1730.98 792.372 1725.96 792.47 1720.95 792.47V792.47Z" fill="url(#paint17_linear)" fill-opacity="0.5"/>
<path fill-rule="evenodd" clip-rule="evenodd" d="M240.077 102.627C215.455 102.627 181.79 119.875 169.104 126.37C138.942 141.822 69.7518 185.147 78.8598 253.505C88.0148 286.928 111.562 293.973 129.702 293.973C147.022 293.985 167.567 287.38 186.084 275.857C210 260.978 230.532 239.272 245.459 213.075C253.152 199.575 277.395 152.933 266.567 119.425C262.965 108.28 254.055 102.627 240.077 102.627ZM129.702 296.51V296.51C110.682 296.51 86.0118 289.138 76.4048 254.007C67.0418 183.877 137.32 139.81 167.97 124.112C180.787 117.545 214.845 100.1 240.077 100.1C255.275 100.1 264.992 106.337 268.972 118.643C280.117 153.14 255.457 200.612 247.645 214.333C232.51 240.895 211.685 262.917 187.405 278.018C168.507 289.772 147.475 296.51 129.702 296.51V296.51Z" fill="url(#paint18_linear)" fill-opacity="0.5"/>
<path fill-rule="evenodd" clip-rule="evenodd" d="M1734.33 153.97C1692.95 153.97 1658.23 162.868 1631.1 180.435C1595.44 203.555 1579.03 244.375 1582.33 301.76C1583.11 309.06 1583.89 316.397 1584.69 323.732C1592.21 393.765 1600 466.2 1594.85 538.663C1589.7 611.05 1605.74 659.732 1643.9 687.49C1673.83 709.293 1707.79 720.327 1744.85 720.327C1855.01 720.327 1954.88 626.357 1982.89 597.537C2038.82 539.98 2060.99 487.308 2052.66 431.803C2044.31 376.112 2010.25 311.928 1959.23 255.703C1912.77 204.482 1854.88 171.205 1791.85 159.45C1772.29 155.813 1752.93 153.97 1734.33 153.97ZM1744.88 722.865C1744.85 722.865 1744.88 722.865 1744.85 722.865C1707.25 722.865 1672.8 711.66 1642.43 689.565C1603.49 661.22 1587.11 611.808 1592.33 538.48C1597.46 466.237 1590.04 397.145 1582.18 324.002C1581.4 316.665 1580.62 309.328 1579.83 301.967C1576.47 243.545 1593.26 201.942 1629.76 178.297C1657.28 160.475 1692.46 151.43 1734.33 151.43C1753.1 151.43 1772.61 153.297 1792.29 156.96C1855.88 168.813 1914.26 202.37 1961.08 253.995C2012.45 310.572 2046.73 375.248 2055.15 431.422C2063.6 487.783 2041.21 541.127 1984.69 599.32C1956.52 628.285 1855.98 722.865 1744.88 722.865V722.865Z" fill="url(#paint19_linear)" fill-opacity="0.5"/>
<path fill-rule="evenodd" clip-rule="evenodd" d="M816.615 188.175C796.865 188.175 777.407 197.877 763.209 214.797C748.245 232.632 741.47 256.095 745.07 277.542C754.58 310.525 791.677 325.357 824.207 325.357C824.22 325.357 824.22 325.357 824.22 325.357C857.557 325.357 885.025 310.88 895.9 287.563C901.89 274.71 901.88 260.745 895.84 246.072C884.877 219.388 858.217 199.355 838.075 192.02C831.07 189.467 823.842 188.175 816.615 188.175ZM824.22 327.895C824.22 327.895 824.22 327.895 824.207 327.895C790.737 327.882 752.53 312.49 742.617 278.103C738.857 255.788 745.852 231.558 761.292 213.163C775.967 195.67 796.12 185.647 816.615 185.647C824.135 185.647 831.642 186.99 838.93 189.638C859.572 197.158 886.915 217.715 898.17 245.095C904.4 260.245 904.4 275.295 898.17 288.638C886.879 312.845 858.547 327.895 824.22 327.895V327.895Z" fill="url(#paint20_linear)" fill-opacity="0.5"/>
<path fill-rule="evenodd" clip-rule="evenodd" d="M851.382 766.813C849.257 766.813 847.145 766.835 845.022 766.86C777.979 767.787 709.817 788.468 642.432 828.31C565.492 873.79 532.62 924.89 544.705 980.14C569.837 1057.78 630.885 1190.83 757.117 1208.39C765.077 1209.49 773.22 1210.05 781.3 1210.05C840.725 1210.05 895.447 1180.14 945.74 1147.82C962.37 1137.13 979.57 1126.53 996.19 1116.3C1038.92 1090 1083.09 1062.83 1122.52 1030.83C1125.21 1028.63 1128.03 1026.38 1130.95 1024.04C1167.15 994.99 1216.74 955.21 1215.69 907.54C1214.33 846.62 1134.34 823.622 1081.41 808.388C1076.84 807.095 1072.5 805.85 1068.48 804.652C1014 788.418 932.23 766.813 851.382 766.813ZM781.3 1212.59C781.3 1212.59 781.312 1212.59 781.3 1212.59C773.097 1212.59 764.845 1212.03 756.777 1210.9C629.189 1193.16 567.63 1059.12 542.287 980.83C529.897 924.23 563.172 872.23 641.152 826.112C708.925 786.05 777.504 765.25 844.985 764.322C928.14 763.175 1013.13 785.513 1069.19 802.213C1073.21 803.407 1077.54 804.652 1082.09 805.973C1135.74 821.402 1216.81 844.72 1218.2 907.49C1219.29 956.41 1169.13 996.64 1132.51 1026.01C1129.6 1028.36 1126.8 1030.61 1124.11 1032.8C1084.55 1064.91 1040.31 1092.13 997.51 1118.47C980.88 1128.7 963.71 1139.27 947.1 1149.94C896.487 1182.49 841.372 1212.59 781.3 1212.59V1212.59Z" fill="url(#paint21_linear)" fill-opacity="0.5"/>
<path fill-rule="evenodd" clip-rule="evenodd" d="M18.24 1006.34C15.76 960.44 -13.488 926.82 -38.695 902.67C-57.713 884.46 -78.94 867.47 -102 851.89V854.97C-79.6 870.21 -58.958 886.76 -40.428 904.51C-15.563 928.36 13.307 961.46 15.725 1006.49C17.922 1047.35 -1.158 1082 -17.553 1103.85C-41.245 1135.44 -72.033 1160.95 -102 1185.54V1188.81C-71.41 1163.74 -39.831 1137.76 -15.55 1105.36C1.1 1083.17 20.472 1047.99 18.24 1006.34" fill="url(#paint22_linear)" fill-opacity="0.5"/>
<path fill-rule="evenodd" clip-rule="evenodd" d="M862.537 820.277C794.705 820.277 707.485 842.91 666.127 906.43C651.54 928.87 645.437 956.61 648.977 984.51C657.447 1042.05 686.122 1091.98 727.627 1121.47C751.455 1138.42 778.652 1146.99 808.462 1146.99C808.472 1146.99 808.472 1146.99 808.472 1146.99C834.682 1146.99 862.527 1140.42 891.225 1127.48C945.84 1102.82 1005.8 1062.64 1055.74 1017.18C1101.76 975.26 1116.2 938.39 1098.67 907.56C1081.15 876.77 1043.34 860.07 1008.67 847.82C973.16 835.25 935.11 826.603 895.557 822.11C884.915 820.888 873.805 820.277 862.537 820.277ZM808.472 1149.53C808.472 1149.53 808.472 1149.53 808.462 1149.53C778.115 1149.53 750.43 1140.79 726.185 1123.55C684.107 1093.67 655.055 1043.11 646.487 984.85C642.872 956.31 649.097 927.99 664.027 905.04C705.935 840.69 794.044 817.74 862.537 817.74C873.902 817.74 885.11 818.35 895.84 819.57C935.57 824.088 973.82 832.777 1009.5 845.42C1044.62 857.85 1082.92 874.79 1100.86 906.31C1118.8 937.86 1103.77 976.84 1057.42 1019.06C1007.3 1064.69 947.11 1105.04 892.262 1129.78C863.222 1142.88 835.035 1149.53 808.472 1149.53V1149.53Z" fill="url(#paint23_linear)" fill-opacity="0.5"/>
<path fill-rule="evenodd" clip-rule="evenodd" d="M769.532 997.33C778.822 1039.69 815.907 1054.78 847.56 1054.78C856.68 1054.78 865.87 1053.6 874.892 1051.31C910.79 1042.11 966.36 1008.97 971.61 967.13C973.21 954.43 969.79 943.06 961.46 933.32C940.15 908.39 893.532 900.79 871.865 900.28C870.742 900.26 869.629 900.24 868.52 900.24C839.1 900.24 813.16 909.37 793.482 926.67C772.327 945.25 771.072 968.5 769.629 995.42L769.532 997.33ZM847.56 1057.32V1057.32C814.895 1057.32 776.577 1041.67 767.03 997.7L766.995 997.53L767.115 995.28C768.532 968.93 769.862 944.06 791.834 924.75C811.965 907.07 838.49 897.7 868.52 897.7C869.655 897.7 870.79 897.72 871.925 897.75C893.985 898.28 941.48 906.04 963.37 931.66C972.18 941.98 975.79 954.02 974.11 967.45C968.7 1010.46 912.09 1044.38 875.515 1053.75C866.285 1056.12 856.887 1057.32 847.56 1057.32V1057.32Z" fill="url(#paint24_linear)" fill-opacity="0.5"/>
</g>
<defs>
<linearGradient id="paint0_linear" x1="1223.02" y1="-165" x2="1223.02" y2="1335" gradientUnits="userSpaceOnUse">
<stop stop-color="#E5E5E5" stop-opacity="0.6"/>
<stop offset="0.644091" stop-color="white" stop-opacity="0"/>
<stop offset="1" stop-color="white" stop-opacity="0"/>
</linearGradient>
<linearGradient id="paint1_linear" x1="249.55" y1="484.428" x2="249.55" y2="1335" gradientUnits="userSpaceOnUse">
<stop stop-color="#E5E5E5" stop-opacity="0.6"/>
<stop offset="0.644091" stop-color="white" stop-opacity="0"/>
<stop offset="1" stop-color="white" stop-opacity="0"/>
</linearGradient>
<linearGradient id="paint2_linear" x1="1832.15" y1="-165" x2="1832.15" y2="1335" gradientUnits="userSpaceOnUse">
<stop stop-color="#E5E5E5" stop-opacity="0.6"/>
<stop offset="0.644091" stop-color="white" stop-opacity="0"/>
<stop offset="1" stop-color="white" stop-opacity="0"/>
</linearGradient>
<linearGradient id="paint3_linear" x1="825.595" y1="-165" x2="825.595" y2="667.028" gradientUnits="userSpaceOnUse">
<stop stop-color="#E5E5E5" stop-opacity="0.6"/>
<stop offset="0.644091" stop-color="white" stop-opacity="0"/>
<stop offset="1" stop-color="white" stop-opacity="0"/>
</linearGradient>
<linearGradient id="paint4_linear" x1="849.55" y1="-165" x2="849.55" y2="600.063" gradientUnits="userSpaceOnUse">
<stop stop-color="#E5E5E5" stop-opacity="0.6"/>
<stop offset="0.644091" stop-color="white" stop-opacity="0"/>
<stop offset="1" stop-color="white" stop-opacity="0"/>
</linearGradient>
<linearGradient id="paint5_linear" x1="859.351" y1="-165" x2="859.351" y2="546.315" gradientUnits="userSpaceOnUse">
<stop stop-color="#E5E5E5" stop-opacity="0.6"/>
<stop offset="0.644091" stop-color="white" stop-opacity="0"/>
<stop offset="1" stop-color="white" stop-opacity="0"/>
</linearGradient>
<linearGradient id="paint6_linear" x1="849.936" y1="-165" x2="849.936" y2="503.188" gradientUnits="userSpaceOnUse">
<stop stop-color="#E5E5E5" stop-opacity="0.6"/>
<stop offset="0.644091" stop-color="white" stop-opacity="0"/>
<stop offset="1" stop-color="white" stop-opacity="0"/>
</linearGradient>
<linearGradient id="paint7_linear" x1="838.911" y1="-165" x2="838.911" y2="454.055" gradientUnits="userSpaceOnUse">
<stop stop-color="#E5E5E5" stop-opacity="0.6"/>
<stop offset="0.644091" stop-color="white" stop-opacity="0"/>
<stop offset="1" stop-color="white" stop-opacity="0"/>
</linearGradient>
<linearGradient id="paint8_linear" x1="49.5685" y1="-165" x2="49.5685" y2="21.107" gradientUnits="userSpaceOnUse">
<stop stop-color="#E5E5E5" stop-opacity="0.6"/>
<stop offset="0.644091" stop-color="white" stop-opacity="0"/>
<stop offset="1" stop-color="white" stop-opacity="0"/>
</linearGradient>
<linearGradient id="paint9_linear" x1="197.745" y1="-165" x2="197.745" y2="629.165" gradientUnits="userSpaceOnUse">
<stop stop-color="#E5E5E5" stop-opacity="0.6"/>
<stop offset="0.644091" stop-color="white" stop-opacity="0"/>
<stop offset="1" stop-color="white" stop-opacity="0"/>
</linearGradient>
<linearGradient id="paint10_linear" x1="829.53" y1="-165" x2="829.53" y2="398.708" gradientUnits="userSpaceOnUse">
<stop stop-color="#E5E5E5" stop-opacity="0.6"/>
<stop offset="0.644091" stop-color="white" stop-opacity="0"/>
<stop offset="1" stop-color="white" stop-opacity="0"/>
</linearGradient>
<linearGradient id="paint11_linear" x1="89.8335" y1="-165" x2="89.8335" y2="103.567" gradientUnits="userSpaceOnUse">
<stop stop-color="#E5E5E5" stop-opacity="0.6"/>
<stop offset="0.644091" stop-color="white" stop-opacity="0"/>
<stop offset="1" stop-color="white" stop-opacity="0"/>
</linearGradient>
<linearGradient id="paint12_linear" x1="180.28" y1="-165" x2="180.28" y2="527.445" gradientUnits="userSpaceOnUse">
<stop stop-color="#E5E5E5" stop-opacity="0.6"/>
<stop offset="0.644091" stop-color="white" stop-opacity="0"/>
<stop offset="1" stop-color="white" stop-opacity="0"/>
</linearGradient>
<linearGradient id="paint13_linear" x1="181.783" y1="-99.5581" x2="181.783" y2="444.192" gradientUnits="userSpaceOnUse">
<stop stop-color="#E5E5E5" stop-opacity="0.6"/>
<stop offset="0.644091" stop-color="white" stop-opacity="0"/>
<stop offset="1" stop-color="white" stop-opacity="0"/>
</linearGradient>
<linearGradient id="paint14_linear" x1="1259.51" y1="-80.8447" x2="1259.51" y2="1320.33" gradientUnits="userSpaceOnUse">
<stop stop-color="#E5E5E5" stop-opacity="0.6"/>
<stop offset="0.644091" stop-color="white" stop-opacity="0"/>
<stop offset="1" stop-color="white" stop-opacity="0"/>
</linearGradient>
<linearGradient id="paint15_linear" x1="181.743" y1="-21.897" x2="181.743" y2="381.13" gradientUnits="userSpaceOnUse">
<stop stop-color="#E5E5E5" stop-opacity="0.6"/>
<stop offset="0.644091" stop-color="white" stop-opacity="0"/>
<stop offset="1" stop-color="white" stop-opacity="0"/>
</linearGradient>
<linearGradient id="paint16_linear" x1="1286.46" y1="45.8652" x2="1286.46" y2="1273.62" gradientUnits="userSpaceOnUse">
<stop stop-color="#E5E5E5" stop-opacity="0.6"/>
<stop offset="0.644091" stop-color="white" stop-opacity="0"/>
<stop offset="1" stop-color="white" stop-opacity="0"/>
</linearGradient>
<linearGradient id="paint17_linear" x1="1808.39" y1="98.0249" x2="1808.39" y2="792.47" gradientUnits="userSpaceOnUse">
<stop stop-color="#E5E5E5" stop-opacity="0.6"/>
<stop offset="0.644091" stop-color="white" stop-opacity="0"/>
<stop offset="1" stop-color="white" stop-opacity="0"/>
</linearGradient>
<linearGradient id="paint18_linear" x1="173.685" y1="100.1" x2="173.685" y2="296.51" gradientUnits="userSpaceOnUse">
<stop stop-color="#E5E5E5" stop-opacity="0.6"/>
<stop offset="0.644091" stop-color="white" stop-opacity="0"/>
<stop offset="1" stop-color="white" stop-opacity="0"/>
</linearGradient>
<linearGradient id="paint19_linear" x1="1818.14" y1="151.43" x2="1818.14" y2="722.865" gradientUnits="userSpaceOnUse">
<stop stop-color="#E5E5E5" stop-opacity="0.6"/>
<stop offset="0.644091" stop-color="white" stop-opacity="0"/>
<stop offset="1" stop-color="white" stop-opacity="0"/>
</linearGradient>
<linearGradient id="paint20_linear" x1="822.23" y1="185.647" x2="822.23" y2="327.895" gradientUnits="userSpaceOnUse">
<stop stop-color="#E5E5E5" stop-opacity="0.6"/>
<stop offset="0.644091" stop-color="white" stop-opacity="0"/>
<stop offset="1" stop-color="white" stop-opacity="0"/>
</linearGradient>
<linearGradient id="paint21_linear" x1="878.99" y1="764.279" x2="878.99" y2="1212.59" gradientUnits="userSpaceOnUse">
<stop stop-color="#E5E5E5" stop-opacity="0.6"/>
<stop offset="0.644091" stop-color="white" stop-opacity="0"/>
<stop offset="1" stop-color="white" stop-opacity="0"/>
</linearGradient>
<linearGradient id="paint22_linear" x1="-41.7918" y1="851.89" x2="-41.7918" y2="1188.81" gradientUnits="userSpaceOnUse">
<stop stop-color="#E5E5E5" stop-opacity="0.6"/>
<stop offset="0.644091" stop-color="white" stop-opacity="0"/>
<stop offset="1" stop-color="white" stop-opacity="0"/>
</linearGradient>
<linearGradient id="paint23_linear" x1="876.849" y1="817.74" x2="876.849" y2="1149.53" gradientUnits="userSpaceOnUse">
<stop stop-color="#E5E5E5" stop-opacity="0.6"/>
<stop offset="0.644091" stop-color="white" stop-opacity="0"/>
<stop offset="1" stop-color="white" stop-opacity="0"/>
</linearGradient>
<linearGradient id="paint24_linear" x1="870.753" y1="897.7" x2="870.753" y2="1057.32" gradientUnits="userSpaceOnUse">
<stop stop-color="#E5E5E5" stop-opacity="0.6"/>
<stop offset="0.644091" stop-color="white" stop-opacity="0"/>
<stop offset="1" stop-color="white" stop-opacity="0"/>
</linearGradient>
<clipPath id="clip0">
<rect width="1919" height="929" fill="white"/>
</clipPath>
</defs>
</svg>
