<svg width="411" height="823" viewBox="0 0 411 823" fill="none" xmlns="http://www.w3.org/2000/svg">
<g clip-path="url(#clip0)">
<path fill-rule="evenodd" clip-rule="evenodd" d="M33.8701 892.652C58.0021 914.308 99.7751 910.133 136.702 906.445C209.87 899.12 284.857 886.378 365.95 867.455C389.937 861.865 414.252 855.348 437.762 849.072C488.459 835.522 540.865 821.51 593.367 815.6C671.077 806.885 750.09 812.28 824.37 818.53C892.44 824.293 970.77 827.832 1038.91 797.095C1090.52 773.803 1133.14 732.605 1162.16 677.955C1189.7 626.087 1202.22 566.09 1197.39 509.02C1191.25 436.255 1163.69 372.24 1119.79 328.772C1101.9 311.06 1080.74 296.167 1060.28 281.763C1028.56 259.435 995.76 236.353 975.52 202.66C944.54 151.098 956.52 82.41 1002.8 46.303C1060.86 1 1138.91 30.75 1169.78 45.655C1191.17 55.97 1211.79 68.152 1231.71 79.92C1271.28 103.283 1312.18 127.442 1360.25 137.61C1423.85 151.05 1489.23 145.74 1552.41 140.6L1558.56 140.1C1683.83 129.945 1812.71 129.005 1891.52 236.095C1921.84 277.295 1939.72 326.525 1957.03 374.132C1963.74 392.64 1970.7 411.78 1978.29 430.175C1982.49 440.417 1986.96 450.77 1991.25 460.79C2012.96 511.217 2035.39 563.368 2035.93 619.592C2036.61 691.625 1994.58 749.72 1951.46 803.027L1942.06 814.647C1897.72 869.36 1855.85 921.045 1821.38 982.567C1816.18 991.87 1811.18 1001.27 1805.85 1011.23C1779.78 1060.13 1752.83 1110.69 1707.39 1139.04C1653.63 1172.58 1586.15 1162.33 1526.61 1153.27L1523.02 1152.74C1448.82 1141.48 1376.04 1133.23 1301.71 1155.91C1262.37 1167.87 1225.35 1186.38 1189.54 1204.27C1160.37 1218.85 1130.21 1233.91 1099.15 1245.24C1090.31 1248.46 1081.49 1251.66 1072.69 1254.83C1011.07 1277.05 952.88 1298.05 896.17 1330.74C844.45 1360.55 800.57 1396.26 754.11 1434.11C744.7 1441.77 735.26 1449.44 725.73 1457.11C703.827 1474.68 682.697 1488.94 662.02 1500H682.185C698.58 1490.18 715.16 1478.54 732 1465.04C741.56 1457.35 751.01 1449.66 760.43 1441.99C806.58 1404.42 850.15 1368.95 901.17 1339.53C957.1 1307.3 1014.9 1286.45 1076.08 1264.36C1084.89 1261.18 1093.73 1258.01 1102.58 1254.76C1134.17 1243.24 1164.59 1228.05 1194.01 1213.36C1229.45 1195.63 1266.08 1177.34 1304.61 1165.6C1376.95 1143.55 1448.5 1151.66 1521.53 1162.75L1525.12 1163.3C1586.35 1172.61 1655.78 1183.16 1712.71 1147.63C1760.42 1117.87 1788.03 1066.09 1814.74 1016.01C1820.01 1006.1 1824.99 996.753 1830.17 987.55C1864.21 926.782 1905.8 875.415 1949.87 821.045L1959.27 809.425C2001.61 757.08 2046.72 694.897 2045.99 619.495C2045.46 561.217 2022.6 508.118 2000.51 456.763C1996.21 446.777 1991.77 436.45 1987.57 426.295C1980.07 408.092 1973.17 389.063 1966.47 370.655C1948.94 322.362 1930.8 272.438 1899.6 230.053C1817.74 118.8 1685.83 119.618 1557.76 129.993L1551.61 130.493C1489.11 135.572 1424.51 140.833 1362.3 127.685C1315.84 117.86 1277.46 95.19 1236.81 71.18C1216.69 59.303 1195.89 47.01 1174.13 36.51C1141.58 20.8 1059.13 -10.473 996.64 38.292C946.38 77.502 933.32 152.015 966.91 207.91C988.25 243.433 1021.94 267.138 1054.52 290.075C1074.64 304.235 1095.45 318.885 1112.74 335.998C1154.93 377.77 1181.43 439.515 1187.37 509.875C1197.23 626.6 1133.05 743.505 1034.78 787.843C968.84 817.603 892.03 814.088 825.21 808.447C750.43 802.125 670.857 796.705 592.254 805.543C539.01 811.522 486.225 825.635 435.187 839.282C411.75 845.532 387.507 852.027 363.68 857.567C283.002 876.393 208.442 889.088 135.64 896.362C100.837 899.83 61.3971 903.785 40.5721 885.082C29.8421 875.465 24.4571 860.548 24.1151 839.478C23.2621 785.938 44.6851 729.797 87.7871 672.645C96.3701 661.255 105.207 649.792 113.752 638.697C147.932 594.322 183.282 548.438 210.75 497.485C241.255 440.93 270.967 373.683 301.607 291.92C332.6 209.205 344.087 135.083 336.702 65.32C334.247 42.03 329.182 20.482 322.31 0H311.737C318.915 20.74 324.177 42.518 326.705 66.395C333.907 134.545 322.615 207.14 292.195 288.342C261.715 369.678 232.185 436.5 201.912 492.652C174.825 542.87 139.74 588.428 105.805 632.482C97.2371 643.603 88.3851 655.09 79.7671 666.515C35.2721 725.513 13.1671 783.765 14.0571 839.647C14.4351 863.697 20.9171 881.03 33.8701 892.652Z" fill="url(#paint0_linear)" fill-opacity="0.5"/>
<path fill-rule="evenodd" clip-rule="evenodd" d="M376.79 1489.58C363.68 1485.18 350.13 1480.62 336.932 1476.42C273.482 1456.22 201.667 1430.22 152.472 1376.91C115.34 1336.67 105.5 1282.79 95.979 1230.67C93.38 1216.41 90.692 1201.68 87.482 1187.47C79.635 1152.71 69.965 1117.85 57.917 1080.91C54.22 1069.53 50.715 1057.64 47.334 1046.12C40.057 1021.36 32.527 995.777 22.102 972.192C6.427 936.793 -24.213 926.952 -49.163 922.315C-80.583 916.505 -113.885 909.473 -145.183 893.335C-194.061 868.115 -229.498 824.513 -256.695 756.128C-270.598 721.155 -283.05 684.925 -295 649.428V680.737C-285.893 707.24 -276.373 733.888 -266.033 759.888C-238.275 829.713 -200.238 876.317 -149.773 902.345C-117.253 919.115 -83.135 926.343 -50.983 932.3C-17.083 938.575 2.022 951.732 12.897 976.317C23.067 999.293 30.5 1024.56 37.677 1049C41.084 1060.57 44.612 1072.56 48.36 1084.06C60.31 1120.7 69.892 1155.27 77.667 1189.72C80.83 1203.74 83.49 1218.36 86.08 1232.5C95.857 1286.04 105.977 1341.41 145.1 1383.81C195.967 1438.94 269.22 1465.5 333.907 1486.08C347.017 1490.26 360.53 1494.8 373.602 1499.2C374.397 1499.46 375.202 1499.73 375.995 1500H408.1C397.602 1496.58 387.165 1493.07 376.79 1489.58Z" fill="url(#paint1_linear)" fill-opacity="0.5"/>
<path fill-rule="evenodd" clip-rule="evenodd" d="M1021.59 318.018C990.61 292.87 958.58 266.87 935.3 233.485C899.42 182.007 897.7 110.607 930.91 51.6C942.55 30.92 957.39 13.538 974.49 0H970.49C954.17 13.44 939.97 30.37 928.72 50.355C895.04 110.205 896.81 182.665 933.23 234.938C956.71 268.627 988.9 294.74 1020.01 319.982C1039.24 335.595 1059.14 351.732 1076.69 369.458C1121.83 415.015 1145.49 478.442 1141.6 543.458C1137.59 610.205 1105.46 672.107 1053.44 713.283C975.01 775.343 878.68 770.447 785.52 765.735C735.35 763.195 683.467 760.56 634.955 768.407C620.442 770.753 605.77 772.633 591.572 774.438C575.47 776.49 558.807 778.612 542.33 781.445C513.337 786.425 484.125 792.675 455.88 798.73C445.905 800.855 435.932 803.003 425.947 805.077L420.209 806.275C357.147 819.457 285.665 834.425 220.112 827.93C181.207 824.072 151.227 810.18 135.687 788.817C123.847 772.522 120.392 752.16 125.435 728.295C134.285 686.328 158.895 649.475 182.685 613.83C195.65 594.422 209.04 574.353 219.6 553.833C239.167 515.783 254.377 474.78 269.075 435.132C272.75 425.232 276.41 415.345 280.135 405.518C286.152 389.672 292.487 373.645 298.615 358.143C311.115 326.55 324.042 293.885 334.845 260.998C365.132 168.8 372.15 84.765 356.294 0H353.729C369.625 84.498 362.655 168.263 332.452 260.205C321.675 293.005 308.772 325.647 296.285 357.203C290.145 372.717 283.807 388.745 277.79 404.615C274.055 414.44 270.392 424.34 266.72 434.24C252.032 473.828 236.86 514.757 217.365 552.672C206.88 573.06 193.512 593.067 180.597 612.415C156.672 648.268 131.927 685.328 122.97 727.77C117.78 752.367 121.382 773.412 133.662 790.308C149.63 812.28 180.245 826.537 219.854 830.445C285.797 836.987 357.49 821.973 420.722 808.765L426.459 807.567C436.445 805.47 446.43 803.345 456.405 801.197C484.627 795.165 513.812 788.915 542.745 783.96C559.175 781.128 575.812 779.005 591.89 776.952C606.11 775.147 620.807 773.268 635.347 770.91C683.6 763.11 735.35 765.735 785.39 768.263C879.02 773.01 975.83 777.905 1054.99 715.27C1107.58 673.645 1140.06 611.085 1144.1 543.615C1148.04 477.868 1124.11 413.732 1078.48 367.663C1060.82 349.842 1040.88 333.667 1021.59 318.018Z" fill="url(#paint2_linear)" fill-opacity="0.5"/>
<path fill-rule="evenodd" clip-rule="evenodd" d="M973.31 339.283C955.46 322.46 937.01 305.065 920.6 286.5C870.09 229.357 852.19 165.663 867.4 97.217C875.42 61.132 889.22 27.845 907.09 0H904.11C886.49 27.82 872.89 60.888 864.95 96.655C849.54 165.955 867.63 230.395 918.72 288.183C935.2 306.835 953.7 324.268 971.59 341.125C1000.9 368.75 1031.21 397.315 1053.36 431.922C1089.9 488.99 1091.78 555.712 1058.38 610.413C1018.15 676.33 950.36 699.987 900.58 708.228C851.84 716.297 801.19 718.152 752.22 719.935C725.51 720.91 697.907 721.913 670.99 723.925C620.93 727.65 570.662 735.34 522.04 742.76C494.294 747.01 465.62 751.393 437.275 754.992L436.957 755.03C388.595 761.183 338.582 767.553 291.695 756.482C268.342 750.978 251.435 741.223 241.425 727.515C222.945 702.185 231.952 668.178 242.78 635.522C253.352 603.625 263.544 571.007 273.395 539.465C286.847 496.41 300.752 451.88 315.827 408.57C323.25 387.243 331.439 365.638 339.35 344.74C358.49 294.225 378.29 241.993 389.35 188.415C401.85 127.868 403.717 64.527 394.952 0H392.415C401.192 64.355 399.36 127.527 386.885 187.902C375.862 241.272 356.11 293.408 337.007 343.835C329.072 364.745 320.882 386.377 313.459 407.728C298.372 451.087 284.455 495.63 270.99 538.708C261.14 570.24 250.959 602.845 240.387 634.717C232.245 659.325 218.597 700.5 239.4 729.015C249.775 743.225 267.169 753.295 291.12 758.947C309.967 763.402 329.28 765.063 348.762 765.063C378.205 765.063 408.04 761.268 437.275 757.545L437.592 757.508C465.962 753.895 494.66 749.513 522.419 745.275C570.99 737.842 621.209 730.175 671.175 726.44C698.042 724.438 725.63 723.438 752.3 722.46C801.36 720.678 852.09 718.822 900.99 710.73C951.29 702.405 1019.78 678.467 1060.53 611.743C1094.44 556.19 1092.56 488.453 1055.49 430.555C1033.16 395.678 1002.73 367.005 973.31 339.283Z" fill="url(#paint3_linear)" fill-opacity="0.5"/>
<path fill-rule="evenodd" clip-rule="evenodd" d="M869.93 281.982C829.41 229.578 815.28 166.455 829.05 99.462C834.03 75.28 843.51 38.465 860.46 0H857.71C840.96 38.305 831.55 74.865 826.59 98.95C812.65 166.7 826.96 230.518 867.94 283.545C882.61 302.515 900.2 320.995 918.82 340.575C975.75 400.39 1034.61 462.243 1018.01 546.337C1001.41 630.36 905.72 655.458 824.2 667.933C796.22 672.217 767.58 675.257 739.88 678.21C724.36 679.87 708.33 681.58 692.584 683.485C675.325 685.572 658.027 687.768 640.729 689.978C582.392 697.413 522.077 705.103 462.617 708.215C379.437 712.585 330.537 691.76 317.267 646.362C308.467 616.26 311.995 582.678 316.365 550.88C316.937 546.74 317.035 540.942 317.145 534.228C317.427 517.993 317.817 495.752 326.13 489.112L326.459 488.708C330.83 480.382 331.917 470.728 332.955 461.39C333.357 457.752 333.747 454.322 334.31 450.953C336.762 436.377 341.535 421.815 346.15 407.728L347.725 402.893C356.635 375.5 367.207 348.205 377.437 321.79C381.905 310.23 386.542 298.268 390.975 286.462C417.939 214.563 432.002 141.92 432.76 70.533C433.015 47.12 431.685 23.315 430.147 0H427.632C429.169 23.315 430.5 47.132 430.245 70.507C429.487 141.59 415.472 213.953 388.617 285.56C384.187 297.362 379.56 309.315 375.092 320.875C364.85 347.315 354.267 374.645 345.345 402.1L343.757 406.933C339.117 421.105 334.31 435.768 331.83 450.525C331.257 453.967 330.842 457.592 330.452 461.107C329.45 470.13 328.4 479.442 324.347 487.305C315.314 494.848 314.937 516.638 314.632 534.18C314.522 540.82 314.425 546.545 313.875 550.538C309.467 582.605 305.902 616.493 314.85 647.07C327.327 689.757 369.99 711.315 441.792 711.315C448.517 711.315 455.512 711.132 462.74 710.755C522.297 707.63 582.66 699.94 641.047 692.493C658.345 690.283 675.617 688.085 692.877 685.998C708.61 684.095 724.64 682.385 740.14 680.737C767.88 677.783 796.55 674.72 824.58 670.435C900.49 658.813 1003.39 633.362 1020.48 546.825C1037.34 461.45 978.01 399.11 920.64 338.817C902.06 319.3 884.52 300.855 869.93 281.982Z" fill="url(#paint4_linear)" fill-opacity="0.5"/>
<path fill-rule="evenodd" clip-rule="evenodd" d="M872.04 338.868C843.79 304.638 814.58 269.237 798.7 227.417C775.43 166.15 790.96 98.755 811.21 35.057C814.84 23.645 818.58 11.915 822.42 0H811.83C808.34 10.852 804.94 21.545 801.63 31.97C780.82 97.425 764.92 166.845 789.3 231.042C805.78 274.428 835.53 310.473 864.3 345.337C870.27 352.575 876.45 360.07 882.35 367.445C928.99 425.672 949.88 475.038 944.48 514.16C941.07 538.783 927.06 560.01 902.83 577.257C841.72 620.752 758.53 631.665 685.127 641.285L678.767 642.127C667.915 643.555 656.82 645.13 646.1 646.655C606.72 652.257 566.01 658.058 526.082 658.058C508.052 658.058 491.572 656.91 475.689 654.553C436.385 648.73 408.294 634.938 392.195 613.55C375.777 591.748 371.625 563.135 368.55 533.252C370.82 467.542 383.54 404.933 407.43 341.857C409.797 335.632 412.165 329.43 414.532 323.243C434.845 270.118 455.854 215.185 463.422 156.335C469.037 112.732 469.562 68.31 470.075 25.355C470.185 16.993 470.294 8.507 470.43 0H460.37C460.225 8.473 460.115 16.908 460.017 25.232C459.505 67.895 458.979 112.025 453.437 155.042C446.027 212.683 426.167 264.612 405.135 319.605C402.765 325.805 400.385 332.007 398.03 338.245C373.689 402.502 360.75 466.285 358.479 533.252L358.467 533.595L358.502 533.935C361.725 565.442 366.12 595.69 384.175 619.665C401.912 643.25 432.222 658.35 474.225 664.575C490.595 667.005 507.562 668.188 526.082 668.188C566.72 668.188 607.794 662.342 647.504 656.69C658.197 655.163 669.27 653.59 680.072 652.172L686.419 651.342C760.98 641.565 845.49 630.48 908.64 585.535C935.23 566.603 950.64 543.055 954.44 515.553C960.33 472.962 939.33 422.425 890.19 361.085C884.23 353.65 878.03 346.13 872.04 338.868Z" fill="url(#paint5_linear)" fill-opacity="0.5"/>
<path fill-rule="evenodd" clip-rule="evenodd" d="M815.53 339.745C783.05 298.498 749.47 255.86 739.2 203.71C728.85 151.05 745.08 98.717 760.76 48.107C765.67 32.288 770.66 16.002 774.77 0H772.17C768.11 15.748 763.19 31.775 758.36 47.35C742.57 98.268 726.25 150.915 736.74 204.212C747.11 256.945 780.89 299.842 813.56 341.32C821.42 351.305 829.55 361.62 837.09 371.777C885.94 437.61 894.45 491.078 862.36 530.7C830.89 569.567 774.29 583.422 732.94 593.542C686.507 604.908 631.647 616.515 576.825 616.515H576.814C556.697 616.515 537.325 614.917 519.27 611.768C453.352 600.257 416.72 556.225 410.37 481.005C410.237 419.665 434.005 362.305 456.977 306.822C459.455 300.868 461.922 294.922 464.35 288.978C491.095 223.572 504 163.915 504.939 101.232L505.084 90.942C505.5 61.695 505.939 30.578 508.747 0H506.207C503.425 30.578 502.985 61.67 502.57 90.917L502.425 101.197C501.485 163.55 488.642 222.913 462.02 288.013C459.59 293.945 457.125 299.89 454.657 305.848C431.587 361.56 407.722 419.165 407.867 481.115C414.314 557.74 451.655 602.54 518.83 614.27C537.042 617.445 556.55 619.055 576.814 619.055H576.825C631.917 619.055 686.957 607.397 733.54 595.995C775.23 585.803 832.31 571.825 864.31 532.3C897.23 491.663 888.74 437.145 839.11 370.263C831.54 360.07 823.41 349.743 815.53 339.745Z" fill="url(#paint6_linear)" fill-opacity="0.5"/>
<path fill-rule="evenodd" clip-rule="evenodd" d="M-295 186.107C-289.593 184.583 -284.198 183.08 -278.875 181.605C-222.125 165.808 -163.445 149.475 -112.383 117.895C-64.068 88 -27.325 47.095 8.13699 0H4.97501C-29.973 46.24 -66.253 86.377 -113.7 115.735C-164.458 147.132 -222.968 163.415 -279.546 179.163C-284.635 180.578 -289.813 182.02 -295 183.473V186.107Z" fill="url(#paint7_linear)" fill-opacity="0.5"/>
<path fill-rule="evenodd" clip-rule="evenodd" d="M297.005 60.62C292.06 39.855 284.222 19.397 274.115 0H271.297C281.587 19.555 289.557 40.223 294.562 61.217C309.517 123.925 302.044 190.808 270.345 278.075C242.232 355.445 210.225 424.183 175.202 482.385C146.43 530.2 110.885 568.908 73.25 609.888C63.52 620.495 53.45 631.458 43.597 642.505C33.37 653.955 23.187 665.783 13.337 677.223C-0.445007 693.237 -14.703 709.777 -29.253 725.563C-32.073 728.6 -34.943 731.8 -37.883 735.07C-56.475 755.725 -77.545 779.125 -102.521 787.987C-109.355 790.405 -116.338 791.65 -123.295 791.65H-123.308C-172.968 791.625 -213.593 729.395 -228.753 702.638C-256.085 654.395 -276.25 601.928 -295 550.232V557.592C-276.873 607.275 -257.22 657.495 -230.938 703.895C-211.833 737.61 -172.443 794.165 -123.308 794.165H-123.295C-116.058 794.165 -108.783 792.895 -101.69 790.38C-76.103 781.3 -54.815 757.643 -36.028 736.768C-33.085 733.507 -30.218 730.322 -27.41 727.283C-12.823 711.475 1.435 694.91 15.242 678.895C25.08 667.455 35.26 655.64 45.467 644.19C55.305 633.167 65.375 622.205 75.104 611.61C112.825 570.533 148.457 531.737 177.35 483.703C212.457 425.355 244.537 356.47 272.712 278.942C304.584 191.188 312.08 123.853 297.005 60.62Z" fill="url(#paint8_linear)" fill-opacity="0.5"/>
<path fill-rule="evenodd" clip-rule="evenodd" d="M-295 268.567C-293.291 266.467 -291.461 264.405 -289.458 262.402C-265.606 238.598 -234.49 224.183 -204.4 210.243C-200.238 208.3 -196.063 206.373 -191.925 204.42C-139.86 179.882 -72.38 144.788 -12.163 90.832C-1.79999 81.542 8.37 71.167 19.122 60.18C40.962 37.902 63.277 15.138 88.667 0H83.82C59.65 15.235 38.277 37.035 17.342 58.41C6.612 69.36 -3.53299 79.7 -13.835 88.94C-73.82 142.688 -141.093 177.66 -192.998 202.125C-197.125 204.078 -201.288 206.005 -205.463 207.935C-235.748 221.973 -267.058 236.487 -291.228 260.607C-292.558 261.928 -293.803 263.283 -295 264.66V268.567Z" fill="url(#paint9_linear)" fill-opacity="0.5"/>
<path fill-rule="evenodd" clip-rule="evenodd" d="M258.32 73.315C249.055 45.74 231.122 18.03 206.685 0H202.314C227.79 17.59 246.455 45.922 255.939 74.12C272.895 124.525 270.442 183.178 248.457 253.442C227.985 318.822 195.82 388.183 155.415 454.015C119.832 512 74.74 557.092 17.987 606.958C15.462 609.18 12.85 611.5 10.14 613.893C-26.055 645.973 -75.628 689.917 -123.93 689.917H-123.943C-131.585 689.917 -139.03 688.77 -146.063 686.522C-194.158 671.118 -221.868 622.547 -244.658 572.34C-266.35 524.547 -281.62 473.975 -295 423.607V433.325C-282.171 480.785 -267.413 528.295 -246.94 573.4C-223.918 624.12 -195.856 673.23 -146.82 688.94C-139.543 691.26 -131.853 692.445 -123.943 692.445C-123.93 692.445 -123.93 692.445 -123.93 692.445C-74.675 692.445 -24.688 648.145 11.8 615.795C14.51 613.402 17.122 611.085 19.635 608.875C76.57 558.85 121.81 513.598 157.552 455.348C198.067 389.342 230.33 319.788 250.85 254.2C273.017 183.41 275.459 124.23 258.32 73.315Z" fill="url(#paint10_linear)" fill-opacity="0.5"/>
<path fill-rule="evenodd" clip-rule="evenodd" d="M142.292 67.98C113.35 67.98 78.937 83.507 40.01 114.123C-17.985 159.74 -79.73 199.268 -137.811 235.192C-141.303 237.353 -144.843 239.515 -148.393 241.675C-171.295 255.603 -194.963 270.02 -212.713 290.125C-237.615 318.348 -243.828 354.945 -244.646 380.678C-244.865 387.792 -244.805 395.57 -244.438 404.455C-234.013 470.63 -217.765 538.135 -170 582.592C-152.825 598.56 -132.67 606.665 -110.1 606.665H-110.088C-68.498 606.665 -25.775 579.712 2.75497 559.435C98.372 491.493 171.505 381.775 208.675 250.525C221.712 204.48 234.967 138.39 199.715 96.192C184.064 77.477 164.752 67.98 142.292 67.98ZM-110.088 609.192H-110.1C-133.331 609.192 -154.058 600.868 -171.698 584.447C-220.038 539.465 -236.43 471.473 -246.94 404.7C-247.32 395.605 -247.38 387.768 -247.16 380.59C-246.318 354.442 -239.995 317.225 -214.593 288.44C-196.6 268.055 -172.748 253.54 -149.688 239.502C-146.148 237.342 -142.62 235.192 -139.128 233.033C-81.108 197.143 -19.438 157.665 38.472 112.123C77.84 81.152 112.775 65.442 142.292 65.442C165.522 65.442 185.492 75.245 201.642 94.555C237.665 137.683 224.287 204.615 211.092 251.22C173.775 383.02 100.3 493.225 4.20695 561.51C-24.59 581.982 -67.791 609.192 -110.088 609.192Z" fill="url(#paint11_linear)" fill-opacity="0.5"/>
<path fill-rule="evenodd" clip-rule="evenodd" d="M673.834 844.532C661.47 844.532 649.3 844.947 637.677 845.825C558.442 851.66 482.672 872.755 419.002 892.628C398.775 898.95 377.765 904.81 357.452 910.497C308.552 924.145 257.99 938.282 212.117 960.133C173.86 978.37 129.437 1013.99 135.09 1080.15C152.657 1191.46 202.265 1340.11 338.85 1415.77C410.895 1455.67 479.622 1478.05 543.122 1482.33C547.772 1482.64 552.497 1482.81 557.16 1482.81C612.347 1482.81 667.817 1461.47 731.73 1415.65C745.27 1405.93 758.87 1395.92 772.02 1386.28C817.07 1353.15 863.65 1318.9 914.26 1291.67C941.25 1277.17 969.77 1264.11 997.34 1251.49C1036.48 1233.57 1076.95 1215.06 1113.75 1192.02C1130.27 1181.69 1146.59 1170.14 1162.36 1158.99C1202.83 1130.35 1244.67 1100.73 1294.4 1088.33C1319.89 1081.96 1347.38 1078.98 1380.85 1078.98C1406.61 1078.98 1432.83 1080.76 1458.2 1082.5C1476.71 1083.74 1495.84 1085.06 1514.42 1085.62C1522.33 1085.87 1529.68 1085.99 1536.88 1085.99C1584.83 1085.99 1655.1 1081.15 1711.42 1039.41C1748.28 1012.08 1776.78 974.902 1804.34 938.915C1814.98 925.025 1825.99 910.67 1837.3 897.12C1849.09 883.008 1861.42 868.897 1873.36 855.25C1906.95 816.87 1941.69 777.173 1968.16 732.495C2003.14 673.388 2007.81 605.48 1982 530.688C1958.73 463.232 1927.36 392.59 1888.76 320.703C1856.49 260.632 1814.21 219.555 1763.03 198.62C1719.72 180.895 1671.63 172.645 1611.69 172.645C1572.65 172.645 1532.51 176.123 1493.67 179.493C1455 182.837 1415.01 186.303 1376.29 186.303C1362.35 186.303 1349.51 185.877 1336.98 184.998C1300.17 182.385 1269.31 175.513 1242.69 163.978C1222.5 155.225 1204.34 142.518 1186.77 130.225C1175.43 122.303 1163.7 114.1 1151.56 107.055C1127.95 93.348 1107.28 86.695 1088.38 86.695C1080.39 86.695 1072.61 87.902 1065.25 90.308C1035.15 100.123 1019.68 127.308 1026.78 157.97C1035.52 195.777 1074.21 218.237 1108.37 238.038C1115.51 242.188 1122.25 246.105 1128.51 250.038C1172.8 277.857 1202.92 328.112 1220.61 403.663C1235.64 467.785 1250.29 551.623 1230.17 631.47C1212.9 699.95 1176.86 764.49 1131.28 808.52C1088.74 849.635 1029.51 869.63 950.2 869.63C903.79 869.63 856.33 863.013 818.18 857.715C771.49 851.22 723.2 844.532 673.834 844.532ZM557.172 1485.33C557.172 1485.33 557.172 1485.33 557.16 1485.33C552.437 1485.33 547.662 1485.18 542.952 1484.86C479.084 1480.57 410.005 1458.06 337.642 1417.99C200.165 1341.84 150.252 1192.41 132.587 1080.45C126.802 1012.75 172.064 976.415 211.042 957.838C257.1 935.888 307.77 921.728 356.782 908.058C377.07 902.367 398.067 896.51 418.257 890.21C482.062 870.313 558.002 849.145 637.495 843.285C649.177 842.433 661.407 841.992 673.834 841.992C723.37 841.992 771.75 848.705 818.54 855.2C856.59 860.497 903.96 867.09 950.2 867.09C1028.83 867.09 1087.48 847.34 1129.53 806.69C1174.79 762.975 1210.58 698.89 1227.73 630.848C1247.72 551.538 1233.13 468.09 1218.17 404.248C1200.63 329.382 1170.87 279.638 1127.18 252.185C1120.95 248.28 1114.23 244.373 1107.11 240.235C1072.52 220.165 1033.31 197.425 1024.32 158.545C1016.93 126.525 1033.06 98.132 1064.48 87.89C1072.09 85.412 1080.13 84.155 1088.38 84.155C1107.73 84.155 1128.81 90.93 1152.81 104.857C1165.06 111.95 1176.83 120.19 1188.2 128.15C1205.67 140.368 1223.72 152.99 1243.67 161.645C1270.04 173.072 1300.6 179.882 1337.15 182.47C1349.6 183.35 1362.42 183.777 1376.29 183.777C1414.91 183.777 1454.85 180.31 1493.48 176.965C1532.34 173.595 1572.55 170.105 1611.69 170.105C1671.97 170.105 1720.36 178.417 1763.98 196.277C1815.69 217.433 1858.42 258.9 1890.99 319.495C1929.66 391.505 1961.08 462.28 1984.39 529.857C2010.44 605.395 2005.71 674.01 1970.31 733.79C1943.74 778.662 1908.93 818.457 1875.26 856.933C1863.33 870.558 1850.99 884.668 1839.23 898.755C1827.95 912.255 1816.96 926.612 1806.34 940.478C1778.66 976.588 1750.07 1013.92 1712.91 1041.43C1655.98 1083.64 1585.17 1088.5 1536.88 1088.5C1529.66 1088.5 1522.28 1088.4 1514.35 1088.16C1495.72 1087.57 1476.56 1086.28 1458.03 1085.01C1432.71 1083.3 1406.51 1081.52 1380.85 1081.52C1347.58 1081.52 1320.31 1084.47 1294.99 1090.77C1245.72 1103.08 1204.08 1132.54 1163.8 1161.06C1148 1172.24 1131.66 1183.81 1115.08 1194.19C1078.13 1217.29 1037.59 1235.84 998.38 1253.81C970.84 1266.41 942.38 1279.44 915.45 1293.92C864.98 1321.07 818.48 1355.25 773.5 1388.3C760.35 1398 746.73 1407.98 733.18 1417.7C668.83 1463.84 612.897 1485.33 557.172 1485.33Z" fill="url(#paint12_linear)" fill-opacity="0.5"/>
<path fill-rule="evenodd" clip-rule="evenodd" d="M-183.66 429.53C-178.825 459.325 -164.74 511.487 -124.578 528.797C-113.505 533.57 -101.605 535.987 -89.19 535.987C-55.548 535.987 -17.193 518.603 24.812 484.303C92.842 428.772 145.675 332.995 159.43 240.295C163.74 211.268 163.922 173.755 140.327 159.79C132.977 155.445 124.495 153.235 115.095 153.235C82.99 153.235 44.965 178.625 19.807 195.422C16.975 197.315 14.277 199.11 11.737 200.783C-2.83801 210.353 -17.9 219.64 -32.475 228.612C-61.993 246.79 -92.498 265.587 -120 287.5C-139.74 303.223 -156.146 322.033 -171.648 346.667C-185.541 368.763 -184.686 396.41 -183.855 423.145C-183.795 425.28 -183.72 427.417 -183.66 429.53ZM-89.19 546.13H-89.203C-102.97 546.118 -116.215 543.433 -128.545 538.11C-173.273 518.835 -188.543 462.61 -193.658 430.81L-193.718 430.14C-193.78 427.93 -193.84 425.708 -193.913 423.462C-194.755 396.51 -195.695 365.967 -180.155 341.248C-164.03 315.612 -146.905 296.007 -126.25 279.553C-98.273 257.263 -67.498 238.305 -37.738 219.97C-23.223 211.022 -8.20801 201.783 6.23199 192.297C8.75999 190.638 11.432 188.855 14.24 186.975C40.412 169.507 79.95 143.103 115.095 143.103C126.312 143.103 136.517 145.777 145.43 151.05C168.257 164.563 176.312 195.092 169.392 241.785C155.28 336.853 101.02 435.145 31.147 492.175C-12.688 527.978 -53.178 546.13 -89.19 546.13Z" fill="url(#paint13_linear)" fill-opacity="0.5"/>
<path fill-rule="evenodd" clip-rule="evenodd" d="M230.025 1109.23C254.732 1231.37 338.702 1344.68 444.025 1397.9C483.612 1417.89 526.277 1428.49 567.39 1428.49C592.927 1428.49 617.987 1424.49 641.852 1416.58C694.917 1399.05 742.36 1365.33 788.26 1332.74C801.48 1323.34 815.16 1313.62 828.64 1304.54C871.15 1275.9 916.07 1249.54 959.52 1224.05C983.34 1210.06 1007.98 1195.61 1031.87 1180.98C1060.41 1163.5 1086.83 1141.48 1110.41 1115.55C1123.36 1101.32 1134.6 1085.08 1145.48 1069.38C1155.44 1055 1165.75 1040.14 1177.48 1026.56C1197.71 1003.17 1225.62 991.798 1262.79 991.798C1287.35 991.798 1312.59 996.51 1336.98 1001.05C1346.11 1002.76 1354.73 1004.34 1363.15 1005.69C1414.47 1013.79 1467.53 1022.19 1520.01 1022.19C1545.72 1022.19 1569.06 1020.21 1591.35 1016.16C1627.46 1009.59 1659.93 997.46 1687.88 980.077C1707.71 967.75 1724.9 951.317 1741.5 935.45C1749.83 927.49 1758.44 919.287 1767.33 911.598C1782.98 898.072 1796.82 881.737 1810.22 865.918C1817.67 857.152 1825.36 848.072 1833.29 839.55C1836.28 836.378 1839.25 833.178 1842.23 829.98C1864.4 806.3 1887.33 781.787 1906.81 755.335C1936.69 714.795 1969.04 650.732 1953.49 575.77C1941.89 519.873 1912.96 467.663 1884.98 417.175C1879.68 407.618 1874.19 397.717 1868.99 388.063C1841.47 337.123 1805.71 281.178 1748.78 252.527C1705.49 230.712 1655.17 220.995 1585.64 220.995C1573.82 220.995 1560.96 221.265 1546.28 221.825L1538.45 222.12C1468.94 224.755 1397.06 227.465 1332.44 253.578C1265.91 280.445 1267.82 346.41 1275.46 411.683C1276.95 424.45 1278.71 437.72 1280.39 450.55C1288.13 509.46 1296.14 570.362 1287.57 628.235C1279.05 685.815 1255.27 741.112 1232.24 794.58C1228.25 803.883 1224.26 813.16 1220.39 822.362C1218.65 826.513 1216.92 830.713 1215.17 834.96C1205.61 858.277 1195.72 882.372 1180.41 902.393C1159.17 930.175 1127.63 936.28 1099.58 938.575C1090.68 939.308 1081.33 939.673 1071.78 939.673C1028.83 939.673 985.33 932.3 943.28 925.17C931.05 923.095 918.4 920.947 906.11 919.067C885.74 915.918 864.97 912.305 844.9 908.838C793.8 899.95 740.99 890.795 688.875 888.135C681.087 887.72 673.14 887.525 665.265 887.525C607.112 887.525 547.297 898.12 482.405 919.872C412.042 943.482 353.18 968.872 302.447 997.485C249.495 1027.34 225.13 1064.94 230.025 1109.23ZM567.402 1438.62H567.39C524.715 1438.62 480.487 1427.66 439.51 1406.96C385.272 1379.54 336.017 1336.94 297.077 1283.71C259.027 1231.74 232.417 1172.02 220.125 1111.01L220.052 1110.57C214.544 1061.77 240.62 1020.75 297.53 988.647C348.822 959.718 408.26 934.082 479.229 910.277C545.16 888.16 606.012 877.393 665.265 877.393C673.31 877.393 681.427 877.612 689.387 878.003C742.1 880.713 795.22 889.918 846.61 898.827C866.64 902.32 887.35 905.907 907.64 909.032C920 910.938 932.68 913.11 944.95 915.185C986.6 922.24 1029.67 929.54 1071.78 929.54C1081.06 929.54 1090.13 929.175 1098.76 928.468C1124.62 926.367 1153.59 920.85 1172.43 896.215C1186.93 877.245 1196.56 853.785 1205.87 831.103C1207.63 826.83 1209.37 822.582 1211.13 818.407C1215.01 809.18 1219 799.902 1223.02 790.553C1245.77 737.683 1269.31 683.007 1277.61 626.745C1285.96 570.275 1278.05 510.095 1270.4 451.88C1268.72 439.013 1266.96 425.708 1265.47 412.865C1257.71 346.728 1255.56 273.705 1328.68 244.165C1394.94 217.408 1467.69 214.66 1538.06 212L1545.89 211.695C1560.69 211.132 1573.7 210.865 1585.64 210.865C1656.81 210.865 1708.51 220.91 1753.29 243.458C1812.69 273.377 1849.58 330.895 1877.83 383.215C1883.03 392.835 1888.49 402.697 1893.77 412.243C1922.11 463.39 1951.43 516.285 1963.35 573.695C1976.26 635.95 1959.49 700.855 1914.89 761.378C1895.06 788.305 1871.92 813.013 1849.55 836.938C1846.6 840.112 1843.62 843.31 1840.64 846.485C1832.88 854.835 1825.26 863.817 1817.89 872.51C1804.24 888.598 1790.11 905.25 1773.9 919.287C1765.18 926.808 1756.66 934.938 1748.43 942.798C1731.44 959.032 1713.86 975.805 1693.18 988.697C1664.15 1006.74 1630.49 1019.36 1593.16 1026.15C1570.23 1030.3 1546.31 1032.33 1520.01 1032.33C1466.74 1032.33 1413.3 1023.88 1361.59 1015.7C1353.02 1014.33 1344.35 1012.72 1335.15 1011.01C1311.2 1006.57 1286.42 1001.95 1262.79 1001.95C1228.23 1001.95 1203.53 1011.89 1185.08 1033.23C1173.69 1046.39 1163.54 1061.04 1153.73 1075.2C1142.67 1091.16 1131.23 1107.67 1117.83 1122.41C1093.61 1149.05 1066.45 1171.66 1037.1 1189.63C1013.12 1204.32 988.45 1218.8 964.59 1232.81C921.27 1258.23 876.48 1284.52 834.23 1312.96C820.86 1321.97 807.23 1331.67 794.06 1341.01C747.56 1374.05 699.482 1408.2 644.99 1426.22C620.112 1434.45 594.002 1438.62 567.402 1438.62Z" fill="url(#paint14_linear)" fill-opacity="0.5"/>
<path fill-rule="evenodd" clip-rule="evenodd" d="M47.077 267.627C22.455 267.627 -11.21 284.875 -23.896 291.37C-54.058 306.822 -123.248 350.147 -114.14 418.505C-104.985 451.928 -81.438 458.973 -63.298 458.973C-45.978 458.985 -25.433 452.38 -6.91598 440.857C17 425.978 37.532 404.272 52.459 378.075C60.152 364.575 84.395 317.933 73.567 284.425C69.965 273.28 61.055 267.627 47.077 267.627ZM-63.298 461.51C-82.318 461.51 -106.988 454.138 -116.595 419.007C-125.958 348.877 -55.68 304.81 -25.03 289.112C-12.213 282.545 21.845 265.1 47.077 265.1C62.275 265.1 71.992 271.337 75.972 283.643C87.117 318.14 62.457 365.612 54.645 379.333C39.51 405.895 18.685 427.917 -5.59498 443.018C-24.493 454.772 -45.525 461.51 -63.298 461.51Z" fill="url(#paint15_linear)" fill-opacity="0.5"/>
<path fill-rule="evenodd" clip-rule="evenodd" d="M40.45 1454.69C7.93002 1439.06 -10.21 1421.34 -16.618 1398.92C-24.273 1372.17 -16.973 1343.82 -9.918 1316.43C-9.13501 1313.43 -8.36798 1310.45 -7.62299 1307.47C13.459 1223.37 8.979 1155 -21.331 1098.46C-50.615 1043.82 -101.03 1010.01 -149.785 977.32C-199.345 944.093 -250.59 909.74 -279.436 853.515C-285.393 841.92 -290.495 829.857 -295 817.553V824.683C-291.045 834.912 -286.663 844.947 -281.67 854.688C-252.533 911.5 -201.005 946.02 -151.19 979.442C-102.678 1011.96 -52.533 1045.58 -23.541 1099.66C6.45203 1155.62 10.86 1223.39 -10.063 1306.86C-10.808 1309.82 -11.578 1312.79 -12.345 1315.79C-19.158 1342.24 -26.885 1372.19 -19.048 1399.61C-10.333 1430.08 18.465 1446.92 39.362 1456.96C78.169 1475.58 119.037 1489.06 159.895 1500H169.832C126.02 1488.65 82.027 1474.63 40.45 1454.69Z" fill="url(#paint16_linear)" fill-opacity="0.5"/>
</g>
<defs>
<linearGradient id="paint0_linear" x1="1030.02" y1="0" x2="1030.02" y2="1500" gradientUnits="userSpaceOnUse">
<stop stop-color="#E5E5E5"/>
<stop offset="1" stop-color="white" stop-opacity="0"/>
</linearGradient>
<linearGradient id="paint1_linear" x1="56.55" y1="649.428" x2="56.55" y2="1500" gradientUnits="userSpaceOnUse">
<stop stop-color="#E5E5E5"/>
<stop offset="1" stop-color="white" stop-opacity="0"/>
</linearGradient>
<linearGradient id="paint2_linear" x1="632.595" y1="0" x2="632.595" y2="832.028" gradientUnits="userSpaceOnUse">
<stop stop-color="#E5E5E5"/>
<stop offset="1" stop-color="white" stop-opacity="0"/>
</linearGradient>
<linearGradient id="paint3_linear" x1="656.55" y1="0" x2="656.55" y2="765.063" gradientUnits="userSpaceOnUse">
<stop stop-color="#E5E5E5"/>
<stop offset="1" stop-color="white" stop-opacity="0"/>
</linearGradient>
<linearGradient id="paint4_linear" x1="666.351" y1="0" x2="666.351" y2="711.315" gradientUnits="userSpaceOnUse">
<stop stop-color="#E5E5E5"/>
<stop offset="1" stop-color="white" stop-opacity="0"/>
</linearGradient>
<linearGradient id="paint5_linear" x1="656.936" y1="0" x2="656.936" y2="668.188" gradientUnits="userSpaceOnUse">
<stop stop-color="#E5E5E5"/>
<stop offset="1" stop-color="white" stop-opacity="0"/>
</linearGradient>
<linearGradient id="paint6_linear" x1="645.911" y1="0" x2="645.911" y2="619.055" gradientUnits="userSpaceOnUse">
<stop stop-color="#E5E5E5"/>
<stop offset="1" stop-color="white" stop-opacity="0"/>
</linearGradient>
<linearGradient id="paint7_linear" x1="-143.432" y1="0" x2="-143.432" y2="186.107" gradientUnits="userSpaceOnUse">
<stop stop-color="#E5E5E5"/>
<stop offset="1" stop-color="white" stop-opacity="0"/>
</linearGradient>
<linearGradient id="paint8_linear" x1="4.74524" y1="0" x2="4.74524" y2="794.165" gradientUnits="userSpaceOnUse">
<stop stop-color="#E5E5E5"/>
<stop offset="1" stop-color="white" stop-opacity="0"/>
</linearGradient>
<linearGradient id="paint9_linear" x1="-103.167" y1="0" x2="-103.167" y2="268.567" gradientUnits="userSpaceOnUse">
<stop stop-color="#E5E5E5"/>
<stop offset="1" stop-color="white" stop-opacity="0"/>
</linearGradient>
<linearGradient id="paint10_linear" x1="-12.7204" y1="0" x2="-12.7204" y2="692.445" gradientUnits="userSpaceOnUse">
<stop stop-color="#E5E5E5"/>
<stop offset="1" stop-color="white" stop-opacity="0"/>
</linearGradient>
<linearGradient id="paint11_linear" x1="-11.2173" y1="65.442" x2="-11.2173" y2="609.192" gradientUnits="userSpaceOnUse">
<stop stop-color="#E5E5E5"/>
<stop offset="1" stop-color="white" stop-opacity="0"/>
</linearGradient>
<linearGradient id="paint12_linear" x1="1066.51" y1="84.155" x2="1066.51" y2="1485.33" gradientUnits="userSpaceOnUse">
<stop stop-color="#E5E5E5"/>
<stop offset="1" stop-color="white" stop-opacity="0"/>
</linearGradient>
<linearGradient id="paint13_linear" x1="-11.2575" y1="143.103" x2="-11.2575" y2="546.13" gradientUnits="userSpaceOnUse">
<stop stop-color="#E5E5E5"/>
<stop offset="1" stop-color="white" stop-opacity="0"/>
</linearGradient>
<linearGradient id="paint14_linear" x1="1093.46" y1="210.865" x2="1093.46" y2="1438.62" gradientUnits="userSpaceOnUse">
<stop stop-color="#E5E5E5"/>
<stop offset="1" stop-color="white" stop-opacity="0"/>
</linearGradient>
<linearGradient id="paint15_linear" x1="-19.3147" y1="265.1" x2="-19.3147" y2="461.51" gradientUnits="userSpaceOnUse">
<stop stop-color="#E5E5E5"/>
<stop offset="1" stop-color="white" stop-opacity="0"/>
</linearGradient>
<linearGradient id="paint16_linear" x1="-62.584" y1="817.553" x2="-62.584" y2="1500" gradientUnits="userSpaceOnUse">
<stop stop-color="#E5E5E5"/>
<stop offset="1" stop-color="white" stop-opacity="0"/>
</linearGradient>
<clipPath id="clip0">
<rect width="411" height="823" fill="white"/>
</clipPath>
</defs>
</svg>
