<svg width="411" height="823" viewBox="0 0 411 823" fill="none" xmlns="http://www.w3.org/2000/svg">
<g clip-path="url(#clip0)">
<path fill-rule="evenodd" clip-rule="evenodd" d="M13.2919 0C12.4644 1.76762 11.601 3.34401 10.7056 4.70808C7.24945 9.97098 3.64167 12.0147 0 12.6154V14C3.67933 13.4003 7.32797 11.3232 10.8332 5.98842C11.94 4.30021 12.9972 2.28786 14 0H13.2919" fill="url(#paint0_linear)" fill-opacity="0.5"/>
<path fill-rule="evenodd" clip-rule="evenodd" d="M25.5345 0C21.9079 16.5983 17.0427 29.4284 11.482 36.455C7.74552 41.1768 3.88718 43.4756 0 44.5845V46C3.91768 44.891 7.81137 42.5717 11.5853 37.8025C17.3117 30.5636 22.3106 17.2448 26 0H25.5345" fill="url(#paint1_linear)" fill-opacity="0.5"/>
<path fill-rule="evenodd" clip-rule="evenodd" d="M33.2598 0C33.1595 0.568967 33.0643 1.13848 32.9622 1.70745C27.4886 32.2084 19.4228 53.4467 9.63959 63.1257C6.44859 66.2789 3.17415 68.4901 0 70.2112V71.6109C3.19922 69.8892 6.50188 67.6588 9.72138 64.4782C19.5869 54.7196 27.7195 33.2931 33.2417 2.51838C33.392 1.68166 33.5358 0.843849 33.6814 0H33.2598" fill="url(#paint2_linear)" fill-opacity="0.5"/>
<path fill-rule="evenodd" clip-rule="evenodd" d="M45.0553 489.768C48.3614 501.65 54.0843 499.36 59.1433 497.336C69.1673 493.317 79.4405 486.326 90.5503 475.944C93.8365 472.877 97.1676 469.301 100.389 465.857C107.334 458.423 114.514 450.735 121.706 447.492C132.353 442.711 143.177 445.671 153.354 449.1C162.679 452.262 173.411 454.204 182.746 437.339C189.816 424.56 195.655 401.956 199.631 371.971C203.404 343.513 205.119 310.595 204.458 279.282C203.616 239.359 199.841 204.236 193.826 180.386C191.375 170.668 188.476 162.497 185.673 154.594C181.328 142.343 176.834 129.679 174.061 111.193C169.817 82.9024 171.458 45.2156 177.799 25.4049C185.753 0.548667 196.446 16.8715 200.675 25.0494C203.605 30.7089 206.43 37.3927 209.159 43.8494C214.58 56.6679 220.184 69.9232 226.769 75.502C235.483 82.8761 244.44 79.9627 253.095 77.1425L253.938 76.8682C271.1 71.2965 288.756 70.7807 299.553 129.537C303.707 152.143 306.157 179.153 308.528 205.274C309.447 215.428 310.401 225.93 311.441 236.023C312.016 241.642 312.629 247.322 313.216 252.82C316.191 280.488 319.263 309.101 319.337 339.949C319.431 379.472 313.673 411.346 307.765 440.594L306.477 446.97C300.403 476.989 294.667 505.347 289.944 539.102C289.232 544.206 288.547 549.363 287.817 554.828C284.245 581.658 280.553 609.399 274.328 624.953C266.962 643.355 257.718 637.732 249.561 632.761L249.069 632.47C238.903 626.292 228.933 621.765 218.749 634.209C213.36 640.771 208.288 650.927 203.382 660.743C199.386 668.742 195.254 677.005 190.999 683.222C189.788 684.988 188.579 686.744 187.374 688.483C178.932 700.675 170.96 712.197 163.19 730.133C156.105 746.488 150.093 766.081 143.728 786.848C142.439 791.051 141.146 795.259 139.84 799.468C136.839 809.108 133.945 816.932 131.112 823H133.874C136.121 817.612 138.392 811.226 140.699 803.819C142.009 799.599 143.303 795.38 144.594 791.172C150.917 770.558 156.886 751.097 163.875 734.955C171.538 717.272 179.456 705.832 187.838 693.712C189.045 691.967 190.256 690.228 191.469 688.445C195.796 682.124 199.964 673.79 203.994 665.73C208.85 656.002 213.868 645.967 219.147 639.526C229.057 627.428 238.86 631.877 248.865 637.962L249.357 638.264C257.745 643.372 267.257 649.16 275.056 629.666C281.593 613.338 285.375 584.928 289.034 557.451C289.756 552.013 290.439 546.885 291.148 541.836C295.812 508.494 301.51 480.311 307.547 450.48L308.835 444.104C314.636 415.384 320.816 381.267 320.716 339.896C320.643 307.921 317.511 278.787 314.485 250.611C313.896 245.132 313.288 239.466 312.712 233.894C311.685 223.906 310.739 213.466 309.821 203.366C307.42 176.869 304.935 149.478 300.66 126.222C289.445 65.1816 271.374 65.6304 253.828 71.3228L252.986 71.5971C244.423 74.3838 235.573 77.2704 227.05 70.0565C220.685 64.6658 215.427 52.2276 209.858 39.0541C207.102 32.5376 204.252 25.7928 201.271 20.0318C196.812 11.4123 185.516 -5.74619 176.955 21.0095C170.069 42.5228 168.28 83.4056 172.882 114.073C175.805 133.564 180.421 146.57 184.884 159.154C187.641 166.924 190.492 174.962 192.86 184.351C198.641 207.27 202.271 241.147 203.085 279.751C204.436 343.794 195.643 407.936 182.18 432.263C173.146 448.591 162.623 446.663 153.469 443.568C143.224 440.099 132.323 437.125 121.554 441.975C114.259 445.255 107.028 452.998 100.036 460.486C96.8249 463.915 93.5036 467.479 90.2393 470.518C79.1864 480.848 68.9717 487.813 58.9978 491.804C54.2298 493.707 48.8265 495.877 45.9735 485.615C44.5035 480.338 43.7657 472.154 43.7189 460.594C43.602 431.218 46.537 400.415 52.4419 369.058C53.6178 362.809 54.8285 356.519 55.9992 350.432C60.6818 326.085 65.5248 300.91 69.2879 272.953C73.4671 241.924 77.5376 205.027 81.7353 160.167C85.9813 114.784 87.555 74.1155 86.5433 35.8389C86.207 23.0605 85.5131 11.2378 84.5716 0H83.1231C84.1065 11.3793 84.8274 23.3282 85.1737 36.4287C86.1604 73.8203 84.6134 113.651 80.4458 158.204C76.2701 202.83 72.2245 239.493 68.0771 270.302C64.3662 297.855 59.5595 322.851 54.9104 347.022C53.7366 353.123 52.5239 359.426 51.3432 365.695C45.2474 398.065 42.219 430.026 42.3409 460.686C42.3927 473.882 43.2808 483.392 45.0553 489.768" fill="url(#paint3_linear)" fill-opacity="0.5"/>
<path fill-rule="evenodd" clip-rule="evenodd" d="M92.0352 817.283C90.2391 814.869 88.3828 812.367 86.5747 810.062C77.882 798.979 68.0434 784.714 61.3036 755.465C56.2166 733.386 54.8685 703.824 53.5641 675.228C53.208 667.404 52.8398 659.322 52.4 651.525C51.325 632.453 50.0002 613.327 48.3496 593.059C47.8431 586.815 47.3629 580.292 46.8997 573.971C45.9028 560.386 44.8712 546.35 43.443 533.409C41.2955 513.987 37.0978 508.588 33.6797 506.043C29.3751 502.856 24.8127 498.997 20.5249 490.143C13.8286 476.306 8.97377 452.383 5.24778 414.862C3.34307 395.674 1.63715 375.795 0 356.319V373.498C1.24766 388.039 2.5519 402.66 3.96848 416.925C7.77132 455.236 12.9824 480.806 19.8961 495.087C24.3513 504.288 29.0255 508.253 33.4303 511.522C38.0746 514.965 40.692 522.184 42.1819 535.673C43.5752 548.279 44.5935 562.142 45.5767 575.551C46.0435 581.899 46.5268 588.478 47.0403 594.788C48.6775 614.891 49.9902 633.858 51.0554 652.76C51.4887 660.452 51.8531 668.473 52.2079 676.232C53.5474 705.607 54.9338 735.987 60.2937 759.25C67.2625 789.498 77.2981 804.071 86.1602 815.362C87.9563 817.656 89.8076 820.147 91.5984 822.561C91.7074 822.704 91.8176 822.852 91.9263 823H96.3247C94.8864 821.123 93.4566 819.198 92.0352 817.283" fill="url(#paint4_linear)" fill-opacity="0.5"/>
<path fill-rule="evenodd" clip-rule="evenodd" d="M212.751 16.9785C219.738 31.3985 226.335 45.0208 234.06 50.4126C242.198 56.0863 250.366 51.1703 258.263 46.4073C260.363 45.1415 262.535 43.8357 264.672 42.7505C275.254 37.3521 283.141 40.7687 290.235 53.8022C297.193 66.5873 303.307 88.2547 307.447 114.817C310.785 136.236 312.545 160.983 314.248 184.92C315.123 197.245 316.03 209.983 317.14 222.112C317.933 230.786 318.857 239.693 319.746 248.306C322.719 277.1 325.797 306.864 325.389 337.92C324.753 385.949 317.355 422.101 310.197 457.071C305.959 477.779 301.574 499.199 298.57 523.028C292.944 567.7 291.125 607.017 293.162 639.888C293.64 647.602 294.212 655.146 294.764 662.433C296.978 691.698 299.072 719.346 294.319 749.594C292.466 761.385 290.392 772.528 288.389 783.298C286.037 795.94 283.633 808.883 281.565 823H281.967C284.001 809.217 286.359 796.532 288.663 784.138C290.674 773.346 292.75 762.169 294.61 750.345C299.446 719.549 297.333 691.605 295.093 662.032C294.543 654.757 293.975 647.24 293.497 639.553C291.48 607.017 293.292 568.024 298.878 523.658C301.864 499.961 306.236 478.61 310.464 457.954C317.655 422.812 325.09 386.478 325.73 337.993C326.144 306.622 323.054 276.705 320.064 247.771C319.174 239.171 318.254 230.277 317.465 221.629C316.358 209.548 315.455 196.835 314.578 184.539C312.868 160.508 311.104 135.659 307.738 114.08C303.561 87.2901 297.397 65.4356 290.378 52.5431C283.222 39.3888 275.281 35.9459 264.628 41.3706C262.488 42.4558 260.314 43.7682 258.212 45.0346C250.339 49.7767 242.201 54.679 234.121 49.0398C226.445 43.6821 219.869 30.1119 212.909 15.7396C211.895 13.6492 210.881 11.5533 209.861 9.47657C208.273 6.2559 206.658 3.04784 205.016 0H204.189C206.06 3.40832 207.902 7.05311 209.707 10.722C210.728 12.7922 211.742 14.8881 212.751 16.9785" fill="url(#paint5_linear)" fill-opacity="0.5"/>
<path fill-rule="evenodd" clip-rule="evenodd" d="M180.191 174.292C175.955 160.51 171.575 146.26 168.392 127.963C163.485 99.7505 163.25 60.6191 167.791 28.2798C169.383 16.946 171.412 7.41962 173.75 0H173.203C170.972 7.36591 169.03 16.6445 167.492 27.5975C162.886 60.3988 163.128 100.111 168.108 128.76C171.319 147.223 175.721 161.535 179.975 175.369C182.604 183.926 185.325 192.77 187.725 202.485C193.897 227.453 197.133 262.214 196.601 297.847C196.052 334.428 191.659 368.354 184.546 390.921C173.821 424.933 160.649 422.25 147.911 419.668C141.051 418.276 133.956 416.831 127.323 421.132C125.338 422.418 123.332 423.448 121.391 424.437C119.189 425.562 116.91 426.725 114.657 428.278C110.693 431.007 106.698 434.432 102.836 437.751C101.472 438.915 100.109 440.093 98.7433 441.229L97.9587 441.886C89.3357 449.11 79.5613 457.314 70.5977 453.754C65.2778 451.64 61.1784 444.026 59.0535 432.318C57.4345 423.387 56.9621 412.228 57.6517 399.148C58.8618 376.148 62.2269 355.95 65.4799 336.415C67.2528 325.778 69.0837 314.779 70.5277 303.533C73.2032 282.679 75.283 260.207 77.2928 238.478C77.7953 233.052 78.2958 227.633 78.8051 222.248C79.6279 213.563 80.4941 204.779 81.3321 196.283C83.0413 178.969 84.8089 161.066 86.2861 143.042C90.4275 92.5123 91.3871 46.4562 89.219 0H88.8683C91.0419 46.3099 90.0888 92.218 85.9589 142.608C84.4853 160.584 82.7209 178.474 81.0135 195.768C80.1739 204.271 79.3072 213.055 78.4845 221.753C77.9738 227.137 77.4729 232.563 76.9708 237.989C74.9624 259.685 72.8878 282.117 70.222 302.897C68.7883 314.07 66.9604 325.035 65.1944 335.639C61.923 355.289 58.5394 375.6 57.3146 398.861C56.6049 412.341 57.0975 423.875 58.7766 433.135C60.9601 445.177 65.1463 452.991 70.5624 455.133C79.5793 458.718 89.3826 450.489 98.0288 443.251L98.8133 442.594C100.179 441.445 101.544 440.28 102.908 439.103C106.767 435.797 110.758 432.372 114.714 429.656C116.961 428.104 119.236 426.94 121.434 425.815C123.379 424.826 125.388 423.796 127.376 422.504C133.974 418.229 141.051 419.668 147.893 421.053C160.696 423.655 173.934 426.338 184.758 392.01C191.949 369.197 196.39 334.91 196.943 297.933C197.481 261.9 194.209 226.749 187.97 201.501C185.555 191.734 182.828 182.869 180.191 174.292" fill="url(#paint6_linear)" fill-opacity="0.5"/>
<path fill-rule="evenodd" clip-rule="evenodd" d="M173.781 186.258C171.342 177.022 168.821 167.473 166.579 157.281C159.678 125.911 157.232 90.9447 159.31 53.3696C160.406 33.5599 162.291 15.2862 164.733 0H164.326C161.918 15.2725 160.06 33.426 158.975 53.0611C156.87 91.105 159.341 126.481 166.322 158.205C168.574 168.445 171.102 178.015 173.546 187.269C177.551 202.434 181.693 218.116 184.719 237.114C189.712 268.443 189.969 305.072 185.405 335.101C179.908 371.288 170.645 384.275 163.844 388.799C157.184 393.229 150.263 394.247 143.572 395.226C139.922 395.761 136.151 396.312 132.473 397.416C125.633 399.461 118.764 403.683 112.121 407.756C108.33 410.089 104.412 412.496 100.539 414.471L100.495 414.492C93.8872 417.87 87.0536 421.367 80.6471 415.289C77.4562 412.268 75.146 406.912 73.7783 399.387C71.2532 385.482 72.4839 366.813 73.9634 348.885C75.408 331.375 76.8006 313.468 78.1466 296.152C79.9846 272.516 81.8846 248.071 83.9444 224.294C84.9587 212.586 86.0776 200.726 87.1585 189.253C89.7738 161.522 92.4792 132.848 93.9904 103.435C95.6984 70.1963 95.9535 35.4237 94.7558 0H94.4092C95.6085 35.3292 95.3581 70.0091 93.6536 103.153C92.1474 132.452 89.4486 161.073 86.8384 188.757C85.7542 200.236 84.6351 212.111 83.6208 223.832C81.5594 247.635 79.6578 272.088 77.818 295.737C76.4721 313.047 75.081 330.946 73.6365 348.443C72.524 361.953 70.6591 384.557 73.5016 400.211C74.9192 408.012 77.2959 413.54 80.5685 416.642C83.1437 419.088 85.7826 420 88.4446 420C92.4676 420 96.5442 417.917 100.539 415.873L100.582 415.852C104.458 413.869 108.38 411.463 112.173 409.137C118.809 405.056 125.671 400.847 132.498 398.797C136.169 397.698 139.939 397.149 143.583 396.612C150.286 395.634 157.218 394.615 163.9 390.173C170.772 385.602 180.131 372.461 185.699 335.831C190.332 305.334 190.075 268.148 185.01 236.364C181.959 217.217 177.801 201.476 173.781 186.258" fill="url(#paint7_linear)" fill-opacity="0.5"/>
<path fill-rule="evenodd" clip-rule="evenodd" d="M251.424 0C244.742 19.1214 235.015 10.7281 228.264 2.70607C227.538 1.8459 226.817 0.932297 226.097 0H225C226.051 1.40245 227.103 2.74614 228.159 3.99739C235.032 12.1626 244.955 20.7002 251.768 0.703631C251.849 0.475498 251.922 0.235078 252 0H251.424" fill="url(#paint8_linear)" fill-opacity="0.5"/>
<path fill-rule="evenodd" clip-rule="evenodd" d="M159.595 154.714C154.044 125.962 152.108 91.3283 153.995 54.5715C154.677 41.3036 155.976 21.1045 158.298 0H157.921C155.626 21.0167 154.337 41.0759 153.658 54.2906C151.748 91.4627 153.708 126.478 159.323 155.572C161.332 165.98 163.742 176.119 166.293 186.862C174.093 219.681 182.156 253.617 179.882 299.757C177.608 345.858 164.498 359.628 153.33 366.473C149.497 368.823 145.573 370.491 141.778 372.111C139.652 373.022 137.456 373.96 135.299 375.005C132.934 376.15 130.565 377.355 128.195 378.568C120.203 382.647 111.939 386.867 103.793 388.574C92.3977 390.972 85.6984 379.546 83.8804 354.637C82.6748 338.121 83.1581 319.696 83.7568 302.249C83.8352 299.978 83.8486 296.797 83.8637 293.113C83.9023 284.206 83.9557 272.003 85.0946 268.359L85.1397 268.138C85.7385 263.57 85.8874 258.273 86.0297 253.149C86.0847 251.153 86.1382 249.271 86.2153 247.423C86.5512 239.426 87.2051 231.436 87.8374 223.707L88.0531 221.054C89.2738 206.024 90.7222 191.048 92.1237 176.555C92.7358 170.213 93.3711 163.65 93.9784 157.172C97.6725 117.724 99.5991 77.8668 99.7029 38.6991C99.7379 25.8532 99.5557 12.7922 99.345 0H99.0004C99.211 12.7922 99.3933 25.8598 99.3584 38.6848C99.2545 77.6857 97.3345 117.389 93.6553 156.677C93.0484 163.153 92.4145 169.711 91.8024 176.053C90.3993 190.56 88.9494 205.555 87.7271 220.619L87.5095 223.271C86.8738 231.046 86.2153 239.091 85.8755 247.188C85.797 249.077 85.7402 251.065 85.6867 252.994C85.5495 257.945 85.4056 263.054 84.8504 267.368C83.6128 271.507 83.5612 283.462 83.5194 293.087C83.5043 296.73 83.491 299.871 83.4157 302.062C82.8118 319.656 82.3234 338.249 83.5493 355.026C85.2586 378.447 91.1034 390.275 100.94 390.275C101.862 390.275 102.82 390.174 103.81 389.968C111.97 388.253 120.239 384.034 128.238 379.948C130.608 378.735 132.974 377.529 135.339 376.384C137.494 375.34 139.69 374.402 141.814 373.498C145.614 371.877 149.542 370.196 153.382 367.845C163.782 361.469 177.879 347.505 180.221 300.025C182.53 253.182 174.402 218.978 166.542 185.898C163.997 175.189 161.594 165.069 159.595 154.714" fill="url(#paint9_linear)" fill-opacity="0.5"/>
<path fill-rule="evenodd" clip-rule="evenodd" d="M296.67 800.976C295.128 808.142 293.559 815.445 292.058 823H292.503C293.947 815.779 295.45 808.773 296.931 801.887C299.757 788.763 302.678 775.195 305.099 760.43C310.31 728.684 310.809 697.004 306.718 657.714C303.397 625.837 299.965 592.884 302.302 554.856C304.785 514.482 311.336 482.709 317.673 451.981C322.913 426.543 328.331 400.248 331.468 369.104C335.011 333.949 334.617 293.67 330.301 249.405C330.02 246.512 329.733 243.624 329.449 240.731C328.006 226.137 326.516 211.041 325.488 195.623C324.623 182.657 324.21 169.154 323.816 156.095C323.676 151.52 323.532 146.785 323.372 142.129C322.685 122.425 321.241 104.743 318.682 84.7909C316.826 70.2979 314.126 57.9337 311.514 45.9799C310.424 40.9892 309.296 35.8318 308.25 30.6019C306.523 21.9757 304.767 11.6136 304.136 0H303.778C304.41 11.9812 306.21 22.6177 307.982 31.4715C309.032 36.7288 310.162 41.9006 311.253 46.8962C313.852 58.7907 316.538 71.088 318.377 85.434C320.913 105.24 322.347 122.787 323.026 142.324C323.191 146.966 323.335 151.694 323.472 156.262C323.873 169.369 324.284 182.924 325.154 195.985C326.187 211.484 327.682 226.613 329.127 241.247C329.412 244.134 329.7 247.021 329.981 249.914C334.262 293.837 334.656 333.761 331.151 368.582C328.034 399.525 322.632 425.739 317.404 451.082C311.046 481.945 304.47 513.838 301.968 554.521C299.599 592.993 303.059 626.171 306.4 658.252C310.443 697.059 309.953 728.333 304.815 759.667C302.404 774.35 299.49 787.88 296.67 800.976" fill="url(#paint10_linear)" fill-opacity="0.5"/>
<path fill-rule="evenodd" clip-rule="evenodd" d="M411 21.4859C405.368 20.0755 400.215 21.5327 395.055 25.8353C390.711 29.4534 386.356 34.1383 382.144 38.6691C376.515 44.7303 370.694 50.9927 364.825 54.7719C357.054 59.7784 347.007 63.0336 338.219 43.6218C332.966 32.0169 328.881 16.7202 326.399 0H326C328.504 17.2162 332.675 32.9627 338.055 44.8441C343.278 56.383 348.927 60 354.289 60C358.042 60 361.654 58.2223 364.878 56.1477C370.763 52.3552 376.595 46.0852 382.234 40.0174C386.439 35.4871 390.787 30.8089 395.124 27.1973C400.261 22.9227 405.387 21.4656 411 22.8826V21.4859" fill="url(#paint11_linear)" fill-opacity="0.5"/>
<path fill-rule="evenodd" clip-rule="evenodd" d="M362 0.005C363.12 0.64 364.258 0.995 365.416 0.995C366.592 0.995 367.789 0.665 369 0.005H362" fill="url(#paint12_linear)" fill-opacity="0.5"/>
<path fill-rule="evenodd" clip-rule="evenodd" d="M159.688 186.122C155.855 167.321 151.891 147.878 149.736 124.908C146.579 91.2573 148.686 54.2408 151.434 19.2549C151.926 12.9869 152.434 6.54427 152.955 0H151.518C151.044 5.96042 150.583 11.8335 150.134 17.5594C147.31 53.5104 145.153 91.6391 148.461 126.899C150.697 150.729 154.734 170.526 158.638 189.675C159.448 193.651 160.286 197.767 161.087 201.818C167.416 233.799 170.25 260.913 169.517 282.401C169.055 295.925 167.154 307.584 163.866 317.056C155.574 340.946 144.285 346.94 134.325 352.224L133.462 352.686C131.99 353.47 130.484 354.335 129.03 355.173C123.686 358.25 118.162 361.436 112.744 361.436C110.298 361.436 108.061 360.806 105.906 359.511C100.573 356.313 96.7611 348.738 94.5766 336.99C92.3488 325.016 91.7854 309.3 91.3682 292.887C91.6762 256.796 93.4022 222.408 96.6439 187.764C96.9651 184.345 97.2864 180.938 97.6076 177.54C100.364 148.361 103.215 118.19 104.242 85.8665C105.003 61.9177 105.075 37.519 105.144 13.9261C105.159 9.33335 105.174 4.67244 105.193 0H103.827C103.808 4.65377 103.793 9.28666 103.78 13.8586C103.71 37.2911 103.639 61.5294 102.887 85.1563C101.881 116.815 99.1864 145.337 96.3325 175.542C96.0109 178.947 95.6879 182.354 95.3684 185.78C92.0655 221.073 90.3098 256.105 90.0016 292.887L90 293.075L90.0047 293.262C90.4421 310.567 91.0385 327.181 93.4884 340.349C95.8952 353.303 100.008 361.597 105.707 365.016C107.929 366.35 110.231 367 112.744 367C118.258 367 123.832 363.789 129.22 360.685C130.671 359.846 132.174 358.982 133.639 358.203L134.501 357.747C144.618 352.377 156.085 346.289 164.654 321.603C168.262 311.205 170.353 298.271 170.869 283.166C171.668 259.773 168.819 232.015 162.151 198.325C161.342 194.241 160.501 190.111 159.688 186.122" fill="url(#paint13_linear)" fill-opacity="0.5"/>
<path fill-rule="evenodd" clip-rule="evenodd" d="M152.514 186.596C148.012 163.942 143.356 140.525 141.933 111.882C140.498 82.9603 142.748 54.2178 144.922 26.4215C145.602 17.7333 146.294 8.78869 146.864 0H146.503C145.94 8.64918 145.258 17.4516 144.589 26.0058C142.4 53.9712 140.137 82.8862 141.592 112.158C143.029 141.12 147.712 164.68 152.241 187.461C153.331 192.945 154.458 198.61 155.503 204.189C162.275 240.346 163.455 269.712 159.006 291.473C154.644 312.82 146.797 320.429 141.065 325.988C134.628 332.23 127.023 338.605 119.423 338.605H119.421C116.632 338.605 113.947 337.727 111.444 335.998C102.306 329.676 97.2274 305.492 96.3471 264.18C96.3286 230.49 99.6236 198.987 102.808 168.514C103.152 165.244 103.494 161.978 103.83 158.714C107.538 122.791 109.327 90.0261 109.457 55.5991L109.477 49.9475C109.535 33.8844 109.596 16.7942 109.985 0H109.633C109.247 16.7942 109.186 33.8707 109.129 49.9338L109.109 55.5798C108.978 89.8256 107.198 122.429 103.507 158.184C103.17 161.442 102.829 164.707 102.487 167.979C99.2884 198.577 95.98 230.216 96.0001 264.24C96.8938 306.324 102.07 330.93 111.383 337.372C113.908 339.116 116.612 340 119.421 340H119.423C127.06 340 134.69 333.597 141.148 327.335C146.927 321.737 154.84 314.06 159.277 292.352C163.84 270.033 162.663 240.091 155.783 203.357C154.734 197.759 153.607 192.087 152.514 186.596" fill="url(#paint14_linear)" fill-opacity="0.5"/>
<path fill-rule="evenodd" clip-rule="evenodd" d="M0 102C0.749146 101.165 1.49663 100.341 2.23414 99.5326C10.0969 90.8747 18.2271 81.923 25.3018 64.6149C31.9959 48.2303 37.0867 25.8114 42 0H41.5619C36.7198 25.3428 31.6932 47.3408 25.1193 63.4311C18.0868 80.6389 9.98012 89.5632 2.14117 98.1942C1.43608 98.9697 0.718665 99.76 0 100.556V102" fill="url(#paint15_linear)" fill-opacity="0.5"/>
<path fill-rule="evenodd" clip-rule="evenodd" d="M80.9761 33.2806C80.2997 21.8806 79.2276 10.649 77.8452 0H77.4597C78.8672 10.7358 79.9574 22.0826 80.642 33.6084C82.6875 68.0354 81.6654 104.754 77.3295 152.664C73.4841 195.141 69.1061 232.878 64.3156 264.831C60.38 291.082 55.5181 312.333 50.3703 334.831C49.0394 340.654 47.662 346.673 46.3143 352.738C44.9154 359.024 43.5225 365.518 42.1752 371.798C40.2901 380.59 38.3398 389.671 36.3496 398.337C35.9639 400.005 35.5713 401.761 35.1692 403.557C32.6261 414.896 29.7441 427.743 26.3278 432.608C25.393 433.936 24.4379 434.619 23.4863 434.619H23.4845C16.6919 434.606 11.1351 400.441 9.06145 385.751C5.3229 359.266 2.56468 330.461 0 302.08V306.12C2.47946 333.397 5.16765 360.968 8.76258 386.441C11.3758 404.951 16.7637 436 23.4845 436H23.4863C24.4762 436 25.4713 435.303 26.4415 433.922C29.9413 428.937 32.8532 415.949 35.4229 404.489C35.8255 402.699 36.2176 400.95 36.6017 399.282C38.597 390.603 40.5472 381.509 42.4358 372.716C43.7814 366.436 45.1739 359.949 46.57 353.663C47.9157 347.611 49.2931 341.593 50.6239 335.777C55.7835 313.225 60.6573 291.926 64.6094 265.555C69.4114 233.522 73.7994 195.704 77.6532 153.14C82.0128 104.963 83.0381 67.9958 80.9761 33.2806" fill="url(#paint16_linear)" fill-opacity="0.5"/>
<path fill-rule="evenodd" clip-rule="evenodd" d="M140.628 173.989C138.807 165.993 136.925 157.722 135.327 149.217C132.266 132.938 130.728 118.846 130.486 104.873C130.22 89.5303 131.766 75.1045 133.262 61.1452C133.628 57.74 134.006 54.2137 134.345 50.7675C135.505 39.0243 137.459 19.1844 138.028 0H137.681C137.113 18.9426 135.173 38.6231 134.026 50.2522C133.687 53.6782 133.311 57.1974 132.946 60.597C131.433 74.7027 129.87 89.2892 130.141 104.975C130.389 119.227 131.948 133.553 135.051 150.054C136.659 158.612 138.548 166.903 140.375 174.925C144.116 191.36 147.985 208.356 149.882 229.199C152.714 260.32 147.251 282.777 141.195 293.422C136.065 302.435 129.952 307.609 124.425 307.609C118.571 307.609 108.329 301.372 105.506 259.705C104.836 236.353 106.21 211.273 109.588 185.163C110.628 177.127 111.871 169.103 113.072 161.349C115.283 147.069 117.57 132.301 118.807 116.269C120.329 96.5358 119.709 75.5715 119.109 55.3035C118.653 39.84 118.18 23.8475 118.661 8.51122C118.746 5.79511 118.882 2.93154 119.059 0H118.706C118.534 2.87069 118.402 5.66793 118.319 8.33745C117.832 23.8475 118.309 39.9211 118.768 55.4718C119.363 75.5918 119.979 96.4097 118.477 115.854C117.254 131.719 114.979 146.407 112.779 160.612C111.576 168.388 110.329 176.438 109.282 184.52C105.871 210.885 104.485 236.232 105.17 259.966C108.057 302.63 118.474 309 124.425 309H124.426C129.999 309 136.161 303.788 141.332 294.694C147.532 283.801 153.12 260.743 150.205 228.724C148.284 207.62 144.392 190.523 140.628 173.989" fill="url(#paint17_linear)" fill-opacity="0.5"/>
<path fill-rule="evenodd" clip-rule="evenodd" d="M0 148C0.236082 146.843 0.48888 145.706 0.765575 144.603C4.06051 131.485 8.35889 123.541 12.5155 115.859C13.0905 114.788 13.6672 113.727 14.2388 112.65C21.4311 99.1281 30.7529 79.7888 39.0713 50.0551C40.5028 44.9356 41.9077 39.2182 43.393 33.1636C46.41 20.8868 49.4926 8.34214 53 0H52.3304C48.9916 8.3956 46.0391 20.409 43.1471 32.1882C41.6649 38.2224 40.2634 43.9205 38.8403 49.0124C30.5539 78.6315 21.2608 97.9036 14.0906 111.386C13.5205 112.462 12.9454 113.524 12.3687 114.587C8.18511 122.323 3.85993 130.322 0.521066 143.613C0.337339 144.341 0.165354 145.088 0 145.847V148" fill="url(#paint18_linear)" fill-opacity="0.5"/>
<path fill-rule="evenodd" clip-rule="evenodd" d="M75.4671 40.2338C74.2035 25.1012 71.7576 9.8945 68.4246 0H67.8285C71.3031 9.65304 73.8488 25.2011 75.1424 40.6756C77.455 68.3368 77.1204 100.524 74.1219 139.084C71.3297 174.963 66.9428 213.027 61.4319 249.154C56.5788 280.975 50.4287 305.721 42.6882 333.086C42.3438 334.306 41.9875 335.579 41.6179 336.892C36.6813 354.497 29.9201 378.613 23.3322 378.613H23.3304C22.2881 378.613 21.2727 377.983 20.3135 376.75C13.7538 368.296 9.97445 341.641 6.86613 314.089C3.90756 287.861 1.82489 260.108 0 232.467V237.8C1.74974 263.845 3.76258 289.918 6.55488 314.67C9.69485 342.505 13.5222 369.455 20.2102 378.077C21.2027 379.35 22.2516 380 23.3304 380C23.3322 380 23.3322 380 23.3322 380C30.05 380 36.8677 355.689 41.8443 337.936C42.2139 336.623 42.5702 335.351 42.9129 334.138C50.6783 306.686 56.8486 281.852 61.7234 249.886C67.2492 213.663 71.6496 175.493 74.4483 139.5C77.4716 100.652 77.8047 68.1749 75.4671 40.2338" fill="url(#paint19_linear)" fill-opacity="0.5"/>
<path fill-rule="evenodd" clip-rule="evenodd" d="M59.9088 37.2984C55.9437 37.2984 51.2292 45.8175 45.8962 62.6155C37.9509 87.644 29.4918 109.332 21.5347 129.042C21.0563 130.228 20.5713 131.414 20.085 132.599C16.9474 140.241 13.7049 148.151 11.2731 159.182C7.86154 174.667 7.01036 194.746 6.8983 208.865C6.86829 212.769 6.87651 217.036 6.92679 221.911C8.35502 258.219 10.581 295.257 17.1248 319.649C19.4778 328.41 22.239 332.857 25.3311 332.857H25.3327C31.0306 332.857 36.8836 318.069 40.7922 306.943C53.8918 269.666 63.911 209.467 69.0033 137.455C70.7893 112.191 72.6053 75.93 67.7757 52.7773C65.6316 42.509 62.9858 37.2984 59.9088 37.2984ZM25.3329 334.243H25.3313C22.1486 334.243 19.309 329.676 16.8924 320.667C10.2698 295.986 8.02407 258.681 6.5842 222.045C6.53214 217.055 6.52392 212.755 6.55406 208.817C6.66942 194.47 7.53567 174.051 11.0157 158.257C13.4808 147.073 16.7485 139.109 19.9077 131.407C20.3927 130.222 20.876 129.042 21.3544 127.857C29.3032 108.166 37.752 86.5055 45.6856 61.5181C51.0791 44.5254 55.8651 35.9058 59.909 35.9058C63.0915 35.9058 65.8274 41.2844 68.0399 51.8792C72.9751 75.542 71.1423 112.265 69.3346 137.836C64.2221 210.15 54.1561 270.616 40.9913 308.082C37.0461 319.314 31.1276 334.243 25.3329 334.243V334.243Z" fill="url(#paint20_linear)" fill-opacity="0.5"/>
<path fill-rule="evenodd" clip-rule="evenodd" d="M132.73 463.367C131.037 463.367 129.369 463.594 127.777 464.076C116.922 467.277 106.541 478.852 97.8184 489.755C95.0473 493.224 92.169 496.439 89.3861 499.559C82.6868 507.048 75.7598 514.804 69.4752 526.793C64.234 536.799 58.148 556.343 58.9225 592.642C61.3292 653.714 68.1255 735.274 86.8376 776.786C96.7078 798.678 106.123 810.957 114.823 813.305C115.46 813.475 116.107 813.568 116.746 813.568C124.307 813.568 131.906 801.86 140.662 776.72C142.517 771.387 144.38 765.895 146.182 760.606C152.354 742.428 158.735 723.636 165.669 708.696C169.366 700.741 173.274 693.575 177.051 686.651C182.413 676.819 187.957 666.663 192.999 654.022C195.262 648.354 197.498 642.017 199.658 635.899C205.203 620.185 210.935 603.934 217.748 597.13C221.24 593.635 225.006 592 229.592 592C233.121 592 236.713 592.977 240.189 593.932C242.724 594.612 245.345 595.336 247.891 595.644C248.974 595.781 249.981 595.847 250.968 595.847C257.537 595.847 267.164 593.191 274.88 570.29C279.929 555.295 283.834 534.896 287.61 515.151C289.067 507.53 290.576 499.654 292.125 492.22C293.74 484.477 295.43 476.735 297.065 469.247C301.667 448.189 306.427 426.409 310.053 401.896C314.845 369.466 315.485 332.207 311.949 291.171C308.761 254.16 304.463 215.401 299.175 175.959C294.754 143 288.962 120.463 281.95 108.976C276.017 99.2511 269.428 94.7246 261.217 94.7246C255.868 94.7246 250.369 96.6328 245.048 98.4818C239.75 100.317 234.272 102.218 228.967 102.218C227.057 102.218 225.298 101.985 223.581 101.502C218.538 100.069 214.311 96.2981 210.664 89.9693C207.898 85.1668 205.41 78.1949 203.003 71.4501C201.449 67.1036 199.842 62.6029 198.179 58.7375C194.944 51.2169 192.113 47.5667 189.523 47.5667C188.429 47.5667 187.363 48.2289 186.354 49.549C182.231 54.9342 180.111 69.8497 181.084 86.6729C182.281 107.416 187.582 119.739 192.262 130.604C193.24 132.88 194.163 135.03 195.021 137.188C201.089 152.451 205.215 180.024 207.639 221.476C209.698 256.658 211.705 302.657 208.948 346.467C206.582 384.039 201.645 419.45 195.401 443.608C189.573 466.166 181.458 477.137 170.593 477.137C164.234 477.137 157.732 473.506 152.506 470.6C146.109 467.036 139.494 463.367 132.73 463.367ZM116.748 814.951C116.748 814.951 116.748 814.951 116.746 814.951C116.099 814.951 115.445 814.869 114.8 814.693C106.05 812.339 96.5859 799.989 86.6721 778.004C67.8378 736.223 60.9997 654.236 58.5796 592.807C57.7871 555.662 63.988 535.726 69.3279 525.534C75.6379 513.49 82.5797 505.721 89.2943 498.221C92.0738 495.099 94.9504 491.885 97.7164 488.428C106.458 477.512 116.861 465.897 127.752 462.682C129.352 462.215 131.028 461.973 132.73 461.973C139.517 461.973 146.145 465.656 152.555 469.22C157.768 472.126 164.258 475.743 170.593 475.743C181.365 475.743 189.4 464.907 195.161 442.604C201.361 418.619 206.265 383.458 208.614 346.125C211.353 302.61 209.354 256.825 207.304 221.797C204.901 180.721 200.824 153.428 194.839 138.365C193.985 136.223 193.065 134.079 192.089 131.809C187.35 120.797 181.979 108.321 180.747 86.9883C179.735 69.42 181.944 53.8417 186.249 48.2223C187.291 46.8627 188.393 46.173 189.523 46.173C192.174 46.173 195.062 49.8903 198.35 57.5315C200.028 61.4232 201.641 65.9442 203.199 70.3116C205.592 77.0152 208.065 83.9405 210.798 88.6892C214.411 94.9588 218.597 98.6952 223.605 100.115C225.31 100.598 227.067 100.832 228.967 100.832C234.258 100.832 239.73 98.9301 245.022 97.0948C250.346 95.2458 255.855 93.3309 261.217 93.3309C269.475 93.3309 276.104 97.8914 282.08 107.691C289.165 119.298 295.019 142.05 299.481 175.296C304.779 214.806 309.083 253.638 312.277 290.715C315.845 332.16 315.197 369.807 310.348 402.606C306.708 427.226 301.939 449.06 297.326 470.171C295.691 477.646 294.001 485.388 292.39 493.117C290.844 500.524 289.339 508.401 287.884 516.009C284.092 535.821 280.175 556.304 275.084 571.398C267.284 594.557 257.583 597.224 250.968 597.224C249.979 597.224 248.968 597.169 247.881 597.037C245.329 596.713 242.704 596.006 240.165 595.309C236.696 594.371 233.107 593.394 229.592 593.394C225.034 593.394 221.298 595.012 217.829 598.469C211.079 605.223 205.374 621.387 199.856 637.035C197.691 643.169 195.453 649.517 193.181 655.212C188.119 667.886 182.565 678.064 177.193 687.924C173.42 694.837 169.521 701.986 165.832 709.931C158.917 724.827 152.547 743.58 146.385 761.714C144.583 767.036 142.717 772.512 140.861 777.845C132.045 803.16 124.382 814.951 116.748 814.951V814.951Z" fill="url(#paint21_linear)" fill-opacity="0.5"/>
<path fill-rule="evenodd" clip-rule="evenodd" d="M411 225.418C409.768 224.659 408.55 223.746 407.349 222.847C405.556 221.498 403.703 220.102 401.828 219.236C391.634 214.532 383.321 216.612 375.665 225.779L374.563 227.108C367.89 235.195 360.326 244.362 354.792 224.92C350.119 208.505 349.504 177.975 351.318 156.311C354.513 118.099 365.632 103.165 374.563 91.1734C375.654 89.7038 376.722 88.2744 377.742 86.8439C379.416 84.5018 381.105 82.0267 382.739 79.6297C388.532 71.1339 394.524 62.3484 400.713 58.3351C404.029 56.1882 407.466 55.3019 411 55.6373V50.068C407.391 49.7321 403.882 50.6381 400.494 52.8389C394.174 56.9331 388.12 65.8121 382.266 74.3958C380.639 76.784 378.95 79.2542 377.288 81.5825C376.272 83.0064 375.211 84.4293 374.128 85.8845C364.9 98.2738 353.422 113.69 350.005 154.534C348.049 177.956 348.75 211.096 353.882 229.121C356.611 238.699 359.772 242 363.032 242C367.075 242 371.271 236.92 374.962 232.443L376.061 231.121C383.528 222.169 391.668 220.156 401.67 224.766C403.498 225.611 405.328 226.987 407.093 228.323C408.376 229.282 409.677 230.262 411 231.061V225.418" fill="url(#paint22_linear)" fill-opacity="0.5"/>
<path fill-rule="evenodd" clip-rule="evenodd" d="M15.2536 235.669C15.916 252.016 17.8457 280.636 23.3479 290.133C24.8649 292.752 26.4952 294.078 28.196 294.078C32.805 294.078 38.0596 284.54 43.8143 265.721C53.1344 235.253 60.3725 182.703 62.257 131.842C62.8474 115.916 62.8724 95.3336 59.6399 87.6714C58.6329 85.2875 57.4709 84.0749 56.1831 84.0749C51.7847 84.0749 46.5753 98.0056 43.1286 107.222C42.7406 108.26 42.371 109.245 42.023 110.163C40.0263 115.414 37.9628 120.509 35.966 125.432C31.922 135.405 27.7428 145.719 23.9751 157.742C21.2707 166.368 19.0231 176.689 16.8993 190.205C14.9959 202.328 15.1131 217.497 15.2269 232.166C15.2351 233.337 15.2454 234.509 15.2536 235.669ZM28.1961 299.643H28.1943C26.3082 299.637 24.4936 298.164 22.8044 295.243C16.6767 284.667 14.5847 253.819 13.884 236.371L13.8757 236.003C13.8672 234.791 13.859 233.572 13.849 232.34C13.7337 217.552 13.6049 200.794 15.7339 187.231C17.943 173.166 20.2891 162.409 23.1188 153.381C26.9517 141.152 31.1679 130.75 35.245 120.69C37.2335 115.781 39.2906 110.712 41.2689 105.507C41.6152 104.597 41.9813 103.618 42.366 102.587C45.9515 93.0029 51.3682 78.5159 56.1831 78.5159C57.7198 78.5159 59.1179 79.983 60.339 82.8761C63.4663 90.2903 64.5698 107.04 63.6218 132.659C61.6884 184.82 54.2548 238.75 44.6822 270.04C38.6768 289.684 33.1297 299.643 28.1961 299.643V299.643Z" fill="url(#paint23_linear)" fill-opacity="0.5"/>
<path fill-rule="evenodd" clip-rule="evenodd" d="M411 181.6C408.159 180.826 405.105 179.197 401.632 176.604L401.337 176.388C396.771 172.996 390.517 168.349 387.457 153.361C386.484 148.608 386.149 143.559 386.463 138.353C387.499 121.029 395.297 105.671 398.601 99.8666C402.253 93.4501 406.885 92.8505 411 92.3927V91C406.851 91.4578 402.178 92.0563 398.463 98.588C395.109 104.472 387.196 120.093 386.125 138.03C385.784 143.679 386.142 149.133 387.185 154.244C390.328 169.628 396.656 174.328 401.273 177.763L401.567 177.985C405.064 180.583 408.138 182.227 411 183V181.6" fill="url(#paint24_linear)" fill-opacity="0.5"/>
<path fill-rule="evenodd" clip-rule="evenodd" d="M71.9284 608.597C75.3133 675.612 86.8172 737.781 101.246 766.981C106.67 777.949 112.515 783.765 118.147 783.765C121.646 783.765 125.079 781.57 128.349 777.23C135.619 767.612 142.118 749.111 148.407 731.23C150.218 726.073 152.092 720.74 153.939 715.758C159.763 700.044 165.917 685.581 171.869 671.595C175.133 663.92 178.508 655.991 181.781 647.964C185.691 638.374 189.311 626.292 192.541 612.065C194.315 604.258 195.855 595.347 197.346 586.733C198.71 578.843 200.123 570.69 201.73 563.239C204.501 550.406 208.325 544.166 213.417 544.166C216.782 544.166 220.24 546.752 223.581 549.243C224.832 550.181 226.013 551.048 227.167 551.789C234.197 556.233 241.467 560.842 248.656 560.842C252.179 560.842 255.376 559.755 258.43 557.533C263.377 553.928 267.825 547.273 271.655 537.736C274.371 530.972 276.726 521.956 279 513.25C280.142 508.883 281.321 504.382 282.539 500.163C284.683 492.742 286.579 483.78 288.415 475.1C289.436 470.291 290.489 465.309 291.576 460.633C291.985 458.893 292.392 457.137 292.8 455.382C295.838 442.39 298.979 428.94 301.648 414.427C305.741 392.184 310.173 357.035 308.043 315.906C306.454 285.237 302.49 256.591 298.657 228.89C297.931 223.646 297.179 218.214 296.467 212.917C292.696 184.968 287.797 154.273 279.998 138.553C274.067 126.584 267.173 121.253 257.648 121.253C256.028 121.253 254.266 121.401 252.255 121.708L251.183 121.87C241.66 123.316 231.812 124.802 222.959 139.13C213.845 153.871 214.106 190.064 215.153 225.877C215.357 232.882 215.598 240.162 215.828 247.202C216.889 279.524 217.986 312.939 216.812 344.692C215.645 376.284 212.387 406.623 209.232 435.96C208.685 441.064 208.139 446.154 207.608 451.203C207.37 453.48 207.133 455.785 206.893 458.115C205.584 470.908 204.229 484.128 202.131 495.113C199.221 510.356 194.9 513.706 191.057 514.965C189.838 515.367 188.557 515.567 187.249 515.567C181.365 515.567 175.405 511.522 169.644 507.61C167.969 506.471 166.236 505.293 164.552 504.261C161.761 502.534 158.916 500.551 156.166 498.649C149.166 493.773 141.931 488.75 134.791 487.29C133.724 487.062 132.635 486.955 131.556 486.955C123.589 486.955 115.395 492.768 106.504 504.703C96.8648 517.657 88.8007 531.588 81.8502 547.287C74.5958 563.667 71.2578 584.297 71.9284 608.597ZM118.149 789.323H118.147C112.301 789.323 106.242 783.309 100.628 771.952C93.1973 756.907 86.4493 733.534 81.1146 704.329C75.9017 675.815 72.2561 643.048 70.5721 609.574L70.5621 609.333C69.8075 582.558 73.38 560.051 81.1766 542.438C88.2036 526.565 96.3466 512.5 106.069 499.439C115.102 487.304 123.439 481.396 131.556 481.396C132.658 481.396 133.771 481.516 134.861 481.731C142.083 483.218 149.36 488.268 156.401 493.156C159.145 495.073 161.982 497.041 164.762 498.755C166.455 499.801 168.192 500.993 169.873 502.131C175.579 506.002 181.48 510.008 187.249 510.008C188.52 510.008 189.763 509.807 190.945 509.419C194.488 508.267 198.457 505.24 201.038 491.723C203.024 481.315 204.344 468.443 205.619 455.998C205.86 453.654 206.099 451.323 206.34 449.033C206.871 443.97 207.418 438.879 207.969 433.75C211.085 404.742 214.31 374.743 215.448 343.874C216.592 312.891 215.508 279.872 214.46 247.931C214.23 240.872 213.989 233.572 213.784 226.525C212.721 190.238 212.427 150.173 222.444 133.965C231.522 119.285 241.489 117.777 251.129 116.317L252.202 116.15C254.23 115.841 256.012 115.695 257.648 115.695C267.398 115.695 274.481 121.206 280.616 133.577C288.753 149.993 293.807 181.551 297.678 210.257C298.39 215.535 299.138 220.946 299.861 226.184C303.744 254.247 307.761 283.268 309.394 314.767C311.163 348.925 308.865 384.536 302.755 417.743C300.038 432.517 296.868 446.073 293.803 459.2C293.399 460.941 292.991 462.696 292.583 464.438C291.52 469.019 290.476 473.948 289.466 478.717C287.596 487.544 285.66 496.68 283.439 504.382C282.245 508.509 281.077 512.969 279.95 517.282C277.622 526.189 275.214 535.392 272.381 542.465C268.404 552.365 263.792 559.289 258.678 563.014C255.536 565.291 252.259 566.405 248.656 566.405C241.358 566.405 234.037 561.769 226.953 557.281C225.779 556.529 224.591 555.646 223.331 554.707C220.049 552.271 216.655 549.737 213.417 549.737C208.682 549.737 205.299 555.19 202.771 566.899C201.211 574.119 199.82 582.157 198.476 589.926C196.961 598.683 195.393 607.742 193.558 615.829C190.24 630.445 186.519 642.851 182.498 652.71C179.212 660.77 175.833 668.715 172.564 676.402C166.629 690.349 160.493 704.773 154.705 720.377C152.873 725.321 151.006 730.643 149.201 735.767C142.831 753.895 136.244 772.632 128.779 782.519C125.37 787.035 121.793 789.323 118.149 789.323V789.323Z" fill="url(#paint25_linear)" fill-opacity="0.5"/>
<path fill-rule="evenodd" clip-rule="evenodd" d="M253.169 145.707C250.489 145.707 247.656 146.262 244.512 147.4C236.054 150.468 230.194 160.702 226.598 178.698C222.184 200.801 222.321 230.906 222.932 254.662C223.096 260.918 223.277 267.214 223.454 273.308C224.207 299.162 224.916 323.573 224.27 349.514C223.95 362.474 223.328 375.521 222.725 388.139C221.625 411.165 220.491 434.982 221.156 458.932C224.692 519.237 243.931 523.94 249.744 523.94C250.426 523.94 251.111 523.886 251.784 523.778C270.167 520.817 284.252 465.135 293.248 423.509C300.881 388.185 303.671 355.541 302.032 320.774C300.393 285.954 295.119 250.866 290.176 221.135C284.881 189.287 277.769 166.521 269.615 155.311C264.913 148.848 259.534 145.707 253.169 145.707ZM249.744 525.332V525.332C243.182 525.332 236.917 520.362 232.111 511.347C225.973 499.841 222.174 482.293 220.819 459.174C220.14 434.928 221.284 411.012 222.388 387.877C222.987 375.287 223.609 362.272 223.929 349.373C224.568 323.587 223.862 299.241 223.113 273.469C222.936 267.375 222.752 261.072 222.591 254.81C221.973 230.786 221.836 200.325 226.331 177.828C229.986 159.524 235.924 149.115 244.479 146.014C247.637 144.869 250.476 144.313 253.169 144.313C259.574 144.313 264.99 147.482 269.726 153.991C277.954 165.304 285.124 188.256 290.463 220.364C295.423 250.208 300.718 285.451 302.373 320.513C304.032 355.736 301.216 388.755 293.506 424.42C284.47 466.246 270.313 522.184 251.798 525.172C251.118 525.278 250.431 525.332 249.744 525.332V525.332Z" fill="url(#paint26_linear)" fill-opacity="0.5"/>
<path fill-rule="evenodd" clip-rule="evenodd" d="M46.8645 146.838C43.4913 146.838 38.8792 156.301 37.1412 159.865C33.009 168.343 23.53 192.114 24.7778 229.62C26.032 247.958 29.258 251.823 31.7431 251.823C34.116 251.83 36.9306 248.206 39.4675 241.884C42.744 233.72 45.5568 221.811 47.6018 207.437C48.6558 200.03 51.9771 174.439 50.4936 156.055C50.0002 149.94 48.7795 146.838 46.8645 146.838ZM31.7431 253.215V253.215C29.1373 253.215 25.7575 249.17 24.4414 229.895C23.1586 191.417 32.7867 167.239 36.9858 158.626C38.7417 155.023 43.4076 145.452 46.8644 145.452C48.9466 145.452 50.2778 148.874 50.823 155.625C52.3499 174.553 48.9715 200.599 47.9012 208.127C45.8278 222.701 42.9747 234.784 39.6484 243.069C37.0593 249.518 34.178 253.215 31.7431 253.215V253.215Z" fill="url(#paint27_linear)" fill-opacity="0.5"/>
<path fill-rule="evenodd" clip-rule="evenodd" d="M251.577 175.008C245.908 175.008 241.151 179.89 237.435 189.529C232.549 202.214 230.301 224.61 230.753 256.096C230.86 260.101 230.967 264.126 231.076 268.151C232.107 306.576 233.174 346.318 232.468 386.076C231.763 425.793 233.96 452.503 239.188 467.733C243.289 479.695 247.941 485.749 253.018 485.749C268.11 485.749 281.792 434.191 285.63 418.379C293.292 386.799 296.33 357.9 295.188 327.446C294.044 296.89 289.378 261.674 282.388 230.826C276.023 202.722 268.092 184.464 259.457 178.015C256.778 176.019 254.125 175.008 251.577 175.008ZM253.022 487.142C253.018 487.142 253.022 487.142 253.018 487.142C247.867 487.142 243.148 480.994 238.987 468.871C233.652 453.319 231.408 426.209 232.123 385.976C232.826 346.339 231.809 308.43 230.733 268.299C230.626 264.273 230.519 260.248 230.411 256.209C229.95 224.155 232.251 201.329 237.251 188.356C241.021 178.577 245.841 173.615 251.577 173.615C254.149 173.615 256.821 174.639 259.518 176.649C268.229 183.152 276.228 201.564 282.642 229.888C289.68 260.93 294.376 296.416 295.529 327.237C296.687 358.16 293.62 387.428 285.876 419.357C282.017 435.249 268.243 487.142 253.022 487.142V487.142Z" fill="url(#paint28_linear)" fill-opacity="0.5"/>
<path fill-rule="evenodd" clip-rule="evenodd" d="M125.85 193.775C123.144 193.775 120.479 199.098 118.533 208.382C116.483 218.167 115.555 231.041 116.048 242.808C117.351 260.905 122.434 269.043 126.89 269.043C126.892 269.043 126.892 269.043 126.892 269.043C131.459 269.043 135.222 261.099 136.712 248.306C137.533 241.254 137.531 233.592 136.704 225.541C135.202 210.901 131.55 199.909 128.79 195.885C127.83 194.484 126.84 193.775 125.85 193.775ZM126.892 270.435C126.892 270.435 126.892 270.435 126.89 270.435C122.305 270.428 117.071 261.983 115.712 243.116C115.197 230.872 116.156 217.578 118.271 207.485C120.281 197.888 123.042 192.388 125.85 192.388C126.88 192.388 127.909 193.125 128.907 194.578C131.735 198.704 135.481 209.983 137.023 225.005C137.877 233.318 137.877 241.575 137.023 248.896C135.476 262.178 131.595 270.435 126.892 270.435V270.435Z" fill="url(#paint29_linear)" fill-opacity="0.5"/>
<path fill-rule="evenodd" clip-rule="evenodd" d="M243.319 283.857C243.855 298.651 244.196 313.769 244.523 328.389C244.884 344.578 245.259 361.315 245.901 377.55C246.536 393.578 248.654 421.418 255.705 427.828C256.871 428.887 258.103 429.436 259.36 429.436C268.923 429.436 280.047 397.816 283.653 360.391C288.355 311.559 276.121 263.691 268.15 243.102C264.805 234.463 259.664 224.162 254.165 224.162C252.116 224.162 250.162 225.642 248.366 228.549C243.266 236.813 243.082 261.407 243.319 283.857ZM259.364 434.995C259.36 434.995 259.36 434.995 259.36 434.995C257.998 434.995 256.668 434.405 255.404 433.253C247.556 426.127 245.229 395.841 244.539 378.421C243.89 361.998 243.512 345.168 243.148 328.892C242.82 314.298 242.483 299.208 241.95 284.52L241.943 284.24C241.743 265.386 241.405 233.826 247.851 223.391C249.814 220.217 251.937 218.603 254.165 218.603C259.996 218.603 265.394 229.379 268.893 238.42C277.218 259.92 289.965 310.225 284.937 362.406C281.147 401.756 269.434 434.995 259.364 434.995V434.995Z" fill="url(#paint30_linear)" fill-opacity="0.5"/>
<path fill-rule="evenodd" clip-rule="evenodd" d="M141.758 823C142.822 818.885 143.872 814.748 144.909 810.633C147.501 800.373 150.179 789.767 153.012 780.308C160.727 754.592 169.063 735.356 177.79 723.154C182.852 716.081 188.179 711.472 193.329 707.012C198.062 702.913 202.961 698.667 207.653 692.516C208.585 691.298 209.556 689.959 210.563 688.593C218.407 677.834 228.171 664.468 235.575 680.703C237.566 685.082 238.657 690.563 238.817 697.004C239.258 714.77 232.652 737.112 228.705 750.466C227.816 753.495 227.043 756.09 226.479 758.208C221.219 777.856 216.708 799.786 212.717 823H213.139C217.082 800.148 221.534 778.58 226.712 759.223C227.273 757.138 228.04 754.537 228.93 751.536C233.188 737.123 239.62 715.368 239.161 696.856C238.987 689.932 237.836 684.094 235.74 679.485C228.201 662.954 218.36 676.44 210.454 687.265C209.45 688.648 208.478 689.97 207.547 691.188C202.871 697.328 197.983 701.558 193.255 705.657C188.095 710.117 182.761 714.737 177.678 721.842C168.911 734.094 160.541 753.413 152.793 779.238C149.949 788.736 147.263 799.358 144.668 809.645C143.546 814.09 142.413 818.567 141.258 823H141.758" fill="url(#paint31_linear)" fill-opacity="0.5"/>
<path fill-rule="evenodd" clip-rule="evenodd" d="M45.9566 798.14C41.5014 789.564 39.0162 779.842 38.1383 767.541C37.0896 752.864 38.0897 737.309 39.0562 722.281C39.1635 720.635 39.2686 719 39.3706 717.365C42.2589 671.222 41.6451 633.71 37.4926 602.688C33.4807 572.709 26.5739 554.159 19.8945 536.223C13.1047 517.992 6.08417 499.144 2.13227 468.295C1.31616 461.933 0.617185 455.315 0 448.564V452.476C0.541835 458.088 1.14217 463.594 1.82621 468.939C5.81798 500.11 12.8773 519.05 19.702 537.387C26.3481 555.229 33.218 573.675 37.1899 603.347C41.2989 634.05 41.9028 671.233 39.0364 717.031C38.9343 718.655 38.8288 720.284 38.7237 721.93C37.7903 736.442 36.7317 752.875 37.8054 767.919C38.9994 784.637 42.9447 793.877 45.8076 799.385C51.1241 809.602 56.7231 816.998 62.3206 823H63.682C57.6797 816.773 51.6527 809.08 45.9566 798.14" fill="url(#paint32_linear)" fill-opacity="0.5"/>
<path fill-rule="evenodd" clip-rule="evenodd" d="M384.633 816.29C385.8 818.753 386.985 820.992 388.188 823H389.122C387.654 820.685 386.208 818.057 384.793 815.055C369.94 783.551 355.909 712.811 358.147 648.958C359.388 613.486 364.812 579.184 369.598 548.908C370.255 544.743 370.904 540.63 371.533 536.598C372.227 532.111 372.923 527.623 373.617 523.136C378.225 493.317 382.991 462.482 388.422 434.38C392.68 412.318 397.678 392.405 402.511 373.15C404.816 363.947 407.203 354.443 409.501 344.718C409.97 342.743 410.481 340.579 411 338.275V336.193C410.391 338.951 409.782 341.523 409.234 343.848C406.956 353.465 404.572 362.969 402.266 372.158C397.427 391.448 392.423 411.393 388.148 433.522C382.707 461.692 377.938 492.555 373.325 522.399C372.629 526.886 371.937 531.374 371.241 535.861C370.612 539.894 369.963 543.992 369.308 548.158C364.501 578.553 359.056 613.003 357.805 648.771C356.427 688.056 361.017 723.823 365.106 746.9C370.15 775.381 377.268 800.669 384.633 816.29" fill="url(#paint33_linear)" fill-opacity="0.5"/>
<path fill-rule="evenodd" clip-rule="evenodd" d="M300.982 823C301.692 819.302 302.407 815.703 303.109 812.219C303.832 808.652 304.568 805.091 305.306 801.503C309.615 780.643 314.073 759.064 316.307 733.106C319.372 697.498 315.789 667.338 311.996 635.416L311.457 630.873C307.454 597.021 306.661 566.592 309.027 537.843C311.498 507.811 316.641 482.253 321.275 460.66C322.372 455.543 323.502 450.399 324.598 445.43C328.526 427.614 332.583 409.196 335.754 388.386C336.346 384.501 336.945 380.423 337.523 376.472C341.08 352.219 344.755 327.137 351.126 315.383C353.562 310.888 356.217 308.25 358.789 305.705C360.572 303.929 362.415 302.101 364.178 299.657C367.225 295.445 370.202 290.06 373.081 284.856C374.931 281.505 376.843 278.044 378.754 274.936C388.701 258.728 397.936 257.027 406.207 269.873C407.772 272.305 409.492 275.505 411 279.517V277.877C409.71 274.521 408.151 271.399 406.331 268.573C397.976 255.594 388.654 257.302 378.627 273.644C376.706 276.764 374.79 280.234 372.937 283.582C370.067 288.78 367.097 294.144 364.067 298.345C362.317 300.768 360.481 302.591 358.705 304.352C356.121 306.918 353.448 309.569 350.983 314.117C344.51 326.052 340.808 351.322 337.226 375.761C336.648 379.706 336.052 383.785 335.46 387.656C332.305 408.366 328.258 426.731 324.342 444.506C323.245 449.476 322.11 454.632 321.014 459.75C316.362 481.449 311.19 507.129 308.698 537.401C306.303 566.52 307.104 597.289 311.146 631.46L311.685 636.02C315.444 667.667 319.001 697.58 315.98 732.651C313.766 758.383 309.33 779.853 305.043 800.62C304.303 804.192 303.563 807.769 302.841 811.346C302.082 815.094 301.31 818.995 300.544 823H300.982" fill="url(#paint34_linear)" fill-opacity="0.5"/>
<path fill-rule="evenodd" clip-rule="evenodd" d="M26.333 616.795C22.9128 587.792 16.3992 569.242 10.1009 551.306C6.61258 541.367 3.0588 531.239 0 519.264V521.166C3.02003 532.819 6.49202 542.719 9.90195 552.43C16.1649 570.273 22.6406 588.719 26.0221 617.387C33.0225 676.753 17.8308 731.406 7.77817 767.568L6.55887 771.979C4.28467 780.187 2.03198 788.884 0 798.502V800.669C2.08884 790.612 4.4251 781.543 6.78794 773.011L8.00724 768.616C18.1367 732.168 33.4438 677.098 26.333 616.795" fill="url(#paint35_linear)" fill-opacity="0.5"/>
<path fill-rule="evenodd" clip-rule="evenodd" d="M311.438 802.052C310.072 808.91 308.695 815.862 307.371 823H309.1C310.22 817.08 311.371 811.264 312.515 805.519C314.047 797.789 315.636 789.806 317.098 781.757C322.345 752.875 328.874 716.948 326.037 678.289C324.853 662.175 322.602 647.898 320.421 634.088C317.535 615.763 314.806 598.469 314.258 576.928C312.662 514.402 325.79 465.389 336.339 425.993L337.189 422.819C343.67 398.594 349.684 377.65 357.681 366.607C361.201 361.75 364.967 359.312 368.605 356.954C369.338 356.48 370.07 356.004 370.8 355.515C371.063 355.341 371.362 355.119 371.689 354.886C374.309 352.984 379.185 349.44 381.416 355.736C382.036 357.491 382.403 359.889 382.54 363.069C382.951 372.727 381.931 384.824 381.027 395.493C380.811 398.044 380.607 400.455 380.429 402.746C379.254 417.984 377.837 433.348 376.094 449.73C373.198 476.975 369.573 505.494 364.683 539.464C363.498 547.663 362.143 556.194 360.705 565.22C353.909 607.956 346.206 656.392 351.341 705.097C354.327 733.452 359.616 760.403 363.886 780.709C367.281 796.85 370.817 811.001 374.446 823H376.657C372.622 810.342 368.696 794.99 364.937 777.109C360.729 757.111 355.525 730.588 352.608 702.913C347.758 656.913 355.253 609.799 361.869 568.221C363.31 559.141 364.675 550.57 365.872 542.25C370.793 508.079 374.442 479.386 377.363 451.927C379.122 435.37 380.556 419.818 381.747 404.4C381.918 402.176 382.118 399.807 382.333 397.288C383.289 385.988 384.373 373.183 383.897 362.125C383.697 357.47 383.129 353.787 382.205 351.181C379.502 343.56 374.459 347.224 371.445 349.406C371.124 349.641 370.83 349.856 370.573 350.03C369.847 350.518 369.118 350.995 368.388 351.462C364.689 353.861 360.866 356.332 357.237 361.342C348.982 372.74 342.848 394.08 336.252 418.74L335.402 421.915C324.628 462.147 311.22 512.219 312.886 577.505C313.467 600.345 316.411 619.017 319.261 637.062C321.386 650.548 323.586 664.507 324.713 679.869C327.359 715.878 321.054 750.587 315.982 778.476C314.538 786.42 312.963 794.359 311.438 802.052" fill="url(#paint36_linear)" fill-opacity="0.5"/>
<path fill-rule="evenodd" clip-rule="evenodd" d="M411 810.697C409.042 811.448 407.032 811.739 404.98 811.552C396.798 810.845 388.978 800.99 382.363 783.052C376.175 766.26 370.96 743.139 367.29 716.186C365.075 699.92 363.922 686.786 363.555 673.608C363.128 658.253 363.369 640.556 364.167 628.502C365.691 605.585 369.345 582.837 372.572 562.766C373.15 559.179 373.719 555.631 374.268 552.138C379.09 521.515 384.298 493.28 389.749 468.228C395.337 442.55 401.266 419.528 407.359 399.813C408.561 395.93 409.775 392.222 411 388.7V387C409.702 390.708 408.412 394.618 407.144 398.729C401.03 418.497 395.092 441.572 389.487 467.318C384.025 492.423 378.803 520.713 373.975 551.397C373.427 554.88 372.858 558.428 372.279 562.014C369.043 582.168 365.372 605.009 363.833 628.157C363.023 640.342 362.778 658.253 363.212 673.756C363.581 687.131 364.746 700.414 366.983 716.844C370.684 744.011 375.934 767.291 382.171 784.204C388.84 802.29 396.724 812.238 404.975 812.945C405.37 812.989 405.767 813 406.161 813C407.804 813 409.419 812.676 411 812.09V810.697" fill="url(#paint37_linear)" fill-opacity="0.5"/>
<path fill-rule="evenodd" clip-rule="evenodd" d="M411 787.7C410.422 787.942 409.84 788.157 409.258 788.305C401.844 790.121 394.621 783.766 388.373 769.907C378.127 747.18 368.295 700.701 369.431 648.087C370.06 619.021 373.531 593.256 376.842 571.915C381.009 545.037 385.864 519.436 391.271 495.823C396.524 472.88 402.291 451.377 408.408 431.899C409.19 429.415 410.062 426.648 411 423.754V422C409.978 425.131 409.033 428.139 408.192 430.811C402.063 450.315 396.282 471.874 391.016 494.882C385.592 518.55 380.726 544.219 376.546 571.178C373.214 592.668 369.724 618.609 369.088 647.966C368.57 671.943 370.345 696.86 374.23 720.017C377.689 740.66 382.653 758.821 388.205 771.123C393.807 783.552 400.178 790 406.773 790C407.604 790 408.441 789.906 409.278 789.686C409.853 789.554 410.428 789.34 411 789.114V787.7" fill="url(#paint38_linear)" fill-opacity="0.5"/>
<path fill-rule="evenodd" clip-rule="evenodd" d="M411 767.595C410.911 767.65 410.824 767.699 410.736 767.755C404.399 770.859 397.643 765.377 391.715 752.328C380.722 728.145 374.344 684.232 375.466 640.456C376.736 590.985 385.684 548.899 393.967 513.334C398.375 494.416 403.415 475.672 409.38 456.001C409.897 454.294 410.443 452.533 411 450.773V449C410.364 451.002 409.753 452.99 409.165 454.926C403.191 474.623 398.137 493.407 393.723 512.367C385.396 548.108 376.41 590.407 375.129 640.308C373.991 684.65 380.438 729.097 391.553 753.566C396.448 764.326 401.898 770 407.226 770C408.416 770 409.604 769.703 410.778 769.141C410.851 769.097 410.927 769.042 411 769.004V767.595" fill="url(#paint39_linear)" fill-opacity="0.5"/>
<path fill-rule="evenodd" clip-rule="evenodd" d="M355.636 417.849C350.441 417.849 345.354 429.891 340.634 442.911C326.257 482.562 319.247 523.778 319.797 565.467C320.595 591.369 324.689 618.188 330.225 633.71C332.105 638.977 334.349 644.376 336.76 644.376C337.323 644.376 337.881 644.069 338.419 643.493C341.467 640.168 343.667 629.496 345.614 620.076C354.571 576.704 363.939 524.823 365.656 468.295C366.211 450.025 364.82 426.355 359.07 419.752C357.97 418.486 356.815 417.849 355.636 417.849ZM336.76 645.753V645.753C334.255 645.753 331.951 640.25 330.028 634.851C324.415 619.11 320.264 591.918 319.451 565.582C318.896 523.336 325.96 481.705 340.44 441.76C345.206 428.618 350.343 416.456 355.636 416.456C356.845 416.456 358.033 417.113 359.163 418.412C365.124 425.256 366.568 449.65 365.997 468.456C364.271 525.359 354.868 577.428 345.898 620.866C343.902 630.539 341.66 641.402 338.511 644.831C337.941 645.446 337.353 645.753 336.76 645.753V645.753Z" fill="url(#paint40_linear)" fill-opacity="0.5"/>
<path fill-rule="evenodd" clip-rule="evenodd" d="M411 744.459C406.194 747.06 401.21 744.448 396.648 736.772C386.659 719.943 380.127 683.054 380.401 644.951C380.715 600.934 388.846 562.475 396.76 530.658C400.835 514.274 405.498 497.73 411 480.114V473C410.794 473.657 410.585 474.313 410.379 474.97C404.724 493.014 399.946 509.947 395.769 526.746C387.667 559.325 379.337 598.843 379.009 644.792C378.718 685.166 385.592 724.19 396.108 741.886C399.703 747.944 403.549 751 407.378 751C408.59 751 409.8 750.687 411 750.073V744.459" fill="url(#paint41_linear)" fill-opacity="0.5"/>
<path fill-rule="evenodd" clip-rule="evenodd" d="M411 724.331C407.41 726.736 403.583 725.984 399.743 719.762C392.265 707.643 385.304 675.481 386.464 637.448C387.685 597.51 394.561 565.545 401.811 536.964C404.48 526.441 407.556 514.884 411 503.757V502C407.462 513.342 404.307 525.194 401.579 535.96C394.283 564.716 387.363 596.906 386.13 637.272C384.949 676.002 392.02 708.741 399.618 721.047C402.202 725.248 404.78 727 407.285 727C408.543 727 409.787 726.544 411 725.743V724.331" fill="url(#paint42_linear)" fill-opacity="0.5"/>
<path fill-rule="evenodd" clip-rule="evenodd" d="M347.062 479.4C343.918 479.4 340.553 486.54 339.256 489.621C333.436 503.365 328.127 530.45 329.389 559.931C330.536 575.431 333.105 584.006 336.623 584.006C339.674 584.006 343.062 577.159 345.47 566.147C351.778 537.254 354.093 512.995 352.348 494.055C351.45 484.33 349.671 479.4 347.062 479.4ZM336.623 585.394V585.394C332.94 585.394 330.251 576.462 329.053 560.254C327.76 530.034 333.158 502.412 339.082 488.415C340.402 485.281 343.831 478.007 347.062 478.007C349.831 478.007 351.717 483.245 352.668 493.572C354.464 513.022 352.125 537.75 345.728 567.058C343.259 578.366 339.771 585.394 336.623 585.394V585.394Z" fill="url(#paint43_linear)" fill-opacity="0.5"/>
<path fill-rule="evenodd" clip-rule="evenodd" d="M411 695.64C409.104 696.941 407.295 696.93 405.551 695.601C398.271 690.079 393.032 664.791 393.362 636.796C393.741 604.498 399.754 577.936 405.586 556.216C407.3 549.832 409.104 543.268 411 536.822V535C409.016 541.701 407.134 548.547 405.35 555.195C399.468 577.107 393.402 603.938 393.015 636.73C392.675 665.422 398.04 691.309 405.485 696.968C406.392 697.649 407.316 698 408.258 698C409.155 698 410.065 697.676 411 697.05V695.64" fill="url(#paint44_linear)" fill-opacity="0.5"/>
<path fill-rule="evenodd" clip-rule="evenodd" d="M130.613 511.255C130.322 511.255 130.033 511.267 129.742 511.28C120.557 511.789 111.219 523.136 101.987 544.996C91.4461 569.949 86.9426 597.986 88.5982 628.3C92.0413 670.899 100.405 743.899 117.699 753.533C118.789 754.137 119.905 754.444 121.012 754.444C129.153 754.444 136.65 738.033 143.54 720.3C145.818 714.435 148.175 708.619 150.452 703.006C156.306 688.577 162.357 673.669 167.759 656.112C168.127 654.905 168.514 653.67 168.914 652.386C173.873 636.448 180.667 614.622 180.523 588.467C180.337 555.042 169.378 542.424 162.127 534.065C161.501 533.356 160.906 532.673 160.355 532.016C152.892 523.109 141.689 511.255 130.613 511.255ZM121.012 755.838C121.012 755.838 121.014 755.838 121.012 755.838C119.888 755.838 118.758 755.53 117.652 754.91C100.173 745.177 91.7391 671.634 88.2671 628.679C86.5697 597.624 91.1284 569.093 101.812 543.79C111.097 521.809 120.492 510.397 129.737 509.888C141.129 509.259 152.773 521.515 160.453 530.677C161.004 531.333 161.597 532.016 162.22 532.74C169.57 541.206 180.677 554 180.867 588.439C181.017 615.28 174.145 637.353 169.128 653.467C168.729 654.757 168.345 655.991 167.977 657.193C162.557 674.811 156.496 689.745 150.633 704.197C148.354 709.81 146.002 715.609 143.727 721.464C136.793 739.323 129.242 755.838 121.012 755.838V755.838Z" fill="url(#paint45_linear)" fill-opacity="0.5"/>
<path fill-rule="evenodd" clip-rule="evenodd" d="M15.9766 642.807C15.647 617.604 11.7608 599.143 8.41148 585.883C5.88451 575.884 3.06403 566.555 0 558V559.691C2.97634 568.059 5.71909 577.147 8.18121 586.893C11.4851 599.989 15.3211 618.164 15.6424 642.89C15.9343 665.325 13.3991 684.352 11.2207 696.349C8.07265 713.695 3.98178 727.702 0 741.204V743C4.06456 729.234 8.26053 714.969 11.4868 697.178C13.6991 684.994 16.2731 665.677 15.9766 642.807" fill="url(#paint46_linear)" fill-opacity="0.5"/>
<path fill-rule="evenodd" clip-rule="evenodd" d="M411 659.581C409.168 659.741 407.397 657.629 406.004 653.443C404.338 648.437 403.395 640.87 403.351 632.154C403.236 610.361 407.466 593.024 411 579.907V578C407.371 591.4 402.881 609.296 403.002 632.182C403.049 641.346 404.041 649.302 405.796 654.569C407.202 658.793 408.969 661 410.804 661C410.869 661 410.935 660.972 411 660.972V659.581" fill="url(#paint47_linear)" fill-opacity="0.5"/>
<path fill-rule="evenodd" clip-rule="evenodd" d="M132.142 540.589C122.849 540.589 110.9 553.007 105.234 587.858C103.235 600.17 102.399 615.39 102.884 630.698C104.044 662.268 107.973 689.663 113.659 705.843C116.924 715.143 120.65 719.845 124.733 719.845C124.735 719.845 124.735 719.845 124.735 719.845C128.326 719.845 132.14 716.24 136.072 709.141C143.554 695.611 151.769 673.565 158.611 648.623C164.915 625.623 166.894 605.393 164.492 588.478C162.092 571.584 156.912 562.422 152.162 555.701C147.297 548.804 142.084 544.059 136.665 541.594C135.208 540.924 133.685 540.589 132.142 540.589ZM124.735 721.239C124.735 721.239 124.735 721.239 124.733 721.239C120.576 721.239 116.783 716.443 113.461 706.984C107.697 690.59 103.717 662.85 102.543 630.884C102.047 615.225 102.9 599.687 104.946 587.095C110.687 551.789 122.758 539.197 132.142 539.197C133.699 539.197 135.234 539.531 136.704 540.201C142.147 542.68 147.387 547.447 152.275 554.384C157.087 561.204 162.334 570.498 164.792 587.792C167.25 605.102 165.19 626.49 158.841 649.654C151.974 674.69 143.728 696.829 136.214 710.403C132.235 717.59 128.374 721.239 124.735 721.239V721.239Z" fill="url(#paint48_linear)" fill-opacity="0.5"/>
<path fill-rule="evenodd" clip-rule="evenodd" d="M0 601.878C2.40309 611.737 3.96763 623.382 4.50065 635.751C5.40735 656.771 2.81517 675.989 0 689.931V692C2.95236 677.731 5.76478 657.642 4.81055 635.501C4.24864 622.462 2.5738 610.235 0 600V601.878" fill="url(#paint49_linear)" fill-opacity="0.5"/>
</g>
<defs>
<linearGradient id="paint0_linear" x1="7" y1="0" x2="7" y2="14" gradientUnits="userSpaceOnUse">
<stop stop-color="#E5E5E5"/>
<stop offset="1" stop-color="white" stop-opacity="0"/>
</linearGradient>
<linearGradient id="paint1_linear" x1="13" y1="0" x2="13" y2="46" gradientUnits="userSpaceOnUse">
<stop stop-color="#E5E5E5"/>
<stop offset="1" stop-color="white" stop-opacity="0"/>
</linearGradient>
<linearGradient id="paint2_linear" x1="16.8407" y1="0" x2="16.8407" y2="71.6109" gradientUnits="userSpaceOnUse">
<stop stop-color="#E5E5E5"/>
<stop offset="1" stop-color="white" stop-opacity="0"/>
</linearGradient>
<linearGradient id="paint3_linear" x1="181.527" y1="0" x2="181.527" y2="823" gradientUnits="userSpaceOnUse">
<stop stop-color="#E5E5E5"/>
<stop offset="1" stop-color="white" stop-opacity="0"/>
</linearGradient>
<linearGradient id="paint4_linear" x1="48.1623" y1="356.319" x2="48.1623" y2="823" gradientUnits="userSpaceOnUse">
<stop stop-color="#E5E5E5"/>
<stop offset="1" stop-color="white" stop-opacity="0"/>
</linearGradient>
<linearGradient id="paint5_linear" x1="264.978" y1="0" x2="264.978" y2="823" gradientUnits="userSpaceOnUse">
<stop stop-color="#E5E5E5"/>
<stop offset="1" stop-color="white" stop-opacity="0"/>
</linearGradient>
<linearGradient id="paint6_linear" x1="127" y1="0" x2="127" y2="456" gradientUnits="userSpaceOnUse">
<stop stop-color="#E5E5E5"/>
<stop offset="1" stop-color="white" stop-opacity="0"/>
</linearGradient>
<linearGradient id="paint7_linear" x1="130.5" y1="0" x2="130.5" y2="420" gradientUnits="userSpaceOnUse">
<stop stop-color="#E5E5E5"/>
<stop offset="1" stop-color="white" stop-opacity="0"/>
</linearGradient>
<linearGradient id="paint8_linear" x1="238.5" y1="0" x2="238.5" y2="13" gradientUnits="userSpaceOnUse">
<stop stop-color="#E5E5E5"/>
<stop offset="1" stop-color="white" stop-opacity="0"/>
</linearGradient>
<linearGradient id="paint9_linear" x1="131.705" y1="0" x2="131.705" y2="390.275" gradientUnits="userSpaceOnUse">
<stop stop-color="#E5E5E5"/>
<stop offset="1" stop-color="white" stop-opacity="0"/>
</linearGradient>
<linearGradient id="paint10_linear" x1="312.959" y1="0" x2="312.959" y2="823" gradientUnits="userSpaceOnUse">
<stop stop-color="#E5E5E5"/>
<stop offset="1" stop-color="white" stop-opacity="0"/>
</linearGradient>
<linearGradient id="paint11_linear" x1="368.5" y1="0" x2="368.5" y2="60" gradientUnits="userSpaceOnUse">
<stop stop-color="#E5E5E5"/>
<stop offset="1" stop-color="white" stop-opacity="0"/>
</linearGradient>
<linearGradient id="paint12_linear" x1="365.5" y1="0" x2="365.5" y2="1" gradientUnits="userSpaceOnUse">
<stop stop-color="#E5E5E5"/>
<stop offset="1" stop-color="white" stop-opacity="0"/>
</linearGradient>
<linearGradient id="paint13_linear" x1="130.5" y1="0" x2="130.5" y2="367" gradientUnits="userSpaceOnUse">
<stop stop-color="#E5E5E5"/>
<stop offset="1" stop-color="white" stop-opacity="0"/>
</linearGradient>
<linearGradient id="paint14_linear" x1="129" y1="0" x2="129" y2="340" gradientUnits="userSpaceOnUse">
<stop stop-color="#E5E5E5"/>
<stop offset="1" stop-color="white" stop-opacity="0"/>
</linearGradient>
<linearGradient id="paint15_linear" x1="21" y1="0" x2="21" y2="102" gradientUnits="userSpaceOnUse">
<stop stop-color="#E5E5E5"/>
<stop offset="1" stop-color="white" stop-opacity="0"/>
</linearGradient>
<linearGradient id="paint16_linear" x1="41" y1="0" x2="41" y2="436" gradientUnits="userSpaceOnUse">
<stop stop-color="#E5E5E5"/>
<stop offset="1" stop-color="white" stop-opacity="0"/>
</linearGradient>
<linearGradient id="paint17_linear" x1="128" y1="0" x2="128" y2="309" gradientUnits="userSpaceOnUse">
<stop stop-color="#E5E5E5"/>
<stop offset="1" stop-color="white" stop-opacity="0"/>
</linearGradient>
<linearGradient id="paint18_linear" x1="26.5" y1="0" x2="26.5" y2="148" gradientUnits="userSpaceOnUse">
<stop stop-color="#E5E5E5"/>
<stop offset="1" stop-color="white" stop-opacity="0"/>
</linearGradient>
<linearGradient id="paint19_linear" x1="38.5" y1="0" x2="38.5" y2="380" gradientUnits="userSpaceOnUse">
<stop stop-color="#E5E5E5"/>
<stop offset="1" stop-color="white" stop-opacity="0"/>
</linearGradient>
<linearGradient id="paint20_linear" x1="38.8782" y1="35.9058" x2="38.8782" y2="334.243" gradientUnits="userSpaceOnUse">
<stop stop-color="#E5E5E5"/>
<stop offset="1" stop-color="white" stop-opacity="0"/>
</linearGradient>
<linearGradient id="paint21_linear" x1="186.527" y1="46.173" x2="186.527" y2="814.951" gradientUnits="userSpaceOnUse">
<stop stop-color="#E5E5E5"/>
<stop offset="1" stop-color="white" stop-opacity="0"/>
</linearGradient>
<linearGradient id="paint22_linear" x1="380" y1="50" x2="380" y2="242" gradientUnits="userSpaceOnUse">
<stop stop-color="#E5E5E5"/>
<stop offset="1" stop-color="white" stop-opacity="0"/>
</linearGradient>
<linearGradient id="paint23_linear" x1="38.8728" y1="78.5159" x2="38.8728" y2="299.643" gradientUnits="userSpaceOnUse">
<stop stop-color="#E5E5E5"/>
<stop offset="1" stop-color="white" stop-opacity="0"/>
</linearGradient>
<linearGradient id="paint24_linear" x1="398.5" y1="91" x2="398.5" y2="183" gradientUnits="userSpaceOnUse">
<stop stop-color="#E5E5E5"/>
<stop offset="1" stop-color="white" stop-opacity="0"/>
</linearGradient>
<linearGradient id="paint25_linear" x1="190.218" y1="115.695" x2="190.218" y2="789.323" gradientUnits="userSpaceOnUse">
<stop stop-color="#E5E5E5"/>
<stop offset="1" stop-color="white" stop-opacity="0"/>
</linearGradient>
<linearGradient id="paint26_linear" x1="261.723" y1="144.313" x2="261.723" y2="525.332" gradientUnits="userSpaceOnUse">
<stop stop-color="#E5E5E5"/>
<stop offset="1" stop-color="white" stop-opacity="0"/>
</linearGradient>
<linearGradient id="paint27_linear" x1="37.7688" y1="145.452" x2="37.7688" y2="253.215" gradientUnits="userSpaceOnUse">
<stop stop-color="#E5E5E5"/>
<stop offset="1" stop-color="white" stop-opacity="0"/>
</linearGradient>
<linearGradient id="paint28_linear" x1="263.06" y1="173.615" x2="263.06" y2="487.142" gradientUnits="userSpaceOnUse">
<stop stop-color="#E5E5E5"/>
<stop offset="1" stop-color="white" stop-opacity="0"/>
</linearGradient>
<linearGradient id="paint29_linear" x1="126.62" y1="192.388" x2="126.62" y2="270.435" gradientUnits="userSpaceOnUse">
<stop stop-color="#E5E5E5"/>
<stop offset="1" stop-color="white" stop-opacity="0"/>
</linearGradient>
<linearGradient id="paint30_linear" x1="263.969" y1="218.603" x2="263.969" y2="434.995" gradientUnits="userSpaceOnUse">
<stop stop-color="#E5E5E5"/>
<stop offset="1" stop-color="white" stop-opacity="0"/>
</linearGradient>
<linearGradient id="paint31_linear" x1="190.221" y1="671.749" x2="190.221" y2="823" gradientUnits="userSpaceOnUse">
<stop stop-color="#E5E5E5"/>
<stop offset="1" stop-color="white" stop-opacity="0"/>
</linearGradient>
<linearGradient id="paint32_linear" x1="31.841" y1="448.564" x2="31.841" y2="823" gradientUnits="userSpaceOnUse">
<stop stop-color="#E5E5E5"/>
<stop offset="1" stop-color="white" stop-opacity="0"/>
</linearGradient>
<linearGradient id="paint33_linear" x1="384.278" y1="336.193" x2="384.278" y2="823" gradientUnits="userSpaceOnUse">
<stop stop-color="#E5E5E5"/>
<stop offset="1" stop-color="white" stop-opacity="0"/>
</linearGradient>
<linearGradient id="paint34_linear" x1="355.772" y1="259.966" x2="355.772" y2="823" gradientUnits="userSpaceOnUse">
<stop stop-color="#E5E5E5"/>
<stop offset="1" stop-color="white" stop-opacity="0"/>
</linearGradient>
<linearGradient id="paint35_linear" x1="14.0775" y1="519.264" x2="14.0775" y2="800.669" gradientUnits="userSpaceOnUse">
<stop stop-color="#E5E5E5"/>
<stop offset="1" stop-color="white" stop-opacity="0"/>
</linearGradient>
<linearGradient id="paint36_linear" x1="345.692" y1="346.584" x2="345.692" y2="823" gradientUnits="userSpaceOnUse">
<stop stop-color="#E5E5E5"/>
<stop offset="1" stop-color="white" stop-opacity="0"/>
</linearGradient>
<linearGradient id="paint37_linear" x1="387" y1="387" x2="387" y2="813" gradientUnits="userSpaceOnUse">
<stop stop-color="#E5E5E5"/>
<stop offset="1" stop-color="white" stop-opacity="0"/>
</linearGradient>
<linearGradient id="paint38_linear" x1="390" y1="422" x2="390" y2="790" gradientUnits="userSpaceOnUse">
<stop stop-color="#E5E5E5"/>
<stop offset="1" stop-color="white" stop-opacity="0"/>
</linearGradient>
<linearGradient id="paint39_linear" x1="393" y1="449" x2="393" y2="770" gradientUnits="userSpaceOnUse">
<stop stop-color="#E5E5E5"/>
<stop offset="1" stop-color="white" stop-opacity="0"/>
</linearGradient>
<linearGradient id="paint40_linear" x1="342.766" y1="416.456" x2="342.766" y2="645.753" gradientUnits="userSpaceOnUse">
<stop stop-color="#E5E5E5"/>
<stop offset="1" stop-color="white" stop-opacity="0"/>
</linearGradient>
<linearGradient id="paint41_linear" x1="395" y1="473" x2="395" y2="751" gradientUnits="userSpaceOnUse">
<stop stop-color="#E5E5E5"/>
<stop offset="1" stop-color="white" stop-opacity="0"/>
</linearGradient>
<linearGradient id="paint42_linear" x1="398.5" y1="502" x2="398.5" y2="727" gradientUnits="userSpaceOnUse">
<stop stop-color="#E5E5E5"/>
<stop offset="1" stop-color="white" stop-opacity="0"/>
</linearGradient>
<linearGradient id="paint43_linear" x1="341.057" y1="478.007" x2="341.057" y2="585.394" gradientUnits="userSpaceOnUse">
<stop stop-color="#E5E5E5"/>
<stop offset="1" stop-color="white" stop-opacity="0"/>
</linearGradient>
<linearGradient id="paint44_linear" x1="402" y1="535" x2="402" y2="698" gradientUnits="userSpaceOnUse">
<stop stop-color="#E5E5E5"/>
<stop offset="1" stop-color="white" stop-opacity="0"/>
</linearGradient>
<linearGradient id="paint45_linear" x1="134.395" y1="509.865" x2="134.395" y2="755.838" gradientUnits="userSpaceOnUse">
<stop stop-color="#E5E5E5"/>
<stop offset="1" stop-color="white" stop-opacity="0"/>
</linearGradient>
<linearGradient id="paint46_linear" x1="8" y1="558" x2="8" y2="743" gradientUnits="userSpaceOnUse">
<stop stop-color="#E5E5E5"/>
<stop offset="1" stop-color="white" stop-opacity="0"/>
</linearGradient>
<linearGradient id="paint47_linear" x1="407" y1="578" x2="407" y2="661" gradientUnits="userSpaceOnUse">
<stop stop-color="#E5E5E5"/>
<stop offset="1" stop-color="white" stop-opacity="0"/>
</linearGradient>
<linearGradient id="paint48_linear" x1="134.102" y1="539.197" x2="134.102" y2="721.239" gradientUnits="userSpaceOnUse">
<stop stop-color="#E5E5E5"/>
<stop offset="1" stop-color="white" stop-opacity="0"/>
</linearGradient>
<linearGradient id="paint49_linear" x1="2.5" y1="600" x2="2.5" y2="692" gradientUnits="userSpaceOnUse">
<stop stop-color="#E5E5E5"/>
<stop offset="1" stop-color="white" stop-opacity="0"/>
</linearGradient>
<clipPath id="clip0">
<rect width="411" height="823" fill="white"/>
</clipPath>
</defs>
</svg>
