<svg width="36" height="36" viewBox="0 0 36 36" fill="none" xmlns="http://www.w3.org/2000/svg">
<path d="M3.3296 3.32999C3.13907 3.52047 3.02323 3.773 3.00314 4.04166C2.98304 4.31033 3.06003 4.57728 3.2201 4.79399L3.3296 4.91999L9.3806 10.9725C6.43014 13.0404 4.32393 16.1026 3.4481 19.5975C3.38057 19.8852 3.42896 20.1879 3.58281 20.4402C3.73666 20.6926 3.98361 20.8742 4.2703 20.9459C4.55699 21.0177 4.86039 20.9737 5.11493 20.8235C5.36947 20.6734 5.5547 20.4291 5.6306 20.1435C6.40895 17.0415 8.32595 14.3459 11.0006 12.5925L13.7156 15.3075C12.6311 16.4407 12.0335 17.9536 12.0508 19.5221C12.0681 21.0905 12.6989 22.5899 13.8082 23.6989C14.9174 24.808 16.4168 25.4385 17.9853 25.4555C19.5538 25.4726 21.0665 24.8747 22.1996 23.79L31.0781 32.67C31.2788 32.8713 31.5483 32.9891 31.8324 32.9998C32.1165 33.0105 32.3941 32.9132 32.6094 32.7276C32.8246 32.5419 32.9617 32.2817 32.9929 31.9991C33.0241 31.7165 32.9472 31.4326 32.7776 31.2045L32.6681 31.0785L23.4986 21.9075L23.5001 21.9045L21.7001 20.1075L17.3951 15.8025H17.3981L13.0781 11.487L13.0796 11.484L11.3801 9.78899L4.9196 3.32999C4.70866 3.11931 4.42272 3.00098 4.1246 3.00098C3.82647 3.00098 3.54054 3.11931 3.3296 3.32999V3.32999ZM15.3056 16.8975L20.6081 22.2015C19.9008 22.8846 18.9536 23.2626 17.9703 23.254C16.9871 23.2455 16.0466 22.8511 15.3513 22.1558C14.656 21.4605 14.2616 20.52 14.2531 19.5367C14.2445 18.5535 14.6225 17.6062 15.3056 16.899V16.8975ZM17.9996 8.24999C16.4996 8.24999 15.0446 8.47199 13.6661 8.88749L15.5216 10.7415C18.7309 10.106 22.0617 10.7281 24.8253 12.4791C27.5889 14.2301 29.574 16.9762 30.3701 20.1495C30.4478 20.4329 30.6333 20.6746 30.887 20.823C31.1406 20.9714 31.4422 21.0146 31.7274 20.9435C32.0125 20.8724 32.2585 20.6925 32.4127 20.4424C32.5669 20.1922 32.6171 19.8917 32.5526 19.605C31.7392 16.3612 29.8654 13.4821 27.2288 11.4248C24.5922 9.36762 21.3438 8.25019 17.9996 8.24999V8.24999ZM18.2921 13.515L23.9936 19.215C23.9198 17.7268 23.2954 16.3193 22.2417 15.2658C21.188 14.2124 19.7803 13.5883 18.2921 13.515V13.515Z" fill="#505254"/>
</svg>
