<svg width="36" height="36" viewBox="0 0 36 36" fill="none" xmlns="http://www.w3.org/2000/svg">
<path d="M5.86787 20.8836C7.09547 14.9886 12.2273 10.8 17.9999 10.8C23.7707 10.8 28.9025 14.9886 30.1319 20.8836C30.1806 21.1175 30.3202 21.3225 30.52 21.4535C30.7199 21.5845 30.9636 21.6307 31.1975 21.582C31.4314 21.5333 31.6364 21.3937 31.7674 21.1938C31.8983 20.994 31.9446 20.7503 31.8959 20.5164C30.4973 13.8114 24.6473 9 17.9999 9C11.3525 9 5.50247 13.8114 4.10387 20.5164C4.05518 20.7503 4.1014 20.994 4.23238 21.1938C4.36335 21.3937 4.56835 21.5333 4.80227 21.582C5.03619 21.6307 5.27988 21.5845 5.47971 21.4535C5.67955 21.3225 5.81918 21.1175 5.86787 20.8836Z" fill="#505254"/>
<path d="M18.0002 14.3999C16.3293 14.3999 14.7269 15.0637 13.5454 16.2451C12.3639 17.4266 11.7002 19.029 11.7002 20.6999C11.7002 22.3708 12.3639 23.9732 13.5454 25.1547C14.7269 26.3362 16.3293 26.9999 18.0002 26.9999C19.6711 26.9999 21.2735 26.3362 22.455 25.1547C23.6364 23.9732 24.3002 22.3708 24.3002 20.6999C24.3002 19.029 23.6364 17.4266 22.455 16.2451C21.2735 15.0637 19.6711 14.3999 18.0002 14.3999ZM13.5002 20.6999C13.5002 19.5064 13.9743 18.3618 14.8182 17.5179C15.6621 16.674 16.8067 16.1999 18.0002 16.1999C19.1937 16.1999 20.3383 16.674 21.1822 17.5179C22.0261 18.3618 22.5002 19.5064 22.5002 20.6999C22.5002 21.8934 22.0261 23.038 21.1822 23.8819C20.3383 24.7258 19.1937 25.1999 18.0002 25.1999C16.8067 25.1999 15.6621 24.7258 14.8182 23.8819C13.9743 23.038 13.5002 21.8934 13.5002 20.6999Z" fill="#505254"/>
</svg>
